<?xml version="1.0" encoding="UTF-8" standalone="no"?>
<svg viewBox="-13.7266 -13.7266 27.4532 27.4532" xmlns="http://www.w3.org/2000/svg">
  <rect x="-13.7266" y="-13.7266" width="27.4532" height="27.4532" fill="white"/>
  <g transform="scale(1, -1)">
  <circle cx="0" cy="0" r="0.452416" fill="#ff8080a0"/>
  <circle cx="1.00619" cy="0" r="0.553776" fill="#aa0087a0"/>
  <circle cx="0.382555" cy="1.08017" r="0.693498" fill="#ff0066a0"/>
  <circle cx="0.382555" cy="-1.08017" r="0.693498" fill="#ff0066a0"/>
  <circle cx="-1.26915" cy="0.706244" r="1" fill="#803dc1a0"/>
  <circle cx="-0.664372" cy="-0.614271" r="0.452416" fill="#ff8080a0"/>
  <circle cx="-0.743102" cy="-1.61738" r="0.553776" fill="#aa0087a0"/>
  <circle cx="-1.77116" cy="-0.911135" r="0.693498" fill="#ff0066a0"/>
  <circle cx="1.50929" cy="-0.871388" r="0.452416" fill="#ff8080a0"/>
  <circle cx="1.50929" cy="0.871388" r="0.452416" fill="#ff8080a0"/>
  <circle cx="2.25347" cy="1.87109e-10" r="0.693498" fill="#ff0066a0"/>
  <circle cx="1.3095" cy="1.75389" r="0.452416" fill="#ff8080a0"/>
  <circle cx="-0.427933" cy="1.89025" r="0.452416" fill="#ff8080a0"/>
  <circle cx="0.480148" cy="2.32362" r="0.553776" fill="#aa0087a0"/>
  <circle cx="1.53224" cy="-2.32362" r="1" fill="#803dc1a0"/>
  <circle cx="0.0862495" cy="-2.18711" r="0.452416" fill="#ff8080a0"/>
  <circle cx="2.37345" cy="-1.13962" r="0.452416" fill="#ff8080a0"/>
  <circle cx="2.75549" cy="1.61738" r="1" fill="#803dc1a0"/>
  <circle cx="-1.65118" cy="-2.05075" r="0.452416" fill="#ff8080a0"/>
  <circle cx="-0.840695" cy="-2.86083" r="0.693498" fill="#ff0066a0"/>
  <circle cx="-1.29209" cy="2.15848" r="0.452416" fill="#ff8080a0"/>
  <circle cx="-0.547915" cy="3.02987" r="0.693498" fill="#ff0066a0"/>
  <circle cx="-2.51534" cy="-0.039747" r="0.452416" fill="#ff8080a0"/>
  <circle cx="-2.41883" cy="1.94969" r="0.693498" fill="#ff0066a0"/>
  <circle cx="-2.71513" cy="0.842752" r="0.452416" fill="#ff8080a0"/>
  <circle cx="1.6058" cy="2.86083" r="0.693498" fill="#ff0066a0"/>
  <circle cx="0.286038" cy="-3.06961" r="0.452416" fill="#ff8080a0"/>
  <circle cx="-3.01844" cy="-0.911135" r="0.553776" fill="#aa0087a0"/>
  <circle cx="-2.51534" cy="-1.78252" r="0.452416" fill="#ff8080a0"/>
  <circle cx="0.558878" cy="3.32673" r="0.452416" fill="#ff8080a0"/>
  <circle cx="3.28153" cy="-0.706244" r="0.553776" fill="#aa0087a0"/>
  <circle cx="3.36026" cy="0.296863" r="0.452416" fill="#ff8080a0"/>
  <circle cx="-3.64208" cy="0.169037" r="0.693498" fill="#ff0066a0"/>
  <circle cx="-1.79519" cy="3.02987" r="0.553776" fill="#aa0087a0"/>
  <circle cx="-2.4924" cy="-3.23476" r="1" fill="#803dc1a0"/>
  <circle cx="3.18394" cy="-1.94969" r="0.693498" fill="#ff0066a0"/>
  <circle cx="-3.54448" cy="1.41249" r="0.553776" fill="#aa0087a0"/>
  <circle cx="-3.64208" cy="-1.99131" r="0.693498" fill="#ff0066a0"/>
  <circle cx="1.03022" cy="-3.941" r="0.693498" fill="#ff0066a0"/>
  <circle cx="-0.217058" cy="-3.941" r="0.553776" fill="#aa0087a0"/>
  <circle cx="-1.22325" cy="-3.941" r="0.452416" fill="#ff8080a0"/>
  <circle cx="-4.02463" cy="-0.911135" r="0.452416" fill="#ff8080a0"/>
  <circle cx="-0.0458958" cy="4.64724" r="1" fill="#803dc1a0"/>
  <circle cx="-1.29209" cy="3.90125" r="0.452416" fill="#ff8080a0"/>
  <circle cx="2.80138" cy="-3.02987" r="0.452416" fill="#ff8080a0"/>
  <circle cx="2.13701" cy="-3.64414" r="0.452416" fill="#ff8080a0"/>
  <circle cx="-2.80138" cy="3.02987" r="0.452416" fill="#ff8080a0"/>
  <circle cx="-3.46575" cy="2.41559" r="0.452416" fill="#ff8080a0"/>
  <circle cx="4.02463" cy="0.911135" r="0.452416" fill="#ff8080a0"/>
  <circle cx="4.40719" cy="-0.169037" r="0.693498" fill="#ff0066a0"/>
  <circle cx="1.22325" cy="3.941" r="0.452416" fill="#ff8080a0"/>
  <circle cx="4.11088" cy="-1.27598" r="0.452416" fill="#ff8080a0"/>
  <circle cx="2.73254" cy="3.06961" r="0.452416" fill="#ff8080a0"/>
  <circle cx="2.22944" cy="3.941" r="0.553776" fill="#aa0087a0"/>
  <circle cx="-2.41883" cy="4.11004" r="0.693498" fill="#ff0066a0"/>
  <circle cx="4.40719" cy="1.99131" r="0.693498" fill="#ff0066a0"/>
  <circle cx="3.5967" cy="2.80139" r="0.452416" fill="#ff8080a0"/>
  <circle cx="-4.45256" cy="0.979116" r="0.452416" fill="#ff8080a0"/>
  <circle cx="-5.29378" cy="-0.204891" r="1" fill="#803dc1a0"/>
  <circle cx="-4.57255" cy="2.11873" r="0.693498" fill="#ff0066a0"/>
  <circle cx="3.80757" cy="-3.02987" r="0.553776" fill="#aa0087a0"/>
  <circle cx="4.31067" cy="-2.15848" r="0.452416" fill="#ff8080a0"/>
  <circle cx="0.286038" cy="-4.81239" r="0.452416" fill="#ff8080a0"/>
  <circle cx="-0.840695" cy="-5.02117" r="0.693498" fill="#ff0066a0"/>
  <circle cx="-1.49188" cy="4.78375" r="0.452416" fill="#ff8080a0"/>
  <circle cx="3.47672" cy="3.941" r="0.693498" fill="#ff0066a0"/>
  <circle cx="5.03082" cy="0.911135" r="0.553776" fill="#aa0087a0"/>
  <circle cx="-4.07053" cy="3.73611" r="1" fill="#803dc1a0"/>
  <circle cx="-4.689" cy="-1.52541" r="0.452416" fill="#ff8080a0"/>
  <circle cx="3.18394" cy="-4.11004" r="0.693498" fill="#ff0066a0"/>
  <circle cx="-1.88762" cy="-4.55527" r="0.452416" fill="#ff8080a0"/>
  <circle cx="1.6058" cy="5.02117" r="0.693498" fill="#ff0066a0"/>
  <circle cx="2.05828" cy="-4.64724" r="0.553776" fill="#aa0087a0"/>
  <circle cx="5.55687" cy="-1.41249" r="1" fill="#803dc1a0"/>
  <circle cx="1.1502" cy="-5.08062" r="0.452416" fill="#ff8080a0"/>
  <circle cx="-3.93838" cy="-3.09825" r="0.452416" fill="#ff8080a0"/>
  <circle cx="-4.76773" cy="-2.52851" r="0.553776" fill="#aa0087a0"/>
  <circle cx="-5.31673" cy="1.24734" r="0.452416" fill="#ff8080a0"/>
  <circle cx="4.50478" cy="3.23476" r="0.553776" fill="#aa0087a0"/>
  <circle cx="2.73254" cy="4.81239" r="0.452416" fill="#ff8080a0"/>
  <circle cx="-3.73859" cy="-3.98075" r="0.452416" fill="#ff8080a0"/>
  <circle cx="-2.99441" cy="-4.85214" r="0.693498" fill="#ff0066a0"/>
  <circle cx="5.53392" cy="0.039747" r="0.452416" fill="#ff8080a0"/>
  <circle cx="5.05485" cy="-3.02987" r="0.693498" fill="#ff0066a0"/>
  <circle cx="0.308986" cy="-6.26462" r="1" fill="#803dc1a0"/>
  <circle cx="-5.7958" cy="-1.82227" r="0.693498" fill="#ff0066a0"/>
  <circle cx="-1.96635" cy="-5.55838" r="0.553776" fill="#aa0087a0"/>
  <circle cx="4.31067" cy="-3.90125" r="0.452416" fill="#ff8080a0"/>
  <circle cx="-2.32123" cy="5.35349" r="0.553776" fill="#aa0087a0"/>
  <circle cx="-3.22931" cy="4.92012" r="0.452416" fill="#ff8080a0"/>
  <circle cx="-4.86533" cy="-3.77196" r="0.693498" fill="#ff0066a0"/>
  <circle cx="-1.19558" cy="5.89069" r="0.693498" fill="#ff0066a0"/>
  <circle cx="5.53392" cy="1.78252" r="0.452416" fill="#ff8080a0"/>
  <circle cx="5.33413" cy="2.66502" r="0.452416" fill="#ff8080a0"/>
  <circle cx="2.88763" cy="-5.21698" r="0.452416" fill="#ff8080a0"/>
  <circle cx="1.96069" cy="-5.89069" r="0.693498" fill="#ff0066a0"/>
  <circle cx="0.795317" cy="5.83125" r="0.452416" fill="#ff8080a0"/>
  <circle cx="-0.0688438" cy="6.09948" r="0.452416" fill="#ff8080a0"/>
  <circle cx="6.2781" cy="0.911135" r="0.693498" fill="#ff0066a0"/>
  <circle cx="-5.31673" cy="2.99012" r="0.452416" fill="#ff8080a0"/>
  <circle cx="-5.81982" cy="2.11873" r="0.553776" fill="#aa0087a0"/>
  <circle cx="-1.137" cy="-6.12811" r="0.452416" fill="#ff8080a0"/>
  <circle cx="4.33362" cy="-5.35349" r="1" fill="#803dc1a0"/>
  <circle cx="-6.44346" cy="1.03856" r="0.693498" fill="#ff0066a0"/>
  <circle cx="-4.24169" cy="-4.85214" r="0.553776" fill="#aa0087a0"/>
  <circle cx="4.58351" cy="4.23786" r="0.452416" fill="#ff8080a0"/>
  <circle cx="3.97874" cy="5.55838" r="1" fill="#803dc1a0"/>
  <circle cx="-5.67581" cy="-2.96188" r="0.452416" fill="#ff8080a0"/>
  <circle cx="2.53275" cy="5.69489" r="0.452416" fill="#ff8080a0"/>
  <circle cx="1.7034" cy="6.26462" r="0.553776" fill="#aa0087a0"/>
  <circle cx="6.39808" cy="-0.22848" r="0.452416" fill="#ff8080a0"/>
  <circle cx="5.63044" cy="3.77196" r="0.693498" fill="#ff0066a0"/>
  <circle cx="6.78012" cy="2.52851" r="1" fill="#803dc1a0"/>
  <circle cx="5.17483" cy="-4.16948" r="0.452416" fill="#ff8080a0"/>
  <circle cx="-6.53998" cy="-0.950882" r="0.452416" fill="#ff8080a0"/>
  <circle cx="-6.73976" cy="-0.068383" r="0.452416" fill="#ff8080a0"/>
  <circle cx="-4.09348" cy="5.18834" r="0.452416" fill="#ff8080a0"/>
  <circle cx="-3.3493" cy="6.05973" r="0.693498" fill="#ff0066a0"/>
  <circle cx="0.675335" cy="6.97087" r="0.693498" fill="#ff0066a0"/>
  <circle cx="-2.2425" cy="6.35659" r="0.452416" fill="#ff8080a0"/>
  <circle cx="-2.87443" cy="-5.99175" r="0.452416" fill="#ff8080a0"/>
  <circle cx="-3.73859" cy="-5.72352" r="0.452416" fill="#ff8080a0"/>
  <circle cx="3.08742" cy="-6.09948" r="0.452416" fill="#ff8080a0"/>
  <circle cx="-2.06395" cy="-6.80183" r="0.693498" fill="#ff0066a0"/>
  <circle cx="-5.51651" cy="3.87262" r="0.452416" fill="#ff8080a0"/>
  <circle cx="-5.22021" cy="4.97956" r="0.693498" fill="#ff0066a0"/>
  <circle cx="-6.44346" cy="3.1989" r="0.693498" fill="#ff0066a0"/>
  <circle cx="-0.57194" cy="6.97087" r="0.553776" fill="#aa0087a0"/>
  <circle cx="6.16164" cy="-2.733" r="0.452416" fill="#ff8080a0"/>
  <circle cx="6.08291" cy="-3.73611" r="0.553776" fill="#aa0087a0"/>
  <circle cx="2.82905" cy="6.80183" r="0.693498" fill="#ff0066a0"/>
  <circle cx="-0.937212" cy="-7.01061" r="0.452416" fill="#ff8080a0"/>
  <circle cx="5.24788" cy="4.85214" r="0.452416" fill="#ff8080a0"/>
  <circle cx="-1.57813" cy="6.97087" r="0.452416" fill="#ff8080a0"/>
  <circle cx="7.20857" cy="-1.03856" r="0.693498" fill="#ff0066a0"/>
  <circle cx="6.82601" cy="-2.11873" r="0.452416" fill="#ff8080a0"/>
  <circle cx="-6.82601" cy="2.11873" r="0.452416" fill="#ff8080a0"/>
  <circle cx="-6.53998" cy="-2.69366" r="0.452416" fill="#ff8080a0"/>
  <circle cx="-7.04307" cy="-1.82227" r="0.553776" fill="#aa0087a0"/>
  <circle cx="-6.51703" cy="-4.14589" r="1" fill="#803dc1a0"/>
  <circle cx="-5.24788" cy="-4.85214" r="0.452416" fill="#ff8080a0"/>
  <circle cx="7.30616" cy="0.204891" r="0.553776" fill="#aa0087a0"/>
  <circle cx="1.57813" cy="-6.97087" r="0.452416" fill="#ff8080a0"/>
  <circle cx="2.58432" cy="-6.97087" r="0.553776" fill="#aa0087a0"/>
  <circle cx="-4.86533" cy="-5.93231" r="0.693498" fill="#ff0066a0"/>
  <circle cx="7.38489" cy="1.208" r="0.452416" fill="#ff8080a0"/>
  <circle cx="1.78213" cy="7.26773" r="0.452416" fill="#ff8080a0"/>
  <circle cx="-4.59657" cy="6.05973" r="0.553776" fill="#aa0087a0"/>
  <circle cx="-7.66671" cy="-0.742098" r="0.693498" fill="#ff0066a0"/>
  <circle cx="5.98532" cy="-4.97956" r="0.693498" fill="#ff0066a0"/>
  <circle cx="-3.71565" cy="-7.17576" r="1" fill="#803dc1a0"/>
  <circle cx="-6.34587" cy="4.44235" r="0.553776" fill="#aa0087a0"/>
  <circle cx="-7.56911" cy="0.501353" r="0.553776" fill="#aa0087a0"/>
  <circle cx="7.20857" cy="-3.1989" r="0.693498" fill="#ff0066a0"/>
  <circle cx="-2.84728" cy="7.67711" r="1" fill="#803dc1a0"/>
  <circle cx="-7.49039" cy="1.50446" r="0.452416" fill="#ff8080a0"/>
  <circle cx="0.91376" cy="-7.58514" r="0.452416" fill="#ff8080a0"/>
  <circle cx="-0.193033" cy="-7.882" r="0.693498" fill="#ff0066a0"/>
  <circle cx="3.8316" cy="-6.97087" r="0.693498" fill="#ff0066a0"/>
  <circle cx="6.25407" cy="4.85214" r="0.553776" fill="#aa0087a0"/>
  <circle cx="6.75717" cy="3.98075" r="0.452416" fill="#ff8080a0"/>
  <circle cx="-7.66671" cy="-2.90244" r="0.693498" fill="#ff0066a0"/>
  <circle cx="-1.44031" cy="-7.882" r="0.553776" fill="#aa0087a0"/>
  <circle cx="-0.0688438" cy="7.84225" r="0.452416" fill="#ff8080a0"/>
  <circle cx="-1.19558" cy="8.05104" r="0.693498" fill="#ff0066a0"/>
  <circle cx="-8.09516" cy="2.82497" r="1" fill="#803dc1a0"/>
  <circle cx="-5.91225" cy="-5.46641" r="0.452416" fill="#ff8080a0"/>
  <circle cx="5.63044" cy="5.93231" r="0.693498" fill="#ff0066a0"/>
  <circle cx="7.83221" cy="-2.11873" r="0.553776" fill="#aa0087a0"/>
  <circle cx="1.96069" cy="-8.05104" r="0.693498" fill="#ff0066a0"/>
  <circle cx="-4.09348" cy="6.93112" r="0.452416" fill="#ff8080a0"/>
  <circle cx="6.91226" cy="-4.30584" r="0.452416" fill="#ff8080a0"/>
  <circle cx="1.17735" cy="8.58824" r="1" fill="#803dc1a0"/>
  <circle cx="-2.4465" cy="-7.882" r="0.452416" fill="#ff8080a0"/>
  <circle cx="-8.04926" cy="-1.82227" r="0.452416" fill="#ff8080a0"/>
  <circle cx="3.95579" cy="7.01061" r="0.452416" fill="#ff8080a0"/>
  <circle cx="4.81995" cy="6.74239" r="0.452416" fill="#ff8080a0"/>
  <circle cx="8.13551" cy="-0.364844" r="0.452416" fill="#ff8080a0"/>
  <circle cx="8.43182" cy="0.742098" r="0.693498" fill="#ff0066a0"/>
  <circle cx="-7.25395" cy="4.00898" r="0.452416" fill="#ff8080a0"/>
  <circle cx="4.93839" cy="-6.674" r="0.452416" fill="#ff8080a0"/>
  <circle cx="5.60276" cy="-6.05973" r="0.452416" fill="#ff8080a0"/>
  <circle cx="-5.60276" cy="6.05973" r="0.452416" fill="#ff8080a0"/>
  <circle cx="-6.26714" cy="5.44546" r="0.452416" fill="#ff8080a0"/>
  <circle cx="8.04926" cy="1.82227" r="0.452416" fill="#ff8080a0"/>
  <circle cx="2.4465" cy="7.882" r="0.452416" fill="#ff8080a0"/>
  <circle cx="8.3353" cy="-1.24734" r="0.452416" fill="#ff8080a0"/>
  <circle cx="3.08742" cy="-7.84225" r="0.452416" fill="#ff8080a0"/>
  <circle cx="3.45269" cy="7.882" r="0.553776" fill="#aa0087a0"/>
  <circle cx="-8.59718" cy="1.2076" r="0.693498" fill="#ff0066a0"/>
  <circle cx="0.83503" cy="-8.58824" r="0.553776" fill="#aa0087a0"/>
  <circle cx="-8.4772" cy="0.0679811" r="0.452416" fill="#ff8080a0"/>
  <circle cx="-5.22021" cy="7.1399" r="0.693498" fill="#ff0066a0"/>
  <circle cx="7.62133" cy="3.71252" r="0.452416" fill="#ff8080a0"/>
  <circle cx="8.43182" cy="2.90244" r="0.693498" fill="#ff0066a0"/>
  <circle cx="7.50135" cy="4.85214" r="0.693498" fill="#ff0066a0"/>
  <circle cx="-0.268632" cy="8.72475" r="0.452416" fill="#ff8080a0"/>
  <circle cx="-7.37393" cy="5.1486" r="0.693498" fill="#ff0066a0"/>
  <circle cx="-5.99098" cy="-6.46951" r="0.553776" fill="#aa0087a0"/>
  <circle cx="-5.16163" cy="-7.03925" r="0.452416" fill="#ff8080a0"/>
  <circle cx="-9.31841" cy="-1.11603" r="1" fill="#803dc1a0"/>
  <circle cx="6.75717" cy="5.72352" r="0.452416" fill="#ff8080a0"/>
  <circle cx="7.11205" cy="-5.18834" r="0.452416" fill="#ff8080a0"/>
  <circle cx="6.60896" cy="-6.05973" r="0.553776" fill="#aa0087a0"/>
  <circle cx="4.69997" cy="7.882" r="0.693498" fill="#ff0066a0"/>
  <circle cx="-4.29326" cy="7.81362" r="0.452416" fill="#ff8080a0"/>
  <circle cx="-7.01905" cy="-5.76327" r="0.693498" fill="#ff0066a0"/>
  <circle cx="-0.937212" cy="-8.75339" r="0.452416" fill="#ff8080a0"/>
  <circle cx="-2.06395" cy="-8.96217" r="0.693498" fill="#ff0066a0"/>
  <circle cx="-0.0730513" cy="-9.02162" r="0.452416" fill="#ff8080a0"/>
  <circle cx="8.3353" cy="-2.99012" r="0.452416" fill="#ff8080a0"/>
  <circle cx="8.35825" cy="-4.44235" r="1" fill="#803dc1a0"/>
  <circle cx="9.5815" cy="-0.501353" r="1" fill="#803dc1a0"/>
  <circle cx="4.85966" cy="-7.67711" r="0.553776" fill="#aa0087a0"/>
  <circle cx="3.95158" cy="-8.11048" r="0.452416" fill="#ff8080a0"/>
  <circle cx="9.07948" cy="-2.11873" r="0.693498" fill="#ff0066a0"/>
  <circle cx="9.05545" cy="1.82227" r="0.553776" fill="#aa0087a0"/>
  <circle cx="-6.87191" cy="6.76598" r="1" fill="#803dc1a0"/>
  <circle cx="5.98532" cy="-7.1399" r="0.693498" fill="#ff0066a0"/>
  <circle cx="-8.71364" cy="-2.43654" r="0.452416" fill="#ff8080a0"/>
  <circle cx="2.82905" cy="8.96217" r="0.693498" fill="#ff0066a0"/>
  <circle cx="-3.11087" cy="-8.49627" r="0.452416" fill="#ff8080a0"/>
  <circle cx="-7.96301" cy="-4.00938" r="0.452416" fill="#ff8080a0"/>
  <circle cx="-7.76322" cy="-4.89188" r="0.452416" fill="#ff8080a0"/>
  <circle cx="-8.11811" cy="4.27721" r="0.452416" fill="#ff8080a0"/>
  <circle cx="5.72803" cy="7.17576" r="0.553776" fill="#aa0087a0"/>
  <circle cx="-2.00606" cy="8.86112" r="0.452416" fill="#ff8080a0"/>
  <circle cx="-1.09798" cy="9.29449" r="0.553776" fill="#aa0087a0"/>
  <circle cx="6.55738" cy="6.60602" r="0.452416" fill="#ff8080a0"/>
  <circle cx="3.11037" cy="-9.29449" r="1" fill="#803dc1a0"/>
  <circle cx="-8.79236" cy="-3.43965" r="0.553776" fill="#aa0087a0"/>
  <circle cx="8.52941" cy="4.14589" r="0.553776" fill="#aa0087a0"/>
  <circle cx="-9.34136" cy="0.336208" r="0.452416" fill="#ff8080a0"/>
  <circle cx="1.66438" cy="-9.15798" r="0.452416" fill="#ff8080a0"/>
  <circle cx="-4.96184" cy="-7.92175" r="0.452416" fill="#ff8080a0"/>
  <circle cx="-4.21766" cy="-8.79314" r="0.693498" fill="#ff0066a0"/>
  <circle cx="9.55855" cy="0.950882" r="0.452416" fill="#ff8080a0"/>
  <circle cx="3.95579" cy="8.75339" r="0.452416" fill="#ff8080a0"/>
  <circle cx="-6.08858" cy="-7.71296" r="0.693498" fill="#ff0066a0"/>
  <circle cx="0.0276729" cy="9.8317" r="0.693498" fill="#ff0066a0"/>
  <circle cx="0.737436" cy="-9.8317" r="0.693498" fill="#ff0066a0"/>
  <circle cx="-2.87023" cy="9.12934" r="0.452416" fill="#ff8080a0"/>
  <circle cx="-3.99696" cy="8.92056" r="0.693498" fill="#ff0066a0"/>
  <circle cx="7.85623" cy="-6.05973" r="0.693498" fill="#ff0066a0"/>
  <circle cx="-0.914264" cy="-10.2056" r="1" fill="#803dc1a0"/>
  <circle cx="8.00337" cy="6.46951" r="1" fill="#803dc1a0"/>
  <circle cx="9.19946" cy="-3.25835" r="0.452416" fill="#ff8080a0"/>
  <circle cx="-5.12262" cy="8.38335" r="0.553776" fill="#aa0087a0"/>
  <circle cx="-8.88996" cy="-4.6831" r="0.693498" fill="#ff0066a0"/>
  <circle cx="-6.89906" cy="-6.90289" r="0.452416" fill="#ff8080a0"/>
  <circle cx="-9.34136" cy="2.07898" r="0.452416" fill="#ff8080a0"/>
  <circle cx="-9.84445" cy="1.2076" r="0.553776" fill="#aa0087a0"/>
  <circle cx="4.76207" cy="-8.92056" r="0.693498" fill="#ff0066a0"/>
  <circle cx="-9.82043" cy="-2.7334" r="0.693498" fill="#ff0066a0"/>
  <circle cx="-3.1896" cy="-9.49938" r="0.553776" fill="#aa0087a0"/>
  <circle cx="7.11205" cy="-6.93112" r="0.452416" fill="#ff8080a0"/>
  <circle cx="-2.12605" cy="10.0007" r="0.693498" fill="#ff0066a0"/>
  <circle cx="-6.0307" cy="7.94998" r="0.452416" fill="#ff8080a0"/>
  <circle cx="-9.24484" cy="4.06843" r="0.693498" fill="#ff0066a0"/>
  <circle cx="-9.54115" cy="2.96148" r="0.452416" fill="#ff8080a0"/>
  <circle cx="9.55855" cy="2.69366" r="0.452416" fill="#ff8080a0"/>
  <circle cx="9.35876" cy="3.57616" r="0.452416" fill="#ff8080a0"/>
  <circle cx="8.60814" cy="5.149" r="0.452416" fill="#ff8080a0"/>
  <circle cx="-8.6212" cy="5.1486" r="0.553776" fill="#aa0087a0"/>
  <circle cx="-8.26632" cy="-5.76327" r="0.553776" fill="#aa0087a0"/>
  <circle cx="5.68901" cy="-8.24685" r="0.452416" fill="#ff8080a0"/>
  <circle cx="2.01857" cy="9.77225" r="0.452416" fill="#ff8080a0"/>
  <circle cx="1.15441" cy="10.0405" r="0.452416" fill="#ff8080a0"/>
  <circle cx="-8.11811" cy="6.01998" r="0.452416" fill="#ff8080a0"/>
  <circle cx="5.80676" cy="8.17886" r="0.452416" fill="#ff8080a0"/>
  <circle cx="6.85369" cy="7.71296" r="0.693498" fill="#ff0066a0"/>
  <circle cx="1.86417" cy="-10.0405" r="0.452416" fill="#ff8080a0"/>
  <circle cx="-7.76322" cy="-6.63466" r="0.452416" fill="#ff8080a0"/>
  <circle cx="10.3027" cy="1.82227" r="0.693498" fill="#ff0066a0"/>
  <circle cx="-5.46494" cy="-8.79314" r="0.553776" fill="#aa0087a0"/>
  <circle cx="-10.4681" cy="0.127425" r="0.693498" fill="#ff0066a0"/>
  <circle cx="5.20199" cy="9.49938" r="1" fill="#803dc1a0"/>
  <circle cx="-2.36025" cy="-10.0691" r="0.452416" fill="#ff8080a0"/>
  <circle cx="-1.01925" cy="10.2976" r="0.452416" fill="#ff8080a0"/>
  <circle cx="-9.70045" cy="-3.87302" r="0.452416" fill="#ff8080a0"/>
  <circle cx="7.135" cy="-8.38335" r="1" fill="#803dc1a0"/>
  <circle cx="10.1863" cy="-1.82187" r="0.452416" fill="#ff8080a0"/>
  <circle cx="10.1075" cy="-2.82497" r="0.553776" fill="#aa0087a0"/>
  <circle cx="-10.4681" cy="2.28777" r="0.693498" fill="#ff0066a0"/>
  <circle cx="-3.37332" cy="10.0007" r="0.553776" fill="#aa0087a0"/>
  <circle cx="9.65507" cy="4.6831" r="0.693498" fill="#ff0066a0"/>
  <circle cx="3.756" cy="9.63589" r="0.452416" fill="#ff8080a0"/>
  <circle cx="10.4227" cy="0.682654" r="0.452416" fill="#ff8080a0"/>
  <circle cx="2.92665" cy="10.2056" r="0.553776" fill="#aa0087a0"/>
  <circle cx="-7.74028" cy="-8.08689" r="1" fill="#803dc1a0"/>
  <circle cx="10.0099" cy="-4.06843" r="0.693498" fill="#ff0066a0"/>
  <circle cx="-5.04389" cy="9.38646" r="0.452416" fill="#ff8080a0"/>
  <circle cx="-6.15068" cy="9.0896" r="0.693498" fill="#ff0066a0"/>
  <circle cx="7.97621" cy="-7.19935" r="0.452416" fill="#ff8080a0"/>
  <circle cx="10.8047" cy="3.43965" r="1" fill="#803dc1a0"/>
  <circle cx="-10.5646" cy="-1.86202" r="0.452416" fill="#ff8080a0"/>
  <circle cx="-10.7644" cy="-0.979518" r="0.452416" fill="#ff8080a0"/>
  <circle cx="-6.89486" cy="8.21821" r="0.452416" fill="#ff8080a0"/>
  <circle cx="1.89858" cy="10.9119" r="0.693498" fill="#ff0066a0"/>
  <circle cx="-10.3705" cy="3.53122" r="0.553776" fill="#aa0087a0"/>
  <circle cx="-4.09768" cy="-9.93275" r="0.452416" fill="#ff8080a0"/>
  <circle cx="-4.96184" cy="-9.66452" r="0.452416" fill="#ff8080a0"/>
  <circle cx="8.96302" cy="-5.76287" r="0.452416" fill="#ff8080a0"/>
  <circle cx="9.62739" cy="-5.1486" r="0.452416" fill="#ff8080a0"/>
  <circle cx="-4.37951" cy="10.0007" r="0.452416" fill="#ff8080a0"/>
  <circle cx="5.8888" cy="-9.12934" r="0.452416" fill="#ff8080a0"/>
  <circle cx="-10.8506" cy="1.2076" r="0.452416" fill="#ff8080a0"/>
  <circle cx="9.27251" cy="5.76327" r="0.452416" fill="#ff8080a0"/>
  <circle cx="6.47113" cy="8.79314" r="0.452416" fill="#ff8080a0"/>
  <circle cx="-6.47113" cy="-8.79314" r="0.452416" fill="#ff8080a0"/>
  <circle cx="0.65131" cy="10.9119" r="0.553776" fill="#aa0087a0"/>
  <circle cx="-0.354882" cy="10.9119" r="0.452416" fill="#ff8080a0"/>
  <circle cx="1.36107" cy="-10.9119" r="0.553776" fill="#aa0087a0"/>
  <circle cx="0.354882" cy="-10.9119" r="0.452416" fill="#ff8080a0"/>
  <circle cx="-8.3179" cy="6.90248" r="0.452416" fill="#ff8080a0"/>
  <circle cx="-9.24484" cy="6.22877" r="0.693498" fill="#ff0066a0"/>
  <circle cx="-3.2872" cy="-10.7428" r="0.693498" fill="#ff0066a0"/>
  <circle cx="10.8506" cy="-1.2076" r="0.452416" fill="#ff8080a0"/>
  <circle cx="11.2332" cy="-0.127425" r="0.693498" fill="#ff0066a0"/>
  <circle cx="-9.62739" cy="5.1486" r="0.452416" fill="#ff8080a0"/>
  <circle cx="8.88429" cy="-6.76598" r="0.553776" fill="#aa0087a0"/>
  <circle cx="-9.27251" cy="-5.76327" r="0.452416" fill="#ff8080a0"/>
  <circle cx="-8.88996" cy="-6.84344" r="0.693498" fill="#ff0066a0"/>
  <circle cx="-8.02159" cy="8.00943" r="0.693498" fill="#ff0066a0"/>
  <circle cx="2.60835" cy="-10.9119" r="0.693498" fill="#ff0066a0"/>
  <circle cx="-10.5417" cy="-5.05703" r="1" fill="#803dc1a0"/>
  <circle cx="-10.2918" cy="4.53433" r="0.452416" fill="#ff8080a0"/>
  <circle cx="4.0523" cy="10.7428" r="0.693498" fill="#ff0066a0"/>
  <circle cx="-2.16046" cy="-10.9516" r="0.452416" fill="#ff8080a0"/>
  <circle cx="11.2332" cy="-2.28777" r="0.693498" fill="#ff0066a0"/>
  <circle cx="-1.62403" cy="11.6181" r="1" fill="#803dc1a0"/>
  <circle cx="4.37951" cy="-10.0007" r="0.452416" fill="#ff8080a0"/>
  <circle cx="3.71514" cy="-10.615" r="0.452416" fill="#ff8080a0"/>
  <circle cx="5.38571" cy="-10.0007" r="0.553776" fill="#aa0087a0"/>
  <circle cx="-11.0677" cy="-2.7334" r="0.553776" fill="#aa0087a0"/>
  <circle cx="-10.5646" cy="-3.60479" r="0.452416" fill="#ff8080a0"/>
  <circle cx="11.3308" cy="1.11603" r="0.553776" fill="#aa0087a0"/>
  <circle cx="-6.08858" cy="-9.87331" r="0.693498" fill="#ff0066a0"/>
  <circle cx="-2.87023" cy="10.8721" r="0.452416" fill="#ff8080a0"/>
  <circle cx="7.98042" cy="7.92175" r="0.452416" fill="#ff8080a0"/>
  <circle cx="7.47732" cy="8.79314" r="0.553776" fill="#aa0087a0"/>
  <circle cx="10.9369" cy="-3.39471" r="0.452416" fill="#ff8080a0"/>
  <circle cx="-3.99696" cy="11.0809" r="0.693498" fill="#ff0066a0"/>
  <circle cx="10.0099" cy="-6.22877" r="0.693498" fill="#ff0066a0"/>
  <circle cx="-5.64866" cy="10.707" r="1" fill="#803dc1a0"/>
  <circle cx="11.4095" cy="2.11913" r="0.452416" fill="#ff8080a0"/>
  <circle cx="-11.515" cy="0.593325" r="0.452416" fill="#ff8080a0"/>
  <circle cx="-11.5937" cy="-0.409782" r="0.553776" fill="#aa0087a0"/>
  <circle cx="3.00538" cy="11.2087" r="0.452416" fill="#ff8080a0"/>
  <circle cx="-7.39795" cy="9.0896" r="0.553776" fill="#aa0087a0"/>
  <circle cx="-11.6913" cy="-1.65323" r="0.693498" fill="#ff0066a0"/>
  <circle cx="8.7867" cy="-8.00943" r="0.693498" fill="#ff0066a0"/>
  <circle cx="-4.9389" cy="-11.1168" r="1" fill="#803dc1a0"/>
  <circle cx="-0.30949" cy="-11.5261" r="0.452416" fill="#ff8080a0"/>
  <circle cx="-1.41628" cy="-11.823" r="0.693498" fill="#ff0066a0"/>
  <circle cx="-9.14725" cy="7.47222" r="0.553776" fill="#aa0087a0"/>
  <circle cx="9.65507" cy="6.84344" r="0.693498" fill="#ff0066a0"/>
  <circle cx="8.84458" cy="7.65352" r="0.452416" fill="#ff8080a0"/>
  <circle cx="6.63298" cy="-10.0007" r="0.693498" fill="#ff0066a0"/>
  <circle cx="10.2787" cy="5.76327" r="0.553776" fill="#aa0087a0"/>
  <circle cx="6.85369" cy="9.87331" r="0.693498" fill="#ff0066a0"/>
  <circle cx="10.6336" cy="-5.1486" r="0.553776" fill="#aa0087a0"/>
  <circle cx="4.76207" cy="-11.0809" r="0.693498" fill="#ff0066a0"/>
  <circle cx="-7.1355" cy="-9.40741" r="0.452416" fill="#ff8080a0"/>
  <circle cx="-9.93688" cy="-6.37754" r="0.452416" fill="#ff8080a0"/>
  <circle cx="-10.8965" cy="5.85484" r="1" fill="#803dc1a0"/>
  <circle cx="11.8568" cy="-1.2076" r="0.553776" fill="#aa0087a0"/>
  <circle cx="-12.1198" cy="1.91384" r="1" fill="#803dc1a0"/>
  <circle cx="0.737437" cy="-11.992" r="0.693498" fill="#ff0066a0"/>
  <circle cx="0.0276729" cy="11.992" r="0.693498" fill="#ff0066a0"/>
  <circle cx="-11.2786" cy="3.09785" r="0.452416" fill="#ff8080a0"/>
  <circle cx="10.7818" cy="4.89188" r="0.452416" fill="#ff8080a0"/>
  <circle cx="1.15441" cy="11.7833" r="0.452416" fill="#ff8080a0"/>
  <circle cx="11.1367" cy="-4.27721" r="0.452416" fill="#ff8080a0"/>
  <circle cx="-11.3986" cy="4.23746" r="0.693498" fill="#ff0066a0"/>
  <circle cx="1.86417" cy="-11.7833" r="0.452416" fill="#ff8080a0"/>
  <circle cx="-2.66356" cy="-11.823" r="0.553776" fill="#aa0087a0"/>
  <circle cx="-11.6913" cy="-3.81358" r="0.693498" fill="#ff0066a0"/>
  <circle cx="-6.89486" cy="9.96099" r="0.452416" fill="#ff8080a0"/>
  <circle cx="8.7246" cy="8.79314" r="0.693498" fill="#ff0066a0"/>
  <circle cx="-3.07001" cy="11.7546" r="0.452416" fill="#ff8080a0"/>
  <circle cx="3.63641" cy="-11.6181" r="0.553776" fill="#aa0087a0"/>
  <circle cx="9.71364" cy="-7.33571" r="0.452416" fill="#ff8080a0"/>
  <circle cx="2.4006" cy="12.5292" r="1" fill="#803dc1a0"/>
  <circle cx="5.17904" cy="10.9516" r="0.452416" fill="#ff8080a0"/>
  <circle cx="6.0432" cy="10.6834" r="0.452416" fill="#ff8080a0"/>
  <circle cx="-10.0553" cy="7.03885" r="0.452416" fill="#ff8080a0"/>
  <circle cx="12.3829" cy="-3.53122" r="1" fill="#803dc1a0"/>
  <circle cx="-9.18626" cy="-7.95038" r="0.452416" fill="#ff8080a0"/>
  <circle cx="-10.0156" cy="-7.38065" r="0.553776" fill="#aa0087a0"/>
  <circle cx="5.8888" cy="-10.8721" r="0.452416" fill="#ff8080a0"/>
  <circle cx="2.72833" cy="-12.0515" r="0.452416" fill="#ff8080a0"/>
  <circle cx="12.1601" cy="0.54629" r="0.452416" fill="#ff8080a0"/>
  <circle cx="12.3599" cy="-0.336208" r="0.452416" fill="#ff8080a0"/>
  <circle cx="-3.66975" cy="-11.823" r="0.452416" fill="#ff8080a0"/>
  <circle cx="12.4564" cy="1.65323" r="0.693498" fill="#ff0066a0"/>
  <circle cx="-12.0739" cy="-2.7334" r="0.452416" fill="#ff8080a0"/>
  <circle cx="-12.6218" cy="0.296462" r="0.693498" fill="#ff0066a0"/>
  <circle cx="-0.38822" cy="-12.5292" r="0.553776" fill="#aa0087a0"/>
  <circle cx="7.73977" cy="-9.70387" r="0.452416" fill="#ff8080a0"/>
  <circle cx="8.40414" cy="-9.0896" r="0.452416" fill="#ff8080a0"/>
  <circle cx="-8.40414" cy="9.0896" r="0.452416" fill="#ff8080a0"/>
  <circle cx="-9.06852" cy="8.47533" r="0.452416" fill="#ff8080a0"/>
  <circle cx="12.0739" cy="2.7334" r="0.452416" fill="#ff8080a0"/>
  <circle cx="3.66975" cy="11.823" r="0.452416" fill="#ff8080a0"/>
  <circle cx="7.98042" cy="9.66452" r="0.452416" fill="#ff8080a0"/>
  <circle cx="9.75266" cy="8.08689" r="0.553776" fill="#aa0087a0"/>
  <circle cx="-12.1427" cy="3.36607" r="0.452416" fill="#ff8080a0"/>
  <circle cx="-12.5018" cy="-0.843154" r="0.452416" fill="#ff8080a0"/>
  <circle cx="12.3599" cy="-2.07898" r="0.452416" fill="#ff8080a0"/>
  <circle cx="4.67594" cy="11.823" r="0.553776" fill="#aa0087a0"/>
  <circle cx="-8.2423" cy="-9.70427" r="0.693498" fill="#ff0066a0"/>
  <circle cx="-8.98647" cy="-8.83288" r="0.452416" fill="#ff8080a0"/>
  <circle cx="-7.14712" cy="-10.3122" r="0.452416" fill="#ff8080a0"/>
  <circle cx="-11.0437" cy="-6.6744" r="0.693498" fill="#ff0066a0"/>
  <circle cx="-8.02159" cy="10.1698" r="0.693498" fill="#ff0066a0"/>
  <circle cx="11.646" cy="4.62365" r="0.452416" fill="#ff8080a0"/>
  <circle cx="11.526" cy="5.76327" r="0.693498" fill="#ff0066a0"/>
  <circle cx="0.954618" cy="12.6658" r="0.452416" fill="#ff8080a0"/>
  <circle cx="-6.38488" cy="-10.9802" r="0.452416" fill="#ff8080a0"/>
  <circle cx="10.7818" cy="6.63466" r="0.452416" fill="#ff8080a0"/>
  <circle cx="12.4564" cy="3.81358" r="0.693498" fill="#ff0066a0"/>
  <circle cx="-10.1753" cy="8.17846" r="0.693498" fill="#ff0066a0"/>
  <circle cx="11.1367" cy="-6.01998" r="0.452416" fill="#ff8080a0"/>
  <circle cx="11.8809" cy="-5.1486" r="0.693498" fill="#ff0066a0"/>
  <circle cx="1.88712" cy="-13.2355" r="1" fill="#803dc1a0"/>
  <circle cx="13.1041" cy="-1.2076" r="0.693498" fill="#ff0066a0"/>
  <circle cx="-3.84775" cy="12.2171" r="0.452416" fill="#ff8080a0"/>
  <circle cx="-4.80745" cy="11.891" r="0.452416" fill="#ff8080a0"/>
  <circle cx="11.1596" cy="-7.47222" r="1" fill="#803dc1a0"/>
  <circle cx="-13.343" cy="-2.02716" r="1" fill="#803dc1a0"/>
  <circle cx="10.582" cy="7.51716" r="0.452416" fill="#ff8080a0"/>
  <circle cx="5.92322" cy="11.823" r="0.693498" fill="#ff0066a0"/>
  <circle cx="-7.31135" cy="11.0285" r="0.693498" fill="#ff0066a0"/>
  <circle cx="9.30704" cy="-9.03039" r="0.452416" fill="#ff8080a0"/>
  <circle cx="9.91343" cy="-8.21821" r="0.452416" fill="#ff8080a0"/>
  <circle cx="-2.16046" cy="-12.6944" r="0.452416" fill="#ff8080a0"/>
  <circle cx="-1.2963" cy="-12.9626" r="0.452416" fill="#ff8080a0"/>
  <circle cx="-10.4325" cy="-8.69637" r="1" fill="#803dc1a0"/>
  <circle cx="-2.77371" cy="12.8616" r="0.693498" fill="#ff0066a0"/>
  <circle cx="13.2869" cy="0.337507" r="0.693498" fill="#ff0066a0"/>
  <circle cx="-3.2872" cy="-12.9032" r="0.693498" fill="#ff0066a0"/>
  <circle cx="-0.782815" cy="12.8021" r="0.452416" fill="#ff8080a0"/>
  <circle cx="0.125266" cy="13.2355" r="0.553776" fill="#aa0087a0"/>
  <circle cx="-11.9876" cy="-4.92052" r="0.452416" fill="#ff8080a0"/>
  <circle cx="-11.7879" cy="-5.80302" r="0.452416" fill="#ff8080a0"/>
  <circle cx="7.6101" cy="-10.5994" r="0.452416" fill="#ff8080a0"/>
  <circle cx="6.75296" cy="-11.1403" r="0.452416" fill="#ff8080a0"/>
  <circle cx="0.441131" cy="-13.099" r="0.452416" fill="#ff8080a0"/>
  <circle cx="6.95128" cy="11.1168" r="0.553776" fill="#aa0087a0"/>
  <circle cx="7.82294" cy="10.6583" r="0.553776" fill="#aa0087a0"/>
  </g>
</svg>
