<?xml version="1.0" encoding="UTF-8" standalone="no"?>
<svg viewBox="-17.9317 -17.9317 35.8635 35.8635" xmlns="http://www.w3.org/2000/svg">
  <rect x="-17.9317" y="-17.9317" width="35.8635" height="35.8635" fill="white"/>
  <g transform="scale(1, -1)">
  <circle cx="0" cy="0" r="0.586905" fill="#ff8080a0"/>
  <circle cx="1.30681" cy="0" r="0.719906" fill="#aa0087a0"/>
  <circle cx="0.485129" cy="1.51093" r="1" fill="#803dc1a0"/>
  <circle cx="0.513635" cy="-1.20164" r="0.719906" fill="#aa0087a0"/>
  <circle cx="-0.989872" cy="-0.972741" r="0.800925" fill="#ff0066a0"/>
  <circle cx="-1.37875" cy="0.785698" r="1" fill="#803dc1a0"/>
  <circle cx="1.95087" cy="-1.28773" r="0.719906" fill="#aa0087a0"/>
  <circle cx="2.2568" cy="1.18763" r="0.800925" fill="#ff0066a0"/>
  <circle cx="2.60428" cy="-0.155998" r="0.586905" fill="#ff8080a0"/>
  <circle cx="1.16704" cy="-2.33337" r="0.586905" fill="#ff8080a0"/>
  <circle cx="-0.384029" cy="-2.6687" r="1" fill="#803dc1a0"/>
  <circle cx="-2.54457" cy="-0.586958" r="0.800925" fill="#ff0066a0"/>
  <circle cx="-2.10132" cy="-2.12626" r="0.800925" fill="#ff0066a0"/>
  <circle cx="-1.07488" cy="2.76248" r="1" fill="#803dc1a0"/>
  <circle cx="1.81354" cy="2.72693" r="0.800925" fill="#ff0066a0"/>
  <circle cx="0.476189" cy="3.09781" r="0.586905" fill="#ff8080a0"/>
  <circle cx="-2.44469" cy="1.9613" r="0.586905" fill="#ff8080a0"/>
  <circle cx="-3.09809" cy="0.829566" r="0.719906" fill="#aa0087a0"/>
  <circle cx="3.67022" cy="-1.3316" r="1" fill="#803dc1a0"/>
  <circle cx="2.50439" cy="-2.70425" r="0.800925" fill="#ff0066a0"/>
  <circle cx="3.97409" cy="0.645184" r="1" fill="#803dc1a0"/>
  <circle cx="1.17598" cy="-3.92025" r="1" fill="#803dc1a0"/>
  <circle cx="3.36824" cy="2.34115" r="0.800925" fill="#ff0066a0"/>
  <circle cx="-3.87299" cy="-1.80295" r="1" fill="#803dc1a0"/>
  <circle cx="-3.88193" cy="-0.216074" r="0.586905" fill="#ff8080a0"/>
  <circle cx="-1.75384" cy="-3.46988" r="0.586905" fill="#ff8080a0"/>
  <circle cx="-0.687896" cy="-4.64548" r="1" fill="#803dc1a0"/>
  <circle cx="-2.79217" cy="3.30492" r="0.800925" fill="#ff0066a0"/>
  <circle cx="-3.74216" cy="2.1173" r="0.719906" fill="#aa0087a0"/>
  <circle cx="-0.177217" cy="4.22954" r="0.719906" fill="#aa0087a0"/>
  <circle cx="1.26002" cy="4.14345" r="0.719906" fill="#aa0087a0"/>
  <circle cx="-3.0513" cy="-3.31389" r="0.719906" fill="#aa0087a0"/>
  <circle cx="-4.53533" cy="0.915657" r="0.719906" fill="#aa0087a0"/>
  <circle cx="-1.68072" cy="4.45844" r="0.800925" fill="#ff0066a0"/>
  <circle cx="2.97937" cy="4.09958" r="1" fill="#803dc1a0"/>
  <circle cx="-5.433" cy="-0.551407" r="1" fill="#803dc1a0"/>
  <circle cx="-2.40724" cy="-4.60162" r="0.719906" fill="#aa0087a0"/>
  <circle cx="4.0591" cy="-3.09004" r="0.800925" fill="#ff0066a0"/>
  <circle cx="2.94765" cy="-4.24355" r="0.800925" fill="#ff0066a0"/>
  <circle cx="4.87175" cy="2.11225" r="0.719906" fill="#aa0087a0"/>
  <circle cx="4.35811" cy="3.31389" r="0.586905" fill="#ff8080a0"/>
  <circle cx="5.5341" cy="-0.606363" r="1" fill="#803dc1a0"/>
  <circle cx="5.04897" cy="-2.1173" r="0.586905" fill="#ff8080a0"/>
  <circle cx="0.615959" cy="5.43118" r="0.719906" fill="#aa0087a0"/>
  <circle cx="-0.690852" cy="5.43118" r="0.586905" fill="#ff8080a0"/>
  <circle cx="-4.56384" cy="3.62823" r="1" fill="#803dc1a0"/>
  <circle cx="-5.04897" cy="2.1173" r="0.586905" fill="#ff8080a0"/>
  <circle cx="5.52516" cy="0.980516" r="0.586905" fill="#ff8080a0"/>
  <circle cx="1.91343" cy="5.27518" r="0.586905" fill="#ff8080a0"/>
  <circle cx="0.690852" cy="-5.43118" r="0.586905" fill="#ff8080a0"/>
  <circle cx="1.99766" cy="-5.43118" r="0.719906" fill="#aa0087a0"/>
  <circle cx="-3.23542" cy="4.84422" r="0.800925" fill="#ff0066a0"/>
  <circle cx="-4.35811" cy="-3.31389" r="0.586905" fill="#ff8080a0"/>
  <circle cx="-3.84448" cy="-4.51552" r="0.719906" fill="#aa0087a0"/>
  <circle cx="-5.73686" cy="-2.52819" r="1" fill="#803dc1a0"/>
  <circle cx="-6.03884" cy="1.14455" r="0.800925" fill="#ff0066a0"/>
  <circle cx="-2.0696" cy="6.21688" r="1" fill="#803dc1a0"/>
  <circle cx="-0.29902" cy="-6.40392" r="0.800925" fill="#ff0066a0"/>
  <circle cx="-1.85372" cy="-6.01814" r="0.800925" fill="#ff0066a0"/>
  <circle cx="5.5626" cy="-3.31893" r="0.719906" fill="#aa0087a0"/>
  <circle cx="4.66494" cy="-4.786" r="1" fill="#803dc1a0"/>
  <circle cx="-3.19107" cy="-5.64726" r="0.586905" fill="#ff8080a0"/>
  <circle cx="3.29513" cy="-5.58718" r="0.586905" fill="#ff8080a0"/>
  <circle cx="6.30899" cy="2.02616" r="0.719906" fill="#aa0087a0"/>
  <circle cx="5.66493" cy="3.31389" r="0.719906" fill="#aa0087a0"/>
  <circle cx="-5.34799" cy="-4.28663" r="0.800925" fill="#ff0066a0"/>
  <circle cx="-6.42771" cy="2.90299" r="1" fill="#803dc1a0"/>
  <circle cx="4.84324" cy="4.82482" r="1" fill="#803dc1a0"/>
  <circle cx="-0.205723" cy="6.94211" r="1" fill="#803dc1a0"/>
  <circle cx="6.35578" cy="-2.1173" r="0.719906" fill="#aa0087a0"/>
  <circle cx="1.20449" cy="-6.63282" r="0.719906" fill="#aa0087a0"/>
  <circle cx="3.28323" cy="6.07637" r="1" fill="#803dc1a0"/>
  <circle cx="1.56594" cy="6.61881" r="0.800925" fill="#ff0066a0"/>
  <circle cx="6.86251" cy="0.609633" r="0.800925" fill="#ff0066a0"/>
  <circle cx="-6.8028" cy="-1.35259" r="0.586905" fill="#ff8080a0"/>
  <circle cx="-7.15029" cy="-0.00896405" r="0.800925" fill="#ff0066a0"/>
  <circle cx="2.64172" cy="-6.71891" r="0.719906" fill="#aa0087a0"/>
  <circle cx="7.30576" cy="-0.929669" r="0.800925" fill="#ff0066a0"/>
  <circle cx="-4.57278" cy="5.21511" r="0.586905" fill="#ff8080a0"/>
  <circle cx="-3.78895" cy="6.26075" r="0.719906" fill="#aa0087a0"/>
  <circle cx="-4.74214" cy="-5.98259" r="1" fill="#803dc1a0"/>
  <circle cx="-6.12385" cy="4.87977" r="1" fill="#803dc1a0"/>
  <circle cx="-7.59354" cy="1.53034" r="0.800925" fill="#ff0066a0"/>
  <circle cx="4.36107" cy="-6.76278" r="1" fill="#803dc1a0"/>
  <circle cx="-3.18213" cy="-7.23413" r="1" fill="#803dc1a0"/>
  <circle cx="-1.41047" cy="-7.55744" r="0.800925" fill="#ff0066a0"/>
  <circle cx="6.99984" cy="-3.40502" r="0.719906" fill="#aa0087a0"/>
  <circle cx="6.21601" cy="-4.45066" r="0.586905" fill="#ff8080a0"/>
  <circle cx="0.306823" cy="-8.09988" r="1" fill="#803dc1a0"/>
  <circle cx="-7.45621" cy="-2.48432" r="0.719906" fill="#aa0087a0"/>
  <circle cx="-6.90269" cy="-3.90084" r="0.800925" fill="#ff0066a0"/>
  <circle cx="6.61491" cy="4.50151" r="0.800925" fill="#ff0066a0"/>
  <circle cx="6.96239" cy="3.15789" r="0.586905" fill="#ff8080a0"/>
  <circle cx="8.02833" cy="1.98229" r="1" fill="#803dc1a0"/>
  <circle cx="7.65324" cy="-2.27329" r="0.586905" fill="#ff8080a0"/>
  <circle cx="1.85789" cy="-7.76455" r="0.586905" fill="#ff8080a0"/>
  <circle cx="-8.10027" cy="-1.19659" r="0.719906" fill="#aa0087a0"/>
  <circle cx="-5.22618" cy="6.34684" r="0.719906" fill="#aa0087a0"/>
  <circle cx="-1.76573" cy="8.19366" r="1" fill="#803dc1a0"/>
  <circle cx="-3.13554" cy="7.39248" r="0.586905" fill="#ff8080a0"/>
  <circle cx="2.67739" cy="7.77233" r="0.800925" fill="#ff0066a0"/>
  <circle cx="1.12269" cy="8.15811" r="0.800925" fill="#ff0066a0"/>
  <circle cx="-6.45943" cy="-5.44015" r="0.800925" fill="#ff0066a0"/>
  <circle cx="6.22495" cy="-6.03754" r="1" fill="#803dc1a0"/>
  <circle cx="8.41721" cy="0.22385" r="0.800925" fill="#ff0066a0"/>
  <circle cx="4.8343" cy="6.4117" r="0.586905" fill="#ff8080a0"/>
  <circle cx="6.17166" cy="6.04081" r="0.800925" fill="#ff0066a0"/>
  <circle cx="4.1809" cy="7.54343" r="0.719906" fill="#aa0087a0"/>
  <circle cx="3.19525" cy="-8.13543" r="0.800925" fill="#ff0066a0"/>
  <circle cx="-0.214663" cy="8.52899" r="0.586905" fill="#ff8080a0"/>
  <circle cx="-8.92195" cy="0.314342" r="1" fill="#803dc1a0"/>
  <circle cx="-4.43301" cy="7.54848" r="0.719906" fill="#aa0087a0"/>
  <circle cx="-7.49366" cy="4.07859" r="0.586905" fill="#ff8080a0"/>
  <circle cx="-8.14706" cy="2.94686" r="0.719906" fill="#aa0087a0"/>
  <circle cx="9.02305" cy="-1.47211" r="1" fill="#803dc1a0"/>
  <circle cx="7.55336" cy="-4.82155" r="0.800925" fill="#ff0066a0"/>
  <circle cx="8.3322" cy="3.95907" r="1" fill="#803dc1a0"/>
  <circle cx="-1.06299" cy="-8.90106" r="0.586905" fill="#ff8080a0"/>
  <circle cx="-2.36045" cy="-8.74507" r="0.719906" fill="#aa0087a0"/>
  <circle cx="8.71919" cy="-3.44889" r="1" fill="#803dc1a0"/>
  <circle cx="-8.93089" cy="1.90122" r="0.586905" fill="#ff8080a0"/>
  <circle cx="1.86683" cy="-9.35143" r="1" fill="#803dc1a0"/>
  <circle cx="-8.24004" cy="-3.52996" r="0.586905" fill="#ff8080a0"/>
  <circle cx="-8.89345" cy="-2.39823" r="0.719906" fill="#aa0087a0"/>
  <circle cx="-3.48302" cy="8.7361" r="0.800925" fill="#ff0066a0"/>
  <circle cx="5.61813" cy="7.45734" r="0.719906" fill="#aa0087a0"/>
  <circle cx="-5.04601" cy="-7.95937" r="1" fill="#803dc1a0"/>
  <circle cx="-6.11195" cy="-6.78377" r="0.586905" fill="#ff8080a0"/>
  <circle cx="-8.2311" cy="-5.11684" r="1" fill="#803dc1a0"/>
  <circle cx="7.72636" cy="5.65503" r="0.800925" fill="#ff0066a0"/>
  <circle cx="-6.72969" cy="6.57574" r="0.800925" fill="#ff0066a0"/>
  <circle cx="-7.84114" cy="5.42222" r="0.800925" fill="#ff0066a0"/>
  <circle cx="-3.66726" cy="-8.74507" r="0.586905" fill="#ff8080a0"/>
  <circle cx="-9.40708" cy="-1.19659" r="0.586905" fill="#ff8080a0"/>
  <circle cx="-5.73982" cy="7.54848" r="0.586905" fill="#ff8080a0"/>
  <circle cx="2.28852" cy="9.53076" r="1" fill="#803dc1a0"/>
  <circle cx="3.66726" cy="8.74507" r="0.586905" fill="#ff8080a0"/>
  <circle cx="0.569168" cy="9.57463" r="0.719906" fill="#aa0087a0"/>
  <circle cx="5.73982" cy="-7.54848" r="0.586905" fill="#ff8080a0"/>
  <circle cx="4.74995" cy="-8.52122" r="0.800925" fill="#ff0066a0"/>
  <circle cx="0.00295619" cy="-10.0767" r="1" fill="#803dc1a0"/>
  <circle cx="-8.79112" cy="4.23459" r="0.719906" fill="#aa0087a0"/>
  <circle cx="-0.868068" cy="9.66072" r="0.719906" fill="#aa0087a0"/>
  <circle cx="9.40708" cy="1.19659" r="0.586905" fill="#ff8080a0"/>
  <circle cx="9.92072" cy="-0.00504725" r="0.719906" fill="#aa0087a0"/>
  <circle cx="-7.40942" cy="-6.62777" r="0.719906" fill="#aa0087a0"/>
  <circle cx="9.89221" cy="2.70752" r="1" fill="#803dc1a0"/>
  <circle cx="4.97407" cy="8.74507" r="0.719906" fill="#aa0087a0"/>
  <circle cx="-2.37158" cy="9.88962" r="0.800925" fill="#ff0066a0"/>
  <circle cx="-9.5843" cy="3.03295" r="0.719906" fill="#aa0087a0"/>
  <circle cx="7.33748" cy="7.41347" r="1" fill="#803dc1a0"/>
  <circle cx="-5.25469" cy="9.05941" r="1" fill="#803dc1a0"/>
  <circle cx="3.6385" cy="-9.67474" r="0.800925" fill="#ff0066a0"/>
  <circle cx="-9.79111" cy="-3.86529" r="1" fill="#803dc1a0"/>
  <circle cx="-1.71639" cy="-10.0328" r="0.719906" fill="#aa0087a0"/>
  <circle cx="7.99661" cy="-6.36085" r="0.800925" fill="#ff0066a0"/>
  <circle cx="7.04663" cy="-7.54848" r="0.719906" fill="#aa0087a0"/>
  <circle cx="-6.76536" cy="-7.9155" r="0.719906" fill="#aa0087a0"/>
  <circle cx="-10.482" cy="1.56589" r="1" fill="#803dc1a0"/>
  <circle cx="9.10806" cy="-5.20733" r="0.800925" fill="#ff0066a0"/>
  <circle cx="-3.15363" cy="-9.9467" r="0.719906" fill="#aa0087a0"/>
  <circle cx="-10.7858" cy="-0.410893" r="1" fill="#803dc1a0"/>
  <circle cx="-10.397" cy="-2.16933" r="0.800925" fill="#ff0066a0"/>
  <circle cx="6.27154" cy="8.58907" r="0.586905" fill="#ff8080a0"/>
  <circle cx="4.15239" cy="10.256" r="1" fill="#803dc1a0"/>
  <circle cx="-7.11857" cy="8.33417" r="1" fill="#803dc1a0"/>
  <circle cx="6.25345" cy="-8.75011" r="0.719906" fill="#aa0087a0"/>
  <circle cx="10.7139" cy="1.19659" r="0.719906" fill="#aa0087a0"/>
  <circle cx="-4.65713" cy="-9.71781" r="0.800925" fill="#ff0066a0"/>
  <circle cx="10.5831" cy="-2.72366" r="1" fill="#803dc1a0"/>
  <circle cx="10.5741" cy="-1.13678" r="0.586905" fill="#ff8080a0"/>
  <circle cx="-3.92628" cy="10.2754" r="0.800925" fill="#ff0066a0"/>
  <circle cx="-8.28439" cy="6.96152" r="0.800925" fill="#ff0066a0"/>
  <circle cx="9.22986" cy="5.42613" r="0.719906" fill="#aa0087a0"/>
  <circle cx="9.88327" cy="4.2944" r="0.586905" fill="#ff8080a0"/>
  <circle cx="1.22257" cy="10.7064" r="0.586905" fill="#ff8080a0"/>
  <circle cx="-0.0748929" cy="10.8624" r="0.719906" fill="#aa0087a0"/>
  <circle cx="-9.6128" cy="5.74552" r="1" fill="#803dc1a0"/>
  <circle cx="8.71623" cy="6.62777" r="0.586905" fill="#ff8080a0"/>
  <circle cx="10.0979" cy="-4.23459" r="0.586905" fill="#ff8080a0"/>
  <circle cx="-1.3817" cy="10.8624" r="0.586905" fill="#ff8080a0"/>
  <circle cx="-6.21183" cy="-9.33202" r="0.800925" fill="#ff0066a0"/>
  <circle cx="-10.0979" cy="4.23459" r="0.586905" fill="#ff8080a0"/>
  <circle cx="1.3817" cy="-10.8624" r="0.586905" fill="#ff8080a0"/>
  <circle cx="2.68851" cy="-10.8624" r="0.719906" fill="#aa0087a0"/>
  <circle cx="5.35579" cy="-10.2172" r="1" fill="#803dc1a0"/>
  <circle cx="11.358" cy="-0.0911385" r="0.719906" fill="#aa0087a0"/>
  <circle cx="-8.71623" cy="-6.62777" r="0.586905" fill="#ff8080a0"/>
  <circle cx="-8.20259" cy="-7.82941" r="0.719906" fill="#aa0087a0"/>
  <circle cx="-10.095" cy="-5.84207" r="1" fill="#803dc1a0"/>
  <circle cx="-11.0878" cy="3.26185" r="0.800925" fill="#ff0066a0"/>
  <circle cx="5.92406" cy="9.93269" r="0.800925" fill="#ff0066a0"/>
  <circle cx="2.59238" cy="11.5075" r="1" fill="#803dc1a0"/>
  <circle cx="-1.16287" cy="-11.4493" r="0.800925" fill="#ff0066a0"/>
  <circle cx="-2.50022" cy="-11.0784" r="0.586905" fill="#ff8080a0"/>
  <circle cx="-2.76045" cy="11.6481" r="1" fill="#803dc1a0"/>
  <circle cx="9.7139" cy="-6.90329" r="1" fill="#803dc1a0"/>
  <circle cx="8.3441" cy="-7.70447" r="0.586905" fill="#ff8080a0"/>
  <circle cx="7.69069" cy="-8.83621" r="0.719906" fill="#aa0087a0"/>
  <circle cx="0.391832" cy="-11.8351" r="0.800925" fill="#ff0066a0"/>
  <circle cx="-7.54919" cy="-8.96114" r="0.586905" fill="#ff8080a0"/>
  <circle cx="3.98598" cy="-11.0184" r="0.586905" fill="#ff8080a0"/>
  <circle cx="-4.05129" cy="-11.4138" r="1" fill="#803dc1a0"/>
  <circle cx="7.64135" cy="9.39025" r="1" fill="#803dc1a0"/>
  <circle cx="11.9115" cy="-1.50766" r="0.800925" fill="#ff0066a0"/>
  <circle cx="11.6639" cy="2.38422" r="0.800925" fill="#ff0066a0"/>
  <circle cx="11.2206" cy="3.92352" r="0.800925" fill="#ff0066a0"/>
  <circle cx="10.6116" cy="-5.43623" r="0.719906" fill="#aa0087a0"/>
  <circle cx="0.875092" cy="12.05" r="0.800925" fill="#ff0066a0"/>
  <circle cx="10.6671" cy="5.34004" r="0.719906" fill="#aa0087a0"/>
  <circle cx="-11.5084" cy="-3.32285" r="0.800925" fill="#ff0066a0"/>
  <circle cx="-11.9517" cy="-1.78355" r="0.800925" fill="#ff0066a0"/>
  <circle cx="10.023" cy="6.62777" r="0.719906" fill="#aa0087a0"/>
  <circle cx="9.20136" cy="8.1387" r="1" fill="#803dc1a0"/>
  <circle cx="-5.26363" cy="10.6463" r="0.586905" fill="#ff8080a0"/>
  <circle cx="-6.8147" cy="10.311" r="1" fill="#803dc1a0"/>
  <circle cx="6.90686" cy="-9.88185" r="0.586905" fill="#ff8080a0"/>
  <circle cx="12.0114" cy="1.04059" r="0.586905" fill="#ff8080a0"/>
  <circle cx="-11.1609" cy="-4.66647" r="0.586905" fill="#ff8080a0"/>
  <circle cx="-9.7061" cy="-7.60051" r="0.800925" fill="#ff0066a0"/>
  <circle cx="-0.896575" cy="12.3733" r="1" fill="#803dc1a0"/>
  <circle cx="11.4047" cy="-4.23459" r="0.719906" fill="#aa0087a0"/>
  <circle cx="-11.4767" cy="5.02029" r="1" fill="#803dc1a0"/>
  <circle cx="1.89534" cy="-12.064" r="0.719906" fill="#aa0087a0"/>
  <circle cx="-5.76858" cy="-10.8713" r="0.800925" fill="#ff0066a0"/>
  <circle cx="-11.8518" cy="0.764707" r="0.586905" fill="#ff8080a0"/>
  <circle cx="-12.1993" cy="2.10833" r="0.800925" fill="#ff0066a0"/>
  <circle cx="-8.83791" cy="8.37804" r="0.719906" fill="#aa0087a0"/>
  <circle cx="-9.62174" cy="7.3324" r="0.586905" fill="#ff8080a0"/>
  <circle cx="-12.5052" cy="-0.367025" r="0.719906" fill="#aa0087a0"/>
  <circle cx="-4.4798" cy="11.6919" r="0.719906" fill="#aa0087a0"/>
  <circle cx="3.33258" cy="-12.1501" r="0.719906" fill="#aa0087a0"/>
  <circle cx="12.3547" cy="-3.04696" r="0.800925" fill="#ff0066a0"/>
  <circle cx="9.41004" cy="-8.88007" r="1" fill="#803dc1a0"/>
  <circle cx="-2.49128" cy="-12.6653" r="1" fill="#803dc1a0"/>
  <circle cx="-8.18451" cy="9.50977" r="0.586905" fill="#ff8080a0"/>
  <circle cx="-7.54025" cy="-10.548" r="1" fill="#803dc1a0"/>
  <circle cx="-9.10026" cy="-9.29647" r="1" fill="#803dc1a0"/>
  <circle cx="4.14345" cy="11.8429" r="0.586905" fill="#ff8080a0"/>
  <circle cx="5.48081" cy="11.472" r="0.800925" fill="#ff0066a0"/>
  <circle cx="13.0773" cy="-0.135007" r="1" fill="#803dc1a0"/>
  <circle cx="-11.1728" cy="6.99707" r="1" fill="#803dc1a0"/>
  <circle cx="5.05192" cy="-12.194" r="1" fill="#803dc1a0"/>
  <circle cx="-0.719616" cy="-12.9886" r="0.800925" fill="#ff0066a0"/>
  <circle cx="-12.6425" cy="3.64763" r="0.800925" fill="#ff0066a0"/>
  <circle cx="7.03551" cy="11.0862" r="0.800925" fill="#ff0066a0"/>
  <circle cx="8.24421" cy="-10.2527" r="0.800925" fill="#ff0066a0"/>
  <circle cx="-5.91704" cy="11.778" r="0.719906" fill="#aa0087a0"/>
  <circle cx="-13.1492" cy="0.920705" r="0.719906" fill="#aa0087a0"/>
  <circle cx="6.9158" cy="-11.4687" r="1" fill="#803dc1a0"/>
  <circle cx="0.997675" cy="-13.5311" r="1" fill="#803dc1a0"/>
  <circle cx="11.265" cy="-6.56796" r="0.586905" fill="#ff8080a0"/>
  <circle cx="12.0488" cy="-5.52232" r="0.719906" fill="#aa0087a0"/>
  <circle cx="13.3812" cy="1.84177" r="1" fill="#803dc1a0"/>
  <circle cx="12.3864" cy="5.29617" r="1" fill="#803dc1a0"/>
  <circle cx="11.3205" cy="6.47177" r="0.586905" fill="#ff8080a0"/>
  <circle cx="-11.8143" cy="-5.79821" r="0.719906" fill="#aa0087a0"/>
  <circle cx="-11.2608" cy="-7.21473" r="0.800925" fill="#ff0066a0"/>
  <circle cx="-10.2751" cy="8.46413" r="0.719906" fill="#aa0087a0"/>
  <circle cx="-12.4584" cy="-4.51048" r="0.719906" fill="#aa0087a0"/>
  <circle cx="12.7753" cy="3.53774" r="0.800925" fill="#ff0066a0"/>
  <circle cx="10.973" cy="7.8154" r="0.800925" fill="#ff0066a0"/>
  <circle cx="-13.2801" cy="-2.99954" r="1" fill="#803dc1a0"/>
  <circle cx="1.98654" cy="13.2035" r="0.800925" fill="#ff0066a0"/>
  <circle cx="3.49005" cy="12.9746" r="0.719906" fill="#aa0087a0"/>
  <circle cx="13.4662" cy="-1.89345" r="0.800925" fill="#ff0066a0"/>
  <circle cx="0.431839" cy="13.5893" r="0.800925" fill="#ff0066a0"/>
  <circle cx="-13.289" cy="-1.41266" r="0.586905" fill="#ff8080a0"/>
  <circle cx="12.7022" cy="-4.39059" r="0.586905" fill="#ff8080a0"/>
  <circle cx="-9.48197" cy="9.66577" r="0.719906" fill="#aa0087a0"/>
  <circle cx="11.2739" cy="-8.15484" r="1" fill="#803dc1a0"/>
  <circle cx="2.54874" cy="-13.1957" r="0.586905" fill="#ff8080a0"/>
  <circle cx="-2.45658" cy="13.6248" r="1" fill="#803dc1a0"/>
  <circle cx="-3.82639" cy="12.8237" r="0.586905" fill="#ff8080a0"/>
  <circle cx="9.19242" cy="9.72558" r="0.586905" fill="#ff8080a0"/>
  <circle cx="8.53901" cy="10.8573" r="0.719906" fill="#aa0087a0"/>
  <circle cx="-5.4211" cy="-12.215" r="0.586905" fill="#ff8080a0"/>
  <circle cx="-6.71857" cy="-12.059" r="0.719906" fill="#aa0087a0"/>
  <circle cx="-4.35516" cy="-13.3906" r="1" fill="#803dc1a0"/>
  <circle cx="-10.8175" cy="-8.75403" r="0.800925" fill="#ff0066a0"/>
  <circle cx="-8.53199" cy="10.8534" r="0.800925" fill="#ff0066a0"/>
  <circle cx="4.92728" cy="12.8885" r="0.719906" fill="#aa0087a0"/>
  <circle cx="-13.9709" cy="2.43164" r="1" fill="#803dc1a0"/>
  <circle cx="-13.9424" cy="-0.280933" r="0.719906" fill="#aa0087a0"/>
  <circle cx="-5.12386" cy="12.9797" r="0.719906" fill="#aa0087a0"/>
  <circle cx="10.5298" cy="9.3547" r="0.800925" fill="#ff0066a0"/>
  <circle cx="3.8861" cy="-13.5666" r="0.800925" fill="#ff0066a0"/>
  <circle cx="-7.42054" cy="12.0069" r="0.800925" fill="#ff0066a0"/>
  <circle cx="-0.905515" cy="13.9602" r="0.586905" fill="#ff8080a0"/>
  <circle cx="6.64663" cy="12.8447" r="1" fill="#803dc1a0"/>
  <circle cx="14.072" cy="-3.58941" r="1" fill="#803dc1a0"/>
  <circle cx="-12.5426" cy="6.19589" r="0.586905" fill="#ff8080a0"/>
  <circle cx="-13.196" cy="5.06416" r="0.719906" fill="#aa0087a0"/>
  <circle cx="12.6903" cy="7.27296" r="1" fill="#803dc1a0"/>
  <circle cx="12.6023" cy="-6.93884" r="0.800925" fill="#ff0066a0"/>
  <circle cx="-1.6696" cy="-14.1762" r="0.719906" fill="#aa0087a0"/>
  <circle cx="-0.372133" cy="-14.3322" r="0.586905" fill="#ff8080a0"/>
  <circle cx="-13.2516" cy="-5.71211" r="0.719906" fill="#aa0087a0"/>
  <circle cx="-12.5982" cy="-6.84385" r="0.586905" fill="#ff8080a0"/>
  <circle cx="-6.43067" cy="12.9797" r="0.586905" fill="#ff8080a0"/>
  <circle cx="-14.456" cy="0.920705" r="0.586905" fill="#ff8080a0"/>
  <circle cx="-2.97641" cy="-14.1762" r="0.586905" fill="#ff8080a0"/>
  <circle cx="8.02538" cy="12.059" r="0.586905" fill="#ff8080a0"/>
  <circle cx="10.7888" cy="-9.66577" r="0.586905" fill="#ff8080a0"/>
  <circle cx="9.79891" cy="-10.6385" r="0.800925" fill="#ff0066a0"/>
  <circle cx="-6.07451" cy="-13.3467" r="0.719906" fill="#aa0087a0"/>
  <circle cx="-14.8401" cy="-1.748" r="1" fill="#803dc1a0"/>
  <circle cx="8.68747" cy="-11.792" r="0.800925" fill="#ff0066a0"/>
  <circle cx="-13.9799" cy="4.01852" r="0.586905" fill="#ff8080a0"/>
  <circle cx="-9.40413" cy="-11.2733" r="1" fill="#803dc1a0"/>
  <circle cx="-8.02538" cy="-12.059" r="0.586905" fill="#ff8080a0"/>
  <circle cx="9.97625" cy="10.7712" r="0.719906" fill="#aa0087a0"/>
  <circle cx="-4.17388" cy="14.1673" r="0.800925" fill="#ff0066a0"/>
  <circle cx="-13.7652" cy="-4.51048" r="0.586905" fill="#ff8080a0"/>
  <circle cx="13.7682" cy="-5.56619" r="1" fill="#803dc1a0"/>
  <circle cx="-10.4701" cy="-10.0977" r="0.586905" fill="#ff8080a0"/>
  <circle cx="2.55768" cy="-14.7826" r="1" fill="#803dc1a0"/>
  <circle cx="-11.7787" cy="8.69303" r="0.800925" fill="#ff0066a0"/>
  <circle cx="-10.7888" cy="9.66577" r="0.586905" fill="#ff8080a0"/>
  <circle cx="14.2788" cy="3.30884" r="0.719906" fill="#aa0087a0"/>
  <circle cx="13.7652" cy="4.51048" r="0.586905" fill="#ff8080a0"/>
  <circle cx="14.456" cy="-0.920705" r="0.586905" fill="#ff8080a0"/>
  <circle cx="14.9412" cy="0.590228" r="1" fill="#803dc1a0"/>
  <circle cx="2.97641" cy="14.1762" r="0.586905" fill="#ff8080a0"/>
  <circle cx="1.59766" cy="14.9619" r="1" fill="#803dc1a0"/>
  <circle cx="4.28322" cy="14.1762" r="0.719906" fill="#aa0087a0"/>
  <circle cx="-12.5892" cy="-8.43073" r="1" fill="#803dc1a0"/>
  <circle cx="-12.8901" cy="7.53951" r="0.800925" fill="#ff0066a0"/>
  <circle cx="6.43067" cy="-12.9797" r="0.586905" fill="#ff8080a0"/>
  <circle cx="5.4408" cy="-13.9524" r="0.800925" fill="#ff0066a0"/>
  <circle cx="-10.3037" cy="11.1767" r="1" fill="#803dc1a0"/>
  <circle cx="12.0845" cy="8.96892" r="0.800925" fill="#ff0066a0"/>
  <circle cx="7.73748" cy="-12.9797" r="0.719906" fill="#aa0087a0"/>
  <circle cx="-0.121684" cy="15.0058" r="0.719906" fill="#aa0087a0"/>
  <circle cx="14.9697" cy="-2.12234" r="0.719906" fill="#aa0087a0"/>
  <circle cx="14.2503" cy="6.02141" r="1" fill="#803dc1a0"/>
  <circle cx="14.9322" cy="2.17711" r="0.586905" fill="#ff8080a0"/>
  <circle cx="5.58069" cy="14.0203" r="0.586905" fill="#ff8080a0"/>
  <circle cx="-7.51174" cy="-13.2606" r="0.719906" fill="#aa0087a0"/>
  <circle cx="9.33219" cy="12.059" r="0.719906" fill="#aa0087a0"/>
  <circle cx="0.693808" cy="-15.5078" r="1" fill="#803dc1a0"/>
  <circle cx="-13.8401" cy="6.35189" r="0.719906" fill="#aa0087a0"/>
  <circle cx="-1.55892" cy="15.0919" r="0.719906" fill="#aa0087a0"/>
  <circle cx="-8.97524" cy="12.3927" r="0.800925" fill="#ff0066a0"/>
  <circle cx="-15.1439" cy="-3.72478" r="1" fill="#803dc1a0"/>
  <circle cx="-15.4459" cy="-0.0520361" r="0.800925" fill="#ff0066a0"/>
  <circle cx="-5.94554" cy="14.4906" r="1" fill="#803dc1a0"/>
  <circle cx="-11.7675" cy="-9.94166" r="0.719906" fill="#aa0087a0"/>
  <circle cx="-3.06243" cy="15.3208" r="0.800925" fill="#ff0066a0"/>
  <circle cx="-14.7109" cy="5.19817" r="0.800925" fill="#ff0066a0"/>
  <circle cx="11.6956" cy="10.7274" r="1" fill="#803dc1a0"/>
  <circle cx="4.32935" cy="-15.1059" r="0.800925" fill="#ff0066a0"/>
  <circle cx="12.0956" cy="-9.66577" r="0.719906" fill="#aa0087a0"/>
  <circle cx="13.0456" cy="-8.47814" r="0.800925" fill="#ff0066a0"/>
  <circle cx="-7.80942" cy="13.7654" r="1" fill="#803dc1a0"/>
  <circle cx="-14.1492" cy="-7.17918" r="1" fill="#803dc1a0"/>
  <circle cx="-1.02554" cy="-15.464" r="0.719906" fill="#aa0087a0"/>
  <circle cx="-2.46278" cy="-15.3779" r="0.719906" fill="#aa0087a0"/>
  <circle cx="11.3024" cy="-10.8674" r="0.719906" fill="#aa0087a0"/>
  <circle cx="-12.1675" cy="10.4515" r="1" fill="#803dc1a0"/>
  <circle cx="8.51051" cy="13.5699" r="1" fill="#803dc1a0"/>
  <circle cx="6.94431" cy="-14.1813" r="0.719906" fill="#aa0087a0"/>
  <circle cx="15.072" cy="4.51048" r="0.719906" fill="#aa0087a0"/>
  <circle cx="15.7629" cy="-0.920705" r="0.719906" fill="#aa0087a0"/>
  <circle cx="3.46154" cy="15.6872" r="1" fill="#803dc1a0"/>
  <circle cx="-9.01525" cy="-13.0317" r="0.800925" fill="#ff0066a0"/>
  <circle cx="-14.7551" cy="-5.48322" r="0.800925" fill="#ff0066a0"/>
  <circle cx="-3.96628" cy="-15.149" r="0.800925" fill="#ff0066a0"/>
  <circle cx="-15.8348" cy="1.7064" r="1" fill="#803dc1a0"/>
  <circle cx="-5.52098" cy="-14.7632" r="0.800925" fill="#ff0066a0"/>
  <circle cx="-11.1235" cy="-11.2294" r="0.719906" fill="#aa0087a0"/>
  <circle cx="-15.5309" cy="3.68318" r="1" fill="#803dc1a0"/>
  <circle cx="14.157" cy="-7.32463" r="0.800925" fill="#ff0066a0"/>
  <circle cx="10.4048" cy="-12.3345" r="1" fill="#803dc1a0"/>
  <circle cx="15.7161" cy="3.22275" r="0.719906" fill="#aa0087a0"/>
  <circle cx="-6.85834" cy="-14.3923" r="0.586905" fill="#ff8080a0"/>
  <circle cx="10.6297" cy="11.903" r="0.586905" fill="#ff8080a0"/>
  <circle cx="-13.3334" cy="9.07881" r="0.800925" fill="#ff0066a0"/>
  <circle cx="9.03495" cy="-13.1357" r="0.586905" fill="#ff8080a0"/>
  <circle cx="6.9505" cy="14.8214" r="1" fill="#803dc1a0"/>
  <circle cx="15.632" cy="-4.84095" r="1" fill="#803dc1a0"/>
  <circle cx="15.6231" cy="-3.25407" r="0.586905" fill="#ff8080a0"/>
  <circle cx="5.23321" cy="15.3639" r="0.800925" fill="#ff0066a0"/>
  <circle cx="-4.61713" cy="15.7066" r="0.800925" fill="#ff0066a0"/>
  <circle cx="13.588" cy="8.74002" r="0.719906" fill="#aa0087a0"/>
  <circle cx="14.2414" cy="7.60829" r="0.586905" fill="#ff8080a0"/>
  <circle cx="16.2696" cy="1.80622" r="0.800925" fill="#ff0066a0"/>
  <circle cx="-10.4783" cy="-12.6165" r="0.719906" fill="#aa0087a0"/>
  <circle cx="0.531722" cy="16.1375" r="0.586905" fill="#ff8080a0"/>
  <circle cx="-0.765745" cy="16.2935" r="0.719906" fill="#aa0087a0"/>
  <circle cx="-14.6618" cy="7.86282" r="1" fill="#803dc1a0"/>
  <circle cx="6.04664" cy="-15.6484" r="1" fill="#803dc1a0"/>
  <circle cx="8.38154" cy="-14.2674" r="0.719906" fill="#aa0087a0"/>
  <circle cx="16.4069" cy="-2.20843" r="0.719906" fill="#aa0087a0"/>
  <circle cx="13.0743" cy="9.94166" r="0.586905" fill="#ff8080a0"/>
  <circle cx="15.1469" cy="-6.35189" r="0.586905" fill="#ff8080a0"/>
  <circle cx="-2.07256" cy="16.2935" r="0.586905" fill="#ff8080a0"/>
  <circle cx="-16.2099" cy="-2.54918" r="0.586905" fill="#ff8080a0"/>
  <circle cx="-16.5574" cy="-1.20555" r="0.800925" fill="#ff0066a0"/>
  <circle cx="-15.077" cy="6.46545" r="0.586905" fill="#ff8080a0"/>
  <circle cx="16.7128" cy="0.266922" r="0.800925" fill="#ff0066a0"/>
  <circle cx="-8.40941" cy="-14.7277" r="1" fill="#803dc1a0"/>
  <circle cx="10.2822" cy="13.2466" r="0.800925" fill="#ff0066a0"/>
  <circle cx="2.07256" cy="-16.2935" r="0.586905" fill="#ff8080a0"/>
  <circle cx="3.37937" cy="-16.2935" r="0.719906" fill="#aa0087a0"/>
  <circle cx="1.90153" cy="16.9387" r="1" fill="#803dc1a0"/>
  <circle cx="-10.3126" cy="12.7636" r="0.586905" fill="#ff8080a0"/>
  <circle cx="-9.52877" cy="13.8092" r="0.719906" fill="#aa0087a0"/>
  <circle cx="-13.0743" cy="-9.94166" r="0.586905" fill="#ff8080a0"/>
  <circle cx="-12.4209" cy="-11.0734" r="0.586905" fill="#ff8080a0"/>
  <circle cx="-14.4531" cy="-9.15596" r="1" fill="#803dc1a0"/>
  <circle cx="-11.8637" cy="12.4283" r="1" fill="#803dc1a0"/>
  <circle cx="13.3931" cy="-9.82177" r="0.586905" fill="#ff8080a0"/>
  <circle cx="12.7397" cy="-10.9535" r="0.719906" fill="#aa0087a0"/>
  <circle cx="-0.472016" cy="-16.8805" r="0.800925" fill="#ff0066a0"/>
  <circle cx="-1.80937" cy="-16.5096" r="0.586905" fill="#ff8080a0"/>
  <circle cx="-16.909" cy="0.363187" r="0.719906" fill="#aa0087a0"/>
  <circle cx="-3.36044" cy="-16.8449" r="1" fill="#803dc1a0"/>
  <circle cx="14.7629" cy="-9.02059" r="1" fill="#803dc1a0"/>
  <circle cx="11.9558" cy="-11.9991" r="0.586905" fill="#ff8080a0"/>
  <circle cx="-16.2422" cy="5.25214" r="0.800925" fill="#ff0066a0"/>
  <circle cx="-3.4513" cy="17.0792" r="1" fill="#803dc1a0"/>
  <circle cx="16.022" cy="5.6981" r="0.800925" fill="#ff0066a0"/>
  <circle cx="16.3695" cy="4.35448" r="0.586905" fill="#ff8080a0"/>
  <circle cx="-5.07773" cy="-16.3025" r="0.800925" fill="#ff0066a0"/>
  <circle cx="15.4879" cy="7.2158" r="0.719906" fill="#aa0087a0"/>
  <circle cx="17.0603" cy="-1.0767" r="0.586905" fill="#ff8080a0"/>
  <circle cx="7.58837" cy="-15.469" r="0.719906" fill="#aa0087a0"/>
  <circle cx="4.67683" cy="-16.4495" r="0.586905" fill="#ff8080a0"/>
  <circle cx="1.08268" cy="-17.2663" r="0.800925" fill="#ff0066a0"/>
  <circle cx="-11.8516" cy="-12.4116" r="0.586905" fill="#ff8080a0"/>
  <circle cx="10.1009" cy="-14.3113" r="1" fill="#803dc1a0"/>
  <circle cx="-6.72501" cy="-15.6923" r="0.719906" fill="#aa0087a0"/>
  <circle cx="-16.3098" cy="-5.09743" r="0.800925" fill="#ff0066a0"/>
  <circle cx="-15.7732" cy="-6.61293" r="0.719906" fill="#aa0087a0"/>
  <circle cx="11.9995" cy="12.7041" r="1" fill="#803dc1a0"/>
  <circle cx="16.8696" cy="-3.64656" r="0.719906" fill="#aa0087a0"/>
  <circle cx="-16.9449" cy="-3.72641" r="0.800925" fill="#ff0066a0"/>
  <circle cx="-10.2699" cy="-14.3237" r="1" fill="#803dc1a0"/>
  <circle cx="-7.50555" cy="15.7421" r="1" fill="#803dc1a0"/>
  <circle cx="-6.05323" cy="16.2071" r="0.719906" fill="#aa0087a0"/>
  <circle cx="15.1081" cy="8.69224" r="0.800925" fill="#ff0066a0"/>
  <circle cx="0.230426" cy="17.6956" r="1" fill="#803dc1a0"/>
  <circle cx="15.6605" cy="-7.55352" r="0.719906" fill="#aa0087a0"/>
  <circle cx="17.4354" cy="3.17888" r="1" fill="#803dc1a0"/>
  <circle cx="-8.87536" cy="14.941" r="0.586905" fill="#ff8080a0"/>
  <circle cx="-16.0131" cy="-7.90441" r="1" fill="#803dc1a0"/>
  <circle cx="13.5595" cy="11.4526" r="1" fill="#803dc1a0"/>
  <circle cx="14.4615" cy="9.98497" r="0.800925" fill="#ff0066a0"/>
  <circle cx="-16.9007" cy="2.882" r="0.586905" fill="#ff8080a0"/>
  <circle cx="-17.6357" cy="1.69914" r="0.800925" fill="#ff0066a0"/>
  </g>
</svg>
