<?xml version="1.0" encoding="UTF-8" standalone="no"?>
<svg viewBox="-18.7615 -18.7615 37.5229 37.5229" xmlns="http://www.w3.org/2000/svg">
  <rect x="-18.7615" y="-18.7615" width="37.5229" height="37.5229" fill="white"/>
  <g transform="scale(1, -1)">
  <circle cx="0" cy="0" r="0.620604" fill="#ff8080a0"/>
  <circle cx="1.41778" cy="0" r="0.797179" fill="#aa0087a0"/>
  <circle cx="0.49606" cy="1.54282" r="1" fill="#803dc1a0"/>
  <circle cx="0.52132" cy="-1.31846" r="0.797179" fill="#aa0087a0"/>
  <circle cx="-1.25233" cy="-1.0286" r="1" fill="#803dc1a0"/>
  <circle cx="-1.22681" cy="0.834145" r="0.862923" fill="#ff0066a0"/>
  <circle cx="1.9391" cy="-1.31846" r="0.620604" fill="#ff8080a0"/>
  <circle cx="2.35121" cy="1.37283" r="0.862923" fill="#ff0066a0"/>
  <circle cx="3.19143" cy="-0.289856" r="1" fill="#803dc1a0"/>
  <circle cx="1.44304" cy="-2.86127" r="1" fill="#803dc1a0"/>
  <circle cx="-0.412109" cy="-2.69129" r="0.862923" fill="#ff0066a0"/>
  <circle cx="-1.03546" cy="2.48318" r="0.797179" fill="#aa0087a0"/>
  <circle cx="-2.76715" cy="0.0557482" r="0.862923" fill="#ff0066a0"/>
  <circle cx="-2.74162" cy="1.9185" r="1" fill="#803dc1a0"/>
  <circle cx="-1.88575" cy="-2.52029" r="0.620604" fill="#ff8080a0"/>
  <circle cx="-2.95849" cy="-1.59329" r="0.797179" fill="#aa0087a0"/>
  <circle cx="3.16591" cy="-2.1526" r="0.862923" fill="#ff0066a0"/>
  <circle cx="0.221046" cy="3.13991" r="0.620604" fill="#ff8080a0"/>
  <circle cx="-2.1082" cy="3.41019" r="0.620604" fill="#ff8080a0"/>
  <circle cx="-0.851695" cy="4.06692" r="0.797179" fill="#aa0087a0"/>
  <circle cx="1.69469" cy="2.96892" r="0.862923" fill="#ff0066a0"/>
  <circle cx="3.82485" cy="1.20183" r="0.620604" fill="#ff8080a0"/>
  <circle cx="3.54984" cy="2.79893" r="1" fill="#803dc1a0"/>
  <circle cx="0.244417" cy="-4.28738" r="0.862923" fill="#ff0066a0"/>
  <circle cx="-1.61073" cy="-4.11739" r="1" fill="#803dc1a0"/>
  <circle cx="-3.99395" cy="0.889894" r="0.620604" fill="#ff8080a0"/>
  <circle cx="-4.49001" cy="-0.652922" r="1" fill="#803dc1a0"/>
  <circle cx="-3.14226" cy="-3.17702" r="0.797179" fill="#aa0087a0"/>
  <circle cx="0.854464" cy="4.6316" r="1" fill="#803dc1a0"/>
  <circle cx="-4.215" cy="-2.25002" r="0.620604" fill="#ff8080a0"/>
  <circle cx="4.70625" cy="-1.37421" r="0.862923" fill="#ff0066a0"/>
  <circle cx="4.89759" cy="0.274832" r="0.797179" fill="#aa0087a0"/>
  <circle cx="2.97457" cy="-3.80164" r="0.797179" fill="#aa0087a0"/>
  <circle cx="1.71806" cy="-4.45837" r="0.620604" fill="#ff8080a0"/>
  <circle cx="2.62812" cy="4.34175" r="0.797179" fill="#aa0087a0"/>
  <circle cx="-3.58184" cy="3.58118" r="0.862923" fill="#ff0066a0"/>
  <circle cx="-4.51527" cy="2.20835" r="0.797179" fill="#aa0087a0"/>
  <circle cx="-2.38322" cy="5.00729" r="1" fill="#803dc1a0"/>
  <circle cx="5.08136" cy="1.85856" r="0.797179" fill="#aa0087a0"/>
  <circle cx="4.68073" cy="-3.23696" r="1" fill="#803dc1a0"/>
  <circle cx="-5.41174" cy="0.889894" r="0.797179" fill="#aa0087a0"/>
  <circle cx="-0.660351" cy="5.71596" r="0.862923" fill="#ff0066a0"/>
  <circle cx="-0.689012" cy="-5.66021" r="0.797179" fill="#aa0087a0"/>
  <circle cx="1.08464" cy="-5.95006" r="1" fill="#803dc1a0"/>
  <circle cx="-3.3336" cy="-4.82606" r="0.862923" fill="#ff0066a0"/>
  <circle cx="-4.84842" cy="-3.74171" r="1" fill="#803dc1a0"/>
  <circle cx="-5.68864" cy="-2.07903" r="0.862923" fill="#ff0066a0"/>
  <circle cx="2.7908" cy="-5.38538" r="0.797179" fill="#aa0087a0"/>
  <circle cx="-2.1068" cy="-5.66021" r="0.620604" fill="#ff8080a0"/>
  <circle cx="4.0459" cy="4.34175" r="0.620604" fill="#ff8080a0"/>
  <circle cx="5.2727" cy="3.5076" r="0.862923" fill="#ff0066a0"/>
  <circle cx="-6.34516" cy="-0.482933" r="0.862923" fill="#ff0066a0"/>
  <circle cx="4.04731" cy="-4.72865" r="0.620604" fill="#ff8080a0"/>
  <circle cx="6.42912" cy="-0.665537" r="1" fill="#803dc1a0"/>
  <circle cx="6.1541" cy="0.931562" r="0.620604" fill="#ff8080a0"/>
  <circle cx="2.1068" cy="5.66021" r="0.620604" fill="#ff8080a0"/>
  <circle cx="0.879988" cy="6.49435" r="0.862923" fill="#ff0066a0"/>
  <circle cx="5.93306" cy="-2.20835" r="0.620604" fill="#ff8080a0"/>
  <circle cx="-5.437" cy="3.75117" r="1" fill="#803dc1a0"/>
  <circle cx="-5.93306" cy="2.20835" r="0.620604" fill="#ff8080a0"/>
  <circle cx="3.52458" cy="5.66021" r="0.797179" fill="#aa0087a0"/>
  <circle cx="-4.23837" cy="5.17727" r="0.862923" fill="#ff0066a0"/>
  <circle cx="6.78752" cy="2.42325" r="1" fill="#803dc1a0"/>
  <circle cx="-7.18539" cy="1.17975" r="1" fill="#803dc1a0"/>
  <circle cx="-0.167692" cy="-6.97867" r="0.620604" fill="#ff8080a0"/>
  <circle cx="-1.58547" cy="-6.97867" r="0.797179" fill="#aa0087a0"/>
  <circle cx="-1.88716" cy="6.5501" r="0.620604" fill="#ff8080a0"/>
  <circle cx="-3.30494" cy="6.5501" r="0.797179" fill="#aa0087a0"/>
  <circle cx="5.29823" cy="5.37035" r="1" fill="#803dc1a0"/>
  <circle cx="-0.634827" cy="7.5787" r="1" fill="#803dc1a0"/>
  <circle cx="-3.35913" cy="-6.68881" r="1" fill="#803dc1a0"/>
  <circle cx="2.60286" cy="7.20302" r="1" fill="#803dc1a0"/>
  <circle cx="6.45438" cy="-3.52681" r="0.797179" fill="#aa0087a0"/>
  <circle cx="5.52095" cy="-4.89964" r="0.862923" fill="#ff0066a0"/>
  <circle cx="-4.87394" cy="-5.60446" r="0.862923" fill="#ff0066a0"/>
  <circle cx="4.32232" cy="-6.32574" r="1" fill="#803dc1a0"/>
  <circle cx="7.62774" cy="0.76057" r="0.862923" fill="#ff0066a0"/>
  <circle cx="2.59945" cy="-7.03441" r="0.862923" fill="#ff0066a0"/>
  <circle cx="-7.54379" cy="-1.90904" r="1" fill="#803dc1a0"/>
  <circle cx="-6.62207" cy="-3.45185" r="0.797179" fill="#aa0087a0"/>
  <circle cx="-7.15986" cy="3.0425" r="0.862923" fill="#ff0066a0"/>
  <circle cx="7.35084" cy="-2.20835" r="0.797179" fill="#aa0087a0"/>
  <circle cx="1.05911" cy="-7.81281" r="0.862923" fill="#ff0066a0"/>
  <circle cx="-6.10075" cy="-4.77031" r="0.620604" fill="#ff8080a0"/>
  <circle cx="6.81304" cy="4.286" r="0.862923" fill="#ff0066a0"/>
  <circle cx="-7.8188" cy="-0.31194" r="0.620604" fill="#ff8080a0"/>
  <circle cx="1.07133" cy="8.14339" r="0.797179" fill="#aa0087a0"/>
  <circle cx="-2.40848" cy="7.86856" r="0.797179" fill="#aa0087a0"/>
  <circle cx="8.28427" cy="-0.835526" r="0.862923" fill="#ff0066a0"/>
  <circle cx="4.45801" cy="7.03303" r="0.862923" fill="#ff0066a0"/>
  <circle cx="-5.71201" cy="5.34827" r="0.620604" fill="#ff8080a0"/>
  <circle cx="-5.07859" cy="6.83996" r="1" fill="#803dc1a0"/>
  <circle cx="-0.663752" cy="-8.52148" r="1" fill="#803dc1a0"/>
  <circle cx="-6.96852" cy="4.69154" r="0.797179" fill="#aa0087a0"/>
  <circle cx="-2.5189" cy="-8.35149" r="0.862923" fill="#ff0066a0"/>
  <circle cx="-3.82626" cy="7.86856" r="0.620604" fill="#ff8080a0"/>
  <circle cx="7.87216" cy="-3.52681" r="0.620604" fill="#ff8080a0"/>
  <circle cx="7.3761" cy="-5.06963" r="1" fill="#803dc1a0"/>
  <circle cx="8.56117" cy="2.1334" r="0.797179" fill="#aa0087a0"/>
  <circle cx="8.03985" cy="3.45185" r="0.620604" fill="#ff8080a0"/>
  <circle cx="6.17747" cy="-6.49573" r="0.862923" fill="#ff0066a0"/>
  <circle cx="-8.03985" cy="-3.45185" r="0.620604" fill="#ff8080a0"/>
  <circle cx="-7.51853" cy="-4.77031" r="0.797179" fill="#aa0087a0"/>
  <circle cx="-8.7002" cy="2.2641" r="0.862923" fill="#ff0066a0"/>
  <circle cx="-8.89155" cy="0.615062" r="0.797179" fill="#aa0087a0"/>
  <circle cx="-5.06529" cy="-7.2535" r="0.797179" fill="#aa0087a0"/>
  <circle cx="-6.59681" cy="-6.31313" r="1" fill="#803dc1a0"/>
  <circle cx="3.82626" cy="-7.86856" r="0.620604" fill="#ff8080a0"/>
  <circle cx="2.57393" cy="-8.89716" r="1" fill="#803dc1a0"/>
  <circle cx="-9.07531" cy="-0.968671" r="0.797179" fill="#aa0087a0"/>
  <circle cx="-6.78475" cy="6.27527" r="0.797179" fill="#aa0087a0"/>
  <circle cx="9.12449" cy="-2.49821" r="1" fill="#803dc1a0"/>
  <circle cx="-3.99254" cy="-8.1805" r="0.620604" fill="#ff8080a0"/>
  <circle cx="9.48289" cy="0.59058" r="1" fill="#803dc1a0"/>
  <circle cx="7.00439" cy="5.93504" r="0.797179" fill="#aa0087a0"/>
  <circle cx="5.93165" cy="6.86204" r="0.620604" fill="#ff8080a0"/>
  <circle cx="-0.00140909" cy="9.07039" r="0.620604" fill="#ff8080a0"/>
  <circle cx="-1.47505" cy="9.24139" r="0.862923" fill="#ff0066a0"/>
  <circle cx="-8.67468" cy="4.12685" r="1" fill="#803dc1a0"/>
  <circle cx="3.80148" cy="8.62913" r="0.862923" fill="#ff0066a0"/>
  <circle cx="2.32784" cy="8.80012" r="0.620604" fill="#ff8080a0"/>
  <circle cx="5.24404" cy="-7.86856" r="0.797179" fill="#aa0087a0"/>
  <circle cx="0.86777" cy="-9.46185" r="0.797179" fill="#aa0087a0"/>
  <circle cx="-9.26666" cy="-2.61771" r="0.862923" fill="#ff0066a0"/>
  <circle cx="8.53591" cy="4.99467" r="1" fill="#803dc1a0"/>
  <circle cx="1.2551" cy="9.72712" r="0.797179" fill="#aa0087a0"/>
  <circle cx="-3.3302" cy="9.41138" r="1" fill="#803dc1a0"/>
  <circle cx="9.75791" cy="-1.00652" r="0.620604" fill="#ff8080a0"/>
  <circle cx="5.65663" cy="8.45914" r="1" fill="#803dc1a0"/>
  <circle cx="-8.04126" cy="5.61854" r="0.620604" fill="#ff8080a0"/>
  <circle cx="9.09897" cy="-4.36096" r="0.862923" fill="#ff0066a0"/>
  <circle cx="-9.29218" cy="-4.48046" r="1" fill="#803dc1a0"/>
  <circle cx="9.45763" cy="3.45185" r="0.797179" fill="#aa0087a0"/>
  <circle cx="4.34758" cy="-9.18702" r="0.797179" fill="#aa0087a0"/>
  <circle cx="-5.05307" cy="8.70271" r="0.862923" fill="#ff0066a0"/>
  <circle cx="-6.59341" cy="7.92431" r="0.862923" fill="#ff0066a0"/>
  <circle cx="-1.86238" cy="-9.94759" r="0.862923" fill="#ff0066a0"/>
  <circle cx="-0.388738" cy="-10.1186" r="0.620604" fill="#ff8080a0"/>
  <circle cx="-3.71753" cy="-9.7776" r="1" fill="#803dc1a0"/>
  <circle cx="9.97895" cy="2.1334" r="0.620604" fill="#ff8080a0"/>
  <circle cx="-5.24905" cy="-8.83723" r="0.797179" fill="#aa0087a0"/>
  <circle cx="-6.32179" cy="-7.91023" r="0.620604" fill="#ff8080a0"/>
  <circle cx="7.18816" cy="7.51877" r="0.797179" fill="#aa0087a0"/>
  <circle cx="-0.276423" cy="10.6675" r="1" fill="#803dc1a0"/>
  <circle cx="-8.45196" cy="-6.14314" r="0.862923" fill="#ff0066a0"/>
  <circle cx="-10.4231" cy="1.55543" r="1" fill="#803dc1a0"/>
  <circle cx="-10.1481" cy="-0.0416683" r="0.620604" fill="#ff8080a0"/>
  <circle cx="2.96126" cy="10.2918" r="1" fill="#803dc1a0"/>
  <circle cx="7.65111" cy="-6.66673" r="0.620604" fill="#ff8080a0"/>
  <circle cx="7.01769" cy="-8.15842" r="1" fill="#803dc1a0"/>
  <circle cx="-9.92701" cy="3.09825" r="0.620604" fill="#ff8080a0"/>
  <circle cx="-10.7815" cy="-1.53336" r="1" fill="#803dc1a0"/>
  <circle cx="8.90762" cy="-6.01" r="0.797179" fill="#aa0087a0"/>
  <circle cx="8.2609" cy="6.59177" r="0.620604" fill="#ff8080a0"/>
  <circle cx="-8.31627" cy="7.21564" r="1" fill="#803dc1a0"/>
  <circle cx="-7.79543" cy="-7.73924" r="0.862923" fill="#ff0066a0"/>
  <circle cx="-2.13157" cy="10.8375" r="0.862923" fill="#ff0066a0"/>
  <circle cx="5.76536" cy="-9.18702" r="0.620604" fill="#ff8080a0"/>
  <circle cx="1.94051" cy="-10.3889" r="0.620604" fill="#ff8080a0"/>
  <circle cx="3.41415" cy="-10.5598" r="0.862923" fill="#ff0066a0"/>
  <circle cx="4.73491" cy="10.002" r="0.797179" fill="#aa0087a0"/>
  <circle cx="0.684004" cy="-11.0456" r="0.797179" fill="#aa0087a0"/>
  <circle cx="-9.5149" cy="5.78953" r="0.862923" fill="#ff0066a0"/>
  <circle cx="11.0144" cy="-0.349788" r="0.797179" fill="#aa0087a0"/>
  <circle cx="10.8306" cy="-1.93352" r="0.797179" fill="#aa0087a0"/>
  <circle cx="10.6393" cy="-3.58256" r="0.862923" fill="#ff0066a0"/>
  <circle cx="-10.807" cy="-3.39611" r="0.862923" fill="#ff0066a0"/>
  <circle cx="11.2058" cy="1.29925" r="0.862923" fill="#ff0066a0"/>
  <circle cx="1.44644" cy="11.3762" r="0.862923" fill="#ff0066a0"/>
  <circle cx="-10.4483" cy="4.4167" r="0.797179" fill="#aa0087a0"/>
  <circle cx="-1.02216" cy="-11.6103" r="1" fill="#803dc1a0"/>
  <circle cx="-6.95521" cy="-9.40192" r="1" fill="#803dc1a0"/>
  <circle cx="-11.6217" cy="0.129324" r="0.862923" fill="#ff0066a0"/>
  <circle cx="8.72385" cy="-7.59373" r="0.797179" fill="#aa0087a0"/>
  <circle cx="11.2313" cy="3.162" r="1" fill="#803dc1a0"/>
  <circle cx="10.3911" cy="4.82468" r="0.862923" fill="#ff0066a0"/>
  <circle cx="9.73454" cy="6.42078" r="0.862923" fill="#ff0066a0"/>
  <circle cx="-6.56788" cy="9.78706" r="1" fill="#803dc1a0"/>
  <circle cx="-4.86172" cy="10.3517" r="0.797179" fill="#aa0087a0"/>
  <circle cx="10.6138" cy="-5.44531" r="1" fill="#803dc1a0"/>
  <circle cx="5.2693" cy="-10.7298" r="1" fill="#803dc1a0"/>
  <circle cx="-3.60521" cy="11.0085" r="0.620604" fill="#ff8080a0"/>
  <circle cx="-2.79581" cy="-11.3204" r="0.797179" fill="#aa0087a0"/>
  <circle cx="-11.3448" cy="3.09825" r="0.797179" fill="#aa0087a0"/>
  <circle cx="-5.4404" cy="-10.4863" r="0.862923" fill="#ff0066a0"/>
  <circle cx="-7.82021" cy="8.75845" r="0.620604" fill="#ff8080a0"/>
  <circle cx="7.3795" cy="9.16781" r="0.862923" fill="#ff0066a0"/>
  <circle cx="6.15269" cy="10.002" r="0.620604" fill="#ff8080a0"/>
  <circle cx="8.89432" cy="8.08346" r="1" fill="#803dc1a0"/>
  <circle cx="2.21553" cy="-11.986" r="1" fill="#803dc1a0"/>
  <circle cx="-9.9256" cy="-5.97215" r="0.620604" fill="#ff8080a0"/>
  <circle cx="-9.65059" cy="-7.56925" r="1" fill="#803dc1a0"/>
  <circle cx="-10.9983" cy="-5.04515" r="0.797179" fill="#aa0087a0"/>
  <circle cx="-4.21359" cy="-11.3204" r="0.620604" fill="#ff8080a0"/>
  <circle cx="6.99217" cy="-10.0212" r="0.862923" fill="#ff0066a0"/>
  <circle cx="-12.2782" cy="1.72542" r="0.862923" fill="#ff0066a0"/>
  <circle cx="9.98036" cy="-6.937" r="0.620604" fill="#ff8080a0"/>
  <circle cx="-1.19815" cy="12.2103" r="0.797179" fill="#aa0087a0"/>
  <circle cx="0.219637" cy="12.2103" r="0.620604" fill="#ff8080a0"/>
  <circle cx="4.21359" cy="11.3204" r="0.620604" fill="#ff8080a0"/>
  <circle cx="2.98678" cy="12.1546" r="0.862923" fill="#ff0066a0"/>
  <circle cx="8.53251" cy="-9.24277" r="0.862923" fill="#ff0066a0"/>
  <circle cx="12.0872" cy="-1.27679" r="0.620604" fill="#ff8080a0"/>
  <circle cx="12.3622" cy="-2.87389" r="1" fill="#803dc1a0"/>
  <circle cx="12.7206" cy="0.214899" r="1" fill="#803dc1a0"/>
  <circle cx="-8.72886" cy="-9.11206" r="0.797179" fill="#aa0087a0"/>
  <circle cx="5.63137" cy="11.3204" r="0.797179" fill="#aa0087a0"/>
  <circle cx="0.492659" cy="-12.6946" r="0.862923" fill="#ff0066a0"/>
  <circle cx="-12.0338" cy="-2.56196" r="0.620604" fill="#ff8080a0"/>
  <circle cx="-12.5551" cy="-1.2435" r="0.797179" fill="#aa0087a0"/>
  <circle cx="-2.9718" cy="12.5002" r="1" fill="#803dc1a0"/>
  <circle cx="4.07068" cy="-12.1559" r="0.862923" fill="#ff0066a0"/>
  <circle cx="-10.1714" cy="7.38563" r="0.862923" fill="#ff0066a0"/>
  <circle cx="-11.3701" cy="5.95952" r="1" fill="#803dc1a0"/>
  <circle cx="-9.238" cy="8.75845" r="0.797179" fill="#aa0087a0"/>
  <circle cx="11.8661" cy="-4.4167" r="0.620604" fill="#ff8080a0"/>
  <circle cx="-11.8661" cy="4.4167" r="0.620604" fill="#ff8080a0"/>
  <circle cx="12.7461" cy="2.07765" r="0.862923" fill="#ff0066a0"/>
  <circle cx="-12.5299" cy="-4.10478" r="1" fill="#803dc1a0"/>
  <circle cx="-11.1821" cy="-6.62888" r="0.797179" fill="#aa0087a0"/>
  <circle cx="-4.67796" cy="11.9355" r="0.797179" fill="#aa0087a0"/>
  <circle cx="-5.93447" cy="11.2787" r="0.620604" fill="#ff8080a0"/>
  <circle cx="11.8647" cy="4.65369" r="0.620604" fill="#ff8080a0"/>
  <circle cx="11.5897" cy="6.25079" r="1" fill="#803dc1a0"/>
  <circle cx="1.47197" cy="13.2389" r="1" fill="#803dc1a0"/>
  <circle cx="-8.34153" cy="10.0769" r="0.797179" fill="#aa0087a0"/>
  <circle cx="10.2554" cy="-8.5341" r="1" fill="#803dc1a0"/>
  <circle cx="7.40502" cy="11.0306" r="1" fill="#803dc1a0"/>
  <circle cx="-2.27449" cy="-12.6389" r="0.620604" fill="#ff8080a0"/>
  <circle cx="-3.69227" cy="-12.6389" r="0.797179" fill="#aa0087a0"/>
  <circle cx="-13.4768" cy="0.299314" r="1" fill="#803dc1a0"/>
  <circle cx="10.668" cy="7.7936" r="0.797179" fill="#aa0087a0"/>
  <circle cx="-13.1184" cy="3.3881" r="1" fill="#803dc1a0"/>
  <circle cx="8.91984" cy="9.94621" r="0.862923" fill="#ff0066a0"/>
  <circle cx="-1.04768" cy="-13.473" r="0.862923" fill="#ff0066a0"/>
  <circle cx="12.9374" cy="3.72669" r="0.797179" fill="#aa0087a0"/>
  <circle cx="-6.98074" cy="-11.2647" r="0.862923" fill="#ff0066a0"/>
  <circle cx="-5.46592" cy="-12.349" r="1" fill="#803dc1a0"/>
  <circle cx="-8.20754" cy="-10.4305" r="0.620604" fill="#ff8080a0"/>
  <circle cx="4.70965" cy="12.8632" r="1" fill="#803dc1a0"/>
  <circle cx="11.454" cy="-7.10799" r="0.862923" fill="#ff0066a0"/>
  <circle cx="13.5608" cy="-1.44778" r="0.862923" fill="#ff0066a0"/>
  <circle cx="-7.40811" cy="11.4497" r="0.862923" fill="#ff0066a0"/>
  <circle cx="-0.301683" cy="13.5288" r="0.797179" fill="#aa0087a0"/>
  <circle cx="-12.2549" cy="-5.70188" r="0.620604" fill="#ff8080a0"/>
  <circle cx="-13.4516" cy="-2.56196" r="0.797179" fill="#aa0087a0"/>
  <circle cx="12.3874" cy="-5.73516" r="0.797179" fill="#aa0087a0"/>
  <circle cx="6.80083" cy="-11.6702" r="0.797179" fill="#aa0087a0"/>
  <circle cx="5.54432" cy="-12.3269" r="0.620604" fill="#ff8080a0"/>
  <circle cx="10.1466" cy="9.11206" r="0.620604" fill="#ff8080a0"/>
  <circle cx="-1.71947" cy="13.5288" r="0.620604" fill="#ff8080a0"/>
  <circle cx="8.50699" cy="-11.1055" r="1" fill="#803dc1a0"/>
  <circle cx="3.13725" cy="-13.5288" r="0.797179" fill="#aa0087a0"/>
  <circle cx="1.71947" cy="-13.5288" r="0.620604" fill="#ff8080a0"/>
  <circle cx="-13.7519" cy="1.89641" r="0.620604" fill="#ff8080a0"/>
  <circle cx="-10.1466" cy="-9.11206" r="0.620604" fill="#ff8080a0"/>
  <circle cx="-11.3735" cy="-8.27792" r="0.862923" fill="#ff0066a0"/>
  <circle cx="-13.0929" cy="5.25085" r="0.862923" fill="#ff0066a0"/>
  <circle cx="13.2839" cy="-4.41671" r="0.797179" fill="#aa0087a0"/>
  <circle cx="13.1212" cy="5.31042" r="0.797179" fill="#aa0087a0"/>
  <circle cx="-6.20948" cy="12.8758" r="1" fill="#803dc1a0"/>
  <circle cx="3.17813" cy="13.8036" r="0.797179" fill="#aa0087a0"/>
  <circle cx="-13.9729" cy="-1.2435" r="0.620604" fill="#ff8080a0"/>
  <circle cx="-9.62533" cy="-10.4305" r="0.797179" fill="#aa0087a0"/>
  <circle cx="-11.6451" cy="7.55662" r="0.620604" fill="#ff8080a0"/>
  <circle cx="-11.0116" cy="9.04831" r="1" fill="#803dc1a0"/>
  <circle cx="6.5648" cy="12.6932" r="0.862923" fill="#ff0066a0"/>
  <circle cx="9.75932" cy="-10.0769" r="0.620604" fill="#ff8080a0"/>
  <circle cx="-2.77055" cy="-14.1817" r="1" fill="#803dc1a0"/>
  <circle cx="-9.75932" cy="10.0769" r="0.620604" fill="#ff8080a0"/>
  <circle cx="0.467135" cy="-14.5574" r="1" fill="#803dc1a0"/>
  <circle cx="-4.48661" cy="13.5845" r="0.862923" fill="#ff0066a0"/>
  <circle cx="4.9109" cy="-13.8186" r="1" fill="#803dc1a0"/>
  <circle cx="14.2173" cy="-3.04388" r="0.862923" fill="#ff0066a0"/>
  <circle cx="13.9729" cy="1.2435" r="0.620604" fill="#ff8080a0"/>
  <circle cx="14.4942" cy="-0.0749564" r="0.797179" fill="#aa0087a0"/>
  <circle cx="14.469" cy="2.78632" r="1" fill="#803dc1a0"/>
  <circle cx="-12.8883" cy="-7.19356" r="1" fill="#803dc1a0"/>
  <circle cx="-12.9016" cy="6.89989" r="0.797179" fill="#aa0087a0"/>
  <circle cx="-2.94627" cy="14.3629" r="0.862923" fill="#ff0066a0"/>
  <circle cx="-9.26326" cy="11.6197" r="1" fill="#803dc1a0"/>
  <circle cx="-8.7036" cy="-11.9733" r="1" fill="#803dc1a0"/>
  <circle cx="-4.6257" cy="-14.0117" r="0.862923" fill="#ff0066a0"/>
  <circle cx="12.0857" cy="7.7936" r="0.620604" fill="#ff8080a0"/>
  <circle cx="11.5644" cy="9.11206" r="0.797179" fill="#aa0087a0"/>
  <circle cx="-7.17208" cy="-12.9137" r="0.797179" fill="#aa0087a0"/>
  <circle cx="-13.7285" cy="-5.53088" r="0.862923" fill="#ff0066a0"/>
  <circle cx="6.61706" cy="-13.2539" r="0.797179" fill="#aa0087a0"/>
  <circle cx="13.3126" cy="6.95946" r="0.862923" fill="#ff0066a0"/>
  <circle cx="-14.385" cy="-3.93479" r="0.862923" fill="#ff0066a0"/>
  <circle cx="9.11118" cy="11.5952" r="0.797179" fill="#aa0087a0"/>
  <circle cx="10.6427" cy="10.6549" r="1" fill="#803dc1a0"/>
  <circle cx="2.24079" cy="-14.8472" r="0.797179" fill="#aa0087a0"/>
  <circle cx="-11.399" cy="-10.1407" r="1" fill="#803dc1a0"/>
  <circle cx="-1.22341" cy="15.0716" r="1" fill="#803dc1a0"/>
  <circle cx="14.194" cy="4.38342" r="0.620604" fill="#ff8080a0"/>
  <circle cx="8.03844" cy="12.5222" r="0.620604" fill="#ff8080a0"/>
  <circle cx="7.87357" cy="-12.5972" r="0.620604" fill="#ff8080a0"/>
  <circle cx="0.631746" cy="14.9016" r="0.862923" fill="#ff0066a0"/>
  <circle cx="2.10539" cy="14.7306" r="0.620604" fill="#ff8080a0"/>
  <circle cx="12.1105" cy="-8.70409" r="0.862923" fill="#ff0066a0"/>
  <circle cx="11.1771" cy="-10.0769" r="0.797179" fill="#aa0087a0"/>
  <circle cx="13.3092" cy="-7.27798" r="1" fill="#803dc1a0"/>
  <circle cx="-1.23902" cy="-15.1221" r="0.797179" fill="#aa0087a0"/>
  <circle cx="13.8052" cy="-5.73516" r="0.620604" fill="#ff8080a0"/>
  <circle cx="-15.0084" cy="1.23968" r="0.797179" fill="#aa0087a0"/>
  <circle cx="-15.1997" cy="-0.409356" r="0.862923" fill="#ff0066a0"/>
  <circle cx="-15.2252" cy="-2.2721" r="1" fill="#803dc1a0"/>
  <circle cx="-8.06463" cy="13.0458" r="0.862923" fill="#ff0066a0"/>
  <circle cx="15.416" cy="-1.61777" r="1" fill="#803dc1a0"/>
  <circle cx="-14.8246" cy="2.82341" r="0.797179" fill="#aa0087a0"/>
  <circle cx="-12.7178" cy="8.48362" r="0.797179" fill="#aa0087a0"/>
  <circle cx="-6.09934" cy="-13.8407" r="0.620604" fill="#ff8080a0"/>
  <circle cx="-14.6333" cy="4.47245" r="0.862923" fill="#ff0066a0"/>
  <circle cx="10.2806" cy="-11.3954" r="0.797179" fill="#aa0087a0"/>
  <circle cx="-10.9861" cy="10.9111" r="0.862923" fill="#ff0066a0"/>
  <circle cx="15.3907" cy="1.2435" r="0.797179" fill="#aa0087a0"/>
  <circle cx="3.65857" cy="-14.8472" r="0.620604" fill="#ff8080a0"/>
  <circle cx="5.90828" cy="14.2893" r="0.862923" fill="#ff0066a0"/>
  <circle cx="4.43464" cy="14.4603" r="0.620604" fill="#ff8080a0"/>
  <circle cx="15.0575" cy="-4.70656" r="1" fill="#803dc1a0"/>
  <circle cx="-12.9138" cy="-9.05631" r="0.862923" fill="#ff0066a0"/>
  <circle cx="14.8274" cy="5.87511" r="1" fill="#803dc1a0"/>
  <circle cx="3.36189" cy="15.3873" r="0.797179" fill="#aa0087a0"/>
  <circle cx="-14.6077" cy="6.3352" r="1" fill="#803dc1a0"/>
  <circle cx="9.34721" cy="-12.7682" r="0.862923" fill="#ff0066a0"/>
  <circle cx="-10.5588" cy="-11.8033" r="0.862923" fill="#ff0066a0"/>
  <circle cx="13.3381" cy="8.82221" r="1" fill="#803dc1a0"/>
  <circle cx="7.76343" cy="14.1193" r="1" fill="#803dc1a0"/>
  <circle cx="-5.71342" cy="14.4187" r="0.620604" fill="#ff8080a0"/>
  <circle cx="-4.46109" cy="15.4473" r="1" fill="#803dc1a0"/>
  <circle cx="-12.5265" cy="10.1327" r="0.862923" fill="#ff0066a0"/>
  <circle cx="15.912" cy="-0.0749563" r="0.620604" fill="#ff8080a0"/>
  <circle cx="-7.1312" cy="14.4187" r="0.797179" fill="#aa0087a0"/>
  <circle cx="15.691" cy="-3.21487" r="0.620604" fill="#ff8080a0"/>
  <circle cx="-13.9743" cy="7.82689" r="0.620604" fill="#ff8080a0"/>
  <circle cx="-3.96917" cy="-15.6078" r="0.862923" fill="#ff0066a0"/>
  <circle cx="-2.49553" cy="-15.7788" r="0.620604" fill="#ff8080a0"/>
  <circle cx="8.14858" cy="-14.1943" r="1" fill="#803dc1a0"/>
  <circle cx="15.6676" cy="4.21242" r="0.862923" fill="#ff0066a0"/>
  <circle cx="9.29495" cy="13.179" r="0.797179" fill="#aa0087a0"/>
  <circle cx="1.83037" cy="16.3277" r="1" fill="#803dc1a0"/>
  <circle cx="12.4979" cy="10.4849" r="0.862923" fill="#ff0066a0"/>
  <circle cx="-2.75493" cy="16.012" r="0.797179" fill="#aa0087a0"/>
  <circle cx="10.3677" cy="12.252" r="0.620604" fill="#ff8080a0"/>
  <circle cx="1.30736" cy="-16.2201" r="0.862923" fill="#ff0066a0"/>
  <circle cx="-0.166283" cy="-16.0491" r="0.620604" fill="#ff8080a0"/>
  <circle cx="-8.42859" cy="-13.5704" r="0.620604" fill="#ff8080a0"/>
  <circle cx="-7.35585" cy="-14.4974" r="0.797179" fill="#aa0087a0"/>
  <circle cx="15.032" cy="-6.56931" r="0.862923" fill="#ff0066a0"/>
  <circle cx="6.42572" cy="-14.903" r="0.862923" fill="#ff0066a0"/>
  <circle cx="-5.82432" cy="-15.4378" r="1" fill="#803dc1a0"/>
  <circle cx="-15.5836" cy="-5.36089" r="1" fill="#803dc1a0"/>
  <circle cx="-14.6619" cy="-6.90371" r="0.797179" fill="#aa0087a0"/>
  <circle cx="4.88538" cy="-15.6814" r="0.862923" fill="#ff0066a0"/>
  <circle cx="16.3241" cy="2.61633" r="0.862923" fill="#ff0066a0"/>
  <circle cx="5.06805" cy="15.952" r="1" fill="#803dc1a0"/>
  <circle cx="-14.1406" cy="-8.22217" r="0.620604" fill="#ff8080a0"/>
  <circle cx="-15.8587" cy="-3.76379" r="0.620604" fill="#ff8080a0"/>
  <circle cx="13.5842" cy="-8.87508" r="0.620604" fill="#ff8080a0"/>
  <circle cx="12.9507" cy="-10.3668" r="1" fill="#803dc1a0"/>
  <circle cx="-0.0247795" cy="16.4977" r="0.862923" fill="#ff0066a0"/>
  <circle cx="-9.90223" cy="-13.3994" r="0.862923" fill="#ff0066a0"/>
  <circle cx="3.16251" cy="-16.39" r="1" fill="#803dc1a0"/>
  <circle cx="11.6984" cy="-11.3954" r="0.620604" fill="#ff8080a0"/>
  <circle cx="-16.0811" cy="2.16668" r="0.620604" fill="#ff8080a0"/>
  <circle cx="-16.7145" cy="0.674995" r="1" fill="#803dc1a0"/>
  <circle cx="-9.53827" cy="13.2168" r="0.620604" fill="#ff8080a0"/>
  <circle cx="-10.7948" cy="12.5601" r="0.797179" fill="#aa0087a0"/>
  <circle cx="14.8529" cy="7.73785" r="0.862923" fill="#ff0066a0"/>
  <circle cx="-16.3561" cy="3.76378" r="1" fill="#803dc1a0"/>
  <circle cx="-1.42279" cy="-16.7058" r="0.797179" fill="#aa0087a0"/>
  <circle cx="11.8413" cy="12.081" r="0.862923" fill="#ff0066a0"/>
  <circle cx="-16.7401" cy="-1.18775" r="0.862923" fill="#ff0066a0"/>
  <circle cx="-14.2493" cy="9.42399" r="1" fill="#803dc1a0"/>
  <circle cx="-1.49842" cy="16.6687" r="0.620604" fill="#ff8080a0"/>
  <circle cx="-6.23474" cy="15.7371" r="0.797179" fill="#aa0087a0"/>
  <circle cx="11.2024" cy="-12.9382" r="1" fill="#803dc1a0"/>
  <circle cx="-15.8601" cy="5.3066" r="0.620604" fill="#ff8080a0"/>
  <circle cx="14.8407" cy="-8.21835" r="0.797179" fill="#aa0087a0"/>
  <circle cx="-8.90485" cy="14.7085" r="1" fill="#803dc1a0"/>
  <circle cx="17.1643" cy="0.953647" r="1" fill="#803dc1a0"/>
  <circle cx="-12.0324" cy="-11.6324" r="0.620604" fill="#ff8080a0"/>
  <circle cx="-13.1051" cy="-10.7054" r="0.797179" fill="#aa0087a0"/>
  <circle cx="6.84171" cy="15.6622" r="0.797179" fill="#aa0087a0"/>
  <circle cx="-12.5009" cy="11.9954" r="1" fill="#803dc1a0"/>
  <circle cx="-16.9314" cy="-2.83679" r="0.797179" fill="#aa0087a0"/>
  <circle cx="17.1388" cy="-0.909102" r="0.862923" fill="#ff0066a0"/>
  <circle cx="16.9475" cy="-2.55814" r="0.797179" fill="#aa0087a0"/>
  <circle cx="3.55324" cy="17.0364" r="0.862923" fill="#ff0066a0"/>
  <circle cx="-9.06201" cy="-15.0621" r="1" fill="#803dc1a0"/>
  <circle cx="-3.12895" cy="-17.2705" r="1" fill="#803dc1a0"/>
  <circle cx="-14.6367" cy="-9.76498" r="1" fill="#803dc1a0"/>
  <circle cx="-15.448" cy="7.99788" r="0.862923" fill="#ff0066a0"/>
  <circle cx="16.7637" cy="-4.14187" r="0.797179" fill="#aa0087a0"/>
  <circle cx="11.0011" cy="13.7437" r="1" fill="#803dc1a0"/>
  <circle cx="0.108731" cy="-17.6462" r="1" fill="#803dc1a0"/>
  <circle cx="10.0037" cy="-14.3643" r="0.862923" fill="#ff0066a0"/>
  <circle cx="-11.7574" cy="-13.2295" r="1" fill="#803dc1a0"/>
  <circle cx="16.5724" cy="-5.79091" r="0.862923" fill="#ff0066a0"/>
  <circle cx="-17.5547" cy="2.33768" r="0.862923" fill="#ff0066a0"/>
  <circle cx="14.6569" cy="-9.80208" r="0.797179" fill="#aa0087a0"/>
  <circle cx="-7.65252" cy="15.7371" r="0.620604" fill="#ff8080a0"/>
  <circle cx="-10.611" cy="14.1438" r="0.797179" fill="#aa0087a0"/>
  <circle cx="-17.1152" cy="-4.42053" r="0.797179" fill="#aa0087a0"/>
  <circle cx="-16.3814" cy="6.62506" r="0.797179" fill="#aa0087a0"/>
  <circle cx="9.48629" cy="14.828" r="0.862923" fill="#ff0066a0"/>
  <circle cx="16.601" cy="5.58525" r="0.797179" fill="#aa0087a0"/>
  <circle cx="16.0797" cy="6.90371" r="0.620604" fill="#ff8080a0"/>
  <circle cx="12.9252" cy="-12.2295" r="0.862923" fill="#ff0066a0"/>
  <circle cx="-4.9026" cy="-16.9806" r="0.797179" fill="#aa0087a0"/>
  <circle cx="-13.7533" cy="10.9668" r="0.620604" fill="#ff8080a0"/>
  <circle cx="-15.5584" cy="-8.22217" r="0.797179" fill="#aa0087a0"/>
  <circle cx="13.9715" cy="10.3139" r="0.620604" fill="#ff8080a0"/>
  <circle cx="15.0442" cy="9.38689" r="0.797179" fill="#aa0087a0"/>
  <circle cx="-16.0797" cy="-6.90371" r="0.620604" fill="#ff8080a0"/>
  <circle cx="-3.82767" cy="16.939" r="0.620604" fill="#ff8080a0"/>
  <circle cx="-2.57116" cy="17.5957" r="0.797179" fill="#aa0087a0"/>
  <circle cx="-7.54719" cy="-16.1465" r="0.862923" fill="#ff0066a0"/>
  <circle cx="-5.30131" cy="17.1099" r="0.862923" fill="#ff0066a0"/>
  <circle cx="17.5227" cy="4.04244" r="1" fill="#803dc1a0"/>
  <circle cx="7.65252" cy="-15.7371" r="0.620604" fill="#ff8080a0"/>
  <circle cx="6.40019" cy="-16.7657" r="1" fill="#803dc1a0"/>
  <circle cx="8.25949" cy="15.6622" r="0.620604" fill="#ff8080a0"/>
  <circle cx="1.96388" cy="-17.8161" r="0.862923" fill="#ff0066a0"/>
  <circle cx="13.6965" cy="11.911" r="1" fill="#803dc1a0"/>
  <circle cx="16.5468" cy="-7.65366" r="1" fill="#803dc1a0"/>
  <circle cx="4.69403" cy="-17.3304" r="0.797179" fill="#aa0087a0"/>
  <circle cx="-17.2778" cy="5.3066" r="0.797179" fill="#aa0087a0"/>
  <circle cx="-13.2889" cy="-12.2891" r="0.797179" fill="#aa0087a0"/>
  <circle cx="-0.865001" cy="18.1604" r="1" fill="#803dc1a0"/>
  <circle cx="-11.8675" cy="13.4871" r="0.620604" fill="#ff8080a0"/>
  <circle cx="0.908649" cy="17.8705" r="0.797179" fill="#aa0087a0"/>
  <circle cx="9.07031" cy="-15.7371" r="0.797179" fill="#aa0087a0"/>
  <circle cx="17.7978" cy="2.44534" r="0.620604" fill="#ff8080a0"/>
  <circle cx="2.32643" cy="17.8705" r="0.620604" fill="#ff8080a0"/>
  <circle cx="-17.3065" cy="-6.06956" r="0.862923" fill="#ff0066a0"/>
  <circle cx="-6.32039" cy="-16.9806" r="0.620604" fill="#ff8080a0"/>
  <circle cx="-10.8357" cy="-14.7723" r="0.797179" fill="#aa0087a0"/>
  <circle cx="-1.61414" cy="-18.3548" r="0.862923" fill="#ff0066a0"/>
  <circle cx="14.4656" cy="-11.4511" r="0.862923" fill="#ff0066a0"/>
  <circle cx="16.5758" cy="8.44653" r="1" fill="#803dc1a0"/>
  <circle cx="-17.9669" cy="-0.353607" r="0.620604" fill="#ff8080a0"/>
  <circle cx="-18.4629" cy="-1.89642" r="1" fill="#803dc1a0"/>
  <circle cx="3.43752" cy="-17.9871" r="0.620604" fill="#ff8080a0"/>
  <circle cx="-14.3616" cy="-11.3621" r="0.620604" fill="#ff8080a0"/>
  <circle cx="-7.15646" cy="17.2799" r="1" fill="#803dc1a0"/>
  <circle cx="-18.4882" cy="0.964851" r="0.797179" fill="#aa0087a0"/>
  <circle cx="6.32038" cy="16.9806" r="0.620604" fill="#ff8080a0"/>
  <circle cx="5.09358" cy="17.8148" r="0.862923" fill="#ff0066a0"/>
  </g>
</svg>
