<?xml version="1.0" encoding="UTF-8" standalone="no"?>
<svg viewBox="-16.1442 -16.1442 32.2884 32.2884" xmlns="http://www.w3.org/2000/svg">
  <rect x="-16.1442" y="-16.1442" width="32.2884" height="32.2884" fill="white"/>
  <g transform="scale(1, -1)">
  <circle cx="0" cy="0" r="0.409604" fill="#ff8080a0"/>
  <circle cx="0.819207" cy="0" r="0.409604" fill="#aa0087a0"/>
  <circle cx="0.409604" cy="0.709454" r="0.409604" fill="#ff8080a0"/>
  <circle cx="0.409604" cy="-1.34878" r="1" fill="#803dc1a0"/>
  <circle cx="-0.963276" cy="1.02912" r="1" fill="#803dc1a0"/>
  <circle cx="-0.779569" cy="-0.450085" r="0.490566" fill="#ff0066a0"/>
  <circle cx="1.78248" cy="1.02912" r="1" fill="#803dc1a0"/>
  <circle cx="1.59878" cy="-0.450085" r="0.490566" fill="#ff0066a0"/>
  <circle cx="0.409604" cy="1.60962" r="0.490566" fill="#ff0066a0"/>
  <circle cx="-1.55507" cy="-1.72303" r="1" fill="#803dc1a0"/>
  <circle cx="-1.73878" cy="-0.243827" r="0.490566" fill="#ff0066a0"/>
  <circle cx="1.89976" cy="-1.38391" r="0.490566" fill="#ff0066a0"/>
  <circle cx="3.08893" cy="-0.485215" r="1" fill="#803dc1a0"/>
  <circle cx="-0.305048" cy="2.9177" r="1" fill="#803dc1a0"/>
  <circle cx="1.06783" cy="2.33719" r="0.490566" fill="#ff0066a0"/>
  <circle cx="-2.92795" cy="0.654868" r="1" fill="#803dc1a0"/>
  <circle cx="-2.51834" cy="-0.693911" r="0.409604" fill="#aa0087a0"/>
  <circle cx="-0.248624" cy="-3.23736" r="1" fill="#803dc1a0"/>
  <circle cx="1.71605" cy="-2.86311" r="1" fill="#803dc1a0"/>
  <circle cx="-2.26972" cy="2.54345" r="1" fill="#803dc1a0"/>
  <circle cx="2.67932" cy="-1.83399" r="0.409604" fill="#ff8080a0"/>
  <circle cx="-2.92795" cy="-1.40337" r="0.409604" fill="#aa0087a0"/>
  <circle cx="-3.33755" cy="-0.693911" r="0.409604" fill="#ff8080a0"/>
  <circle cx="3.74716" cy="1.40337" r="1" fill="#803dc1a0"/>
  <circle cx="2.44071" cy="2.9177" r="1" fill="#803dc1a0"/>
  <circle cx="1.06783" cy="3.23736" r="0.409604" fill="#aa0087a0"/>
  <circle cx="-2.2133" cy="-3.61161" r="1" fill="#803dc1a0"/>
  <circle cx="-2.92795" cy="-2.30353" r="0.490566" fill="#ff0066a0"/>
  <circle cx="3.49853" cy="-1.83399" r="0.409604" fill="#aa0087a0"/>
  <circle cx="3.08893" cy="-2.54345" r="0.409604" fill="#aa0087a0"/>
  <circle cx="-4.30083" cy="-1.72303" r="1" fill="#803dc1a0"/>
  <circle cx="0.658227" cy="3.94681" r="0.409604" fill="#ff8080a0"/>
  <circle cx="1.47743" cy="3.94681" r="0.409604" fill="#aa0087a0"/>
  <circle cx="-4.11712" cy="-0.243827" r="0.490566" fill="#ff0066a0"/>
  <circle cx="-1.61149" cy="4.43203" r="1" fill="#803dc1a0"/>
  <circle cx="-0.121342" cy="4.3969" r="0.490566" fill="#ff0066a0"/>
  <circle cx="-4.23439" cy="2.1692" r="1" fill="#803dc1a0"/>
  <circle cx="-4.4181" cy="0.689999" r="0.490566" fill="#ff0066a0"/>
  <circle cx="5.0536" cy="-0.110966" r="1" fill="#803dc1a0"/>
  <circle cx="4.2781" cy="-1.38391" r="0.490566" fill="#ff0066a0"/>
  <circle cx="-3.58618" cy="-3.0311" r="0.490566" fill="#ff0066a0"/>
  <circle cx="1.05782" cy="-4.75169" r="1" fill="#803dc1a0"/>
  <circle cx="-0.906851" cy="-5.12594" r="1" fill="#803dc1a0"/>
  <circle cx="3.08893" cy="-3.44362" r="0.490566" fill="#ff0066a0"/>
  <circle cx="2.4307" cy="-4.17119" r="0.490566" fill="#ff0066a0"/>
  <circle cx="4.46181" cy="-2.86311" r="1" fill="#803dc1a0"/>
  <circle cx="-3.57617" cy="4.05778" r="1" fill="#803dc1a0"/>
  <circle cx="1.06783" cy="5.29559" r="1" fill="#803dc1a0"/>
  <circle cx="-5.60727" cy="-0.208697" r="1" fill="#803dc1a0"/>
  <circle cx="2.257" cy="4.3969" r="0.490566" fill="#ff0066a0"/>
  <circle cx="4.40538" cy="3.29195" r="1" fill="#803dc1a0"/>
  <circle cx="3.21621" cy="4.19064" r="0.490566" fill="#ff0066a0"/>
  <circle cx="-0.42232" cy="5.33072" r="0.490566" fill="#ff0066a0"/>
  <circle cx="-5.19767" cy="1.14008" r="0.409604" fill="#ff8080a0"/>
  <circle cx="5.23731" cy="-1.59017" r="0.490566" fill="#ff0066a0"/>
  <circle cx="5.71183" cy="1.77761" r="1" fill="#803dc1a0"/>
  <circle cx="3.80358" cy="-4.75169" r="1" fill="#803dc1a0"/>
  <circle cx="-3.58618" cy="-3.93127" r="0.409604" fill="#aa0087a0"/>
  <circle cx="-4.95906" cy="-3.61161" r="1" fill="#803dc1a0"/>
  <circle cx="-2.397" cy="-5.09081" r="0.490566" fill="#ff0066a0"/>
  <circle cx="-3.17657" cy="-4.64073" r="0.409604" fill="#aa0087a0"/>
  <circle cx="2.4307" cy="-5.07136" r="0.409604" fill="#ff8080a0"/>
  <circle cx="3.0325" cy="5.66984" r="1" fill="#803dc1a0"/>
  <circle cx="-6.2655" cy="-2.09728" r="1" fill="#803dc1a0"/>
  <circle cx="-1.20189" cy="5.78081" r="0.409604" fill="#ff8080a0"/>
  <circle cx="-2.80067" cy="5.33072" r="0.490566" fill="#ff0066a0"/>
  <circle cx="-2.0211" cy="5.78081" r="0.409604" fill="#aa0087a0"/>
  <circle cx="-5.60727" cy="1.84954" r="0.409604" fill="#ff8080a0"/>
  <circle cx="-6.01688" cy="1.14008" r="0.409604" fill="#ff8080a0"/>
  <circle cx="-3.99578" cy="-4.64073" r="0.409604" fill="#ff8080a0"/>
  <circle cx="-4.94905" cy="3.47727" r="0.490566" fill="#ff0066a0"/>
  <circle cx="-5.60727" cy="2.74971" r="0.490566" fill="#ff0066a0"/>
  <circle cx="3.99578" cy="4.64073" r="0.409604" fill="#aa0087a0"/>
  <circle cx="-0.238614" cy="6.80993" r="1" fill="#803dc1a0"/>
  <circle cx="0.282322" cy="-6.02464" r="0.490566" fill="#ff0066a0"/>
  <circle cx="1.24153" cy="-6.23089" r="0.490566" fill="#ff0066a0"/>
  <circle cx="2.0211" cy="-5.78081" r="0.409604" fill="#aa0087a0"/>
  <circle cx="6.01688" cy="-1.14008" r="0.409604" fill="#ff8080a0"/>
  <circle cx="6.42648" cy="-2.48886" r="1" fill="#803dc1a0"/>
  <circle cx="2.8403" cy="-5.78081" r="0.409604" fill="#ff8080a0"/>
  <circle cx="-3.58618" cy="-5.98951" r="1" fill="#803dc1a0"/>
  <circle cx="6.42648" cy="0.46954" r="0.490566" fill="#ff0066a0"/>
  <circle cx="6.42648" cy="-0.430629" r="0.409604" fill="#aa0087a0"/>
  <circle cx="-2.09602" cy="-6.02464" r="0.490566" fill="#ff0066a0"/>
  <circle cx="-0.497248" cy="-6.47472" r="0.409604" fill="#ff8080a0"/>
  <circle cx="-1.31645" cy="-6.47472" r="0.409604" fill="#aa0087a0"/>
  <circle cx="5.76825" cy="-4.37744" r="1" fill="#803dc1a0"/>
  <circle cx="-6.98015" cy="2.1692" r="1" fill="#803dc1a0"/>
  <circle cx="-1.61149" cy="6.49026" r="0.409604" fill="#ff8080a0"/>
  <circle cx="1.72606" cy="7.18418" r="1" fill="#803dc1a0"/>
  <circle cx="-3.75987" cy="5.53698" r="0.490566" fill="#ff0066a0"/>
  <circle cx="-4.94905" cy="4.37744" r="0.409604" fill="#ff8080a0"/>
  <circle cx="-4.53944" cy="5.0869" r="0.409604" fill="#ff8080a0"/>
  <circle cx="5.89553" cy="3.25682" r="0.490566" fill="#ff0066a0"/>
  <circle cx="4.81499" cy="4.64073" r="0.409604" fill="#ff8080a0"/>
  <circle cx="5.59456" cy="4.19064" r="0.490566" fill="#ff0066a0"/>
  <circle cx="-2.98437" cy="6.80993" r="1" fill="#803dc1a0"/>
  <circle cx="0.466028" cy="-7.50384" r="1" fill="#803dc1a0"/>
  <circle cx="4.40538" cy="5.35018" r="0.409604" fill="#aa0087a0"/>
  <circle cx="-6.79645" cy="0.689999" r="0.490566" fill="#ff0066a0"/>
  <circle cx="2.4307" cy="-7.12959" r="1" fill="#803dc1a0"/>
  <circle cx="6.83608" cy="-1.14008" r="0.409604" fill="#ff8080a0"/>
  <circle cx="-4.77535" cy="-5.09081" r="0.490566" fill="#ff0066a0"/>
  <circle cx="-6.32192" cy="4.05778" r="1" fill="#803dc1a0"/>
  <circle cx="-7.57195" cy="-0.582945" r="1" fill="#803dc1a0"/>
  <circle cx="3.61987" cy="-6.23089" r="0.490566" fill="#ff0066a0"/>
  <circle cx="7.79936" cy="-0.110966" r="1" fill="#803dc1a0"/>
  <circle cx="-2.27973" cy="-7.50384" r="1" fill="#803dc1a0"/>
  <circle cx="-0.906851" cy="-7.18418" r="0.409604" fill="#ff8080a0"/>
  <circle cx="7.08471" cy="1.19711" r="0.490566" fill="#ff0066a0"/>
  <circle cx="6.6751" cy="2.80673" r="0.409604" fill="#aa0087a0"/>
  <circle cx="7.08471" cy="2.09728" r="0.409604" fill="#ff8080a0"/>
  <circle cx="-5.35865" cy="5.0869" r="0.409604" fill="#aa0087a0"/>
  <circle cx="5.11003" cy="-6.26602" r="1" fill="#803dc1a0"/>
  <circle cx="5.77826" cy="5.66984" r="1" fill="#803dc1a0"/>
  <circle cx="-1.61149" cy="7.39043" r="0.490566" fill="#ff0066a0"/>
  <circle cx="-6.92373" cy="-3.98586" r="1" fill="#803dc1a0"/>
  <circle cx="-5.73455" cy="-4.88455" r="0.490566" fill="#ff0066a0"/>
  <circle cx="-4.94905" cy="6.43568" r="1" fill="#803dc1a0"/>
  <circle cx="7.08471" cy="4.15551" r="1" fill="#803dc1a0"/>
  <circle cx="-7.75565" cy="0.896256" r="0.490566" fill="#ff0066a0"/>
  <circle cx="4.40538" cy="6.25035" r="0.490566" fill="#ff0066a0"/>
  <circle cx="7.61565" cy="-1.59017" r="0.490566" fill="#ff0066a0"/>
  <circle cx="3.69073" cy="7.55842" r="1" fill="#803dc1a0"/>
  <circle cx="-5.55085" cy="-6.36375" r="1" fill="#803dc1a0"/>
  <circle cx="-8.23017" cy="-2.47153" r="1" fill="#803dc1a0"/>
  <circle cx="7.49431" cy="2.80673" r="0.409604" fill="#aa0087a0"/>
  <circle cx="-0.906851" cy="-8.08434" r="0.490566" fill="#ff0066a0"/>
  <circle cx="8.45759" cy="1.77761" r="1" fill="#803dc1a0"/>
  <circle cx="3.92085" cy="-7.16472" r="0.490566" fill="#ff0066a0"/>
  <circle cx="-6.13822" cy="5.53698" r="0.490566" fill="#ff0066a0"/>
  <circle cx="0.419613" cy="8.69851" r="1" fill="#803dc1a0"/>
  <circle cx="-0.953266" cy="8.118" r="0.490566" fill="#ff0066a0"/>
  <circle cx="7.73293" cy="-4.0032" r="1" fill="#803dc1a0"/>
  <circle cx="7.91663" cy="-2.52399" r="0.490566" fill="#ff0066a0"/>
  <circle cx="-4.2444" cy="-7.87809" r="1" fill="#803dc1a0"/>
  <circle cx="-6.51412" cy="-5.33464" r="0.409604" fill="#ff8080a0"/>
  <circle cx="-2.32615" cy="8.69851" r="1" fill="#803dc1a0"/>
  <circle cx="5.06361" cy="6.97792" r="0.490566" fill="#ff0066a0"/>
  <circle cx="7.0747" cy="-5.89178" r="1" fill="#803dc1a0"/>
  <circle cx="9.1058" cy="-1.6253" r="1" fill="#803dc1a0"/>
  <circle cx="-8.94482" cy="1.79495" r="1" fill="#803dc1a0"/>
  <circle cx="-8.53522" cy="0.446172" r="0.409604" fill="#aa0087a0"/>
  <circle cx="-8.2866" cy="3.68353" r="1" fill="#803dc1a0"/>
  <circle cx="2.38429" cy="9.07276" r="1" fill="#803dc1a0"/>
  <circle cx="8.27388" cy="3.25682" r="0.490566" fill="#ff0066a0"/>
  <circle cx="-4.29082" cy="8.32426" r="1" fill="#803dc1a0"/>
  <circle cx="-7.62837" cy="5.57211" r="1" fill="#803dc1a0"/>
  <circle cx="1.77247" cy="-9.01817" r="1" fill="#803dc1a0"/>
  <circle cx="-0.192199" cy="-9.39242" r="1" fill="#803dc1a0"/>
  <circle cx="3.73715" cy="-8.64392" r="1" fill="#803dc1a0"/>
  <circle cx="-8.94482" cy="-1.16345" r="0.490566" fill="#ff0066a0"/>
  <circle cx="-8.94482" cy="-0.263282" r="0.409604" fill="#aa0087a0"/>
  <circle cx="-1.56508" cy="-8.81191" r="0.490566" fill="#ff0066a0"/>
  <circle cx="4.70042" cy="-7.6148" r="0.409604" fill="#aa0087a0"/>
  <circle cx="-0.953266" cy="9.01817" r="0.409604" fill="#aa0087a0"/>
  <circle cx="-6.4392" cy="6.47081" r="0.490566" fill="#ff0066a0"/>
  <circle cx="8.6962" cy="-2.97408" r="0.409604" fill="#aa0087a0"/>
  <circle cx="9.76403" cy="0.263282" r="1" fill="#803dc1a0"/>
  <circle cx="-7.33333" cy="-5.33464" r="0.409604" fill="#ff8080a0"/>
  <circle cx="-6.92373" cy="-6.04409" r="0.409604" fill="#aa0087a0"/>
  <circle cx="-2.93796" cy="-9.39242" r="1" fill="#803dc1a0"/>
  <circle cx="-9.35443" cy="0.446172" r="0.409604" fill="#aa0087a0"/>
  <circle cx="-8.41388" cy="-3.95073" r="0.490566" fill="#ff0066a0"/>
  <circle cx="-8.1129" cy="-4.88455" r="0.490566" fill="#ff0066a0"/>
  <circle cx="6.2992" cy="-7.16472" r="0.490566" fill="#ff0066a0"/>
  <circle cx="5.51963" cy="-7.6148" r="0.409604" fill="#ff8080a0"/>
  <circle cx="7.74293" cy="6.04409" r="1" fill="#803dc1a0"/>
  <circle cx="6.43649" cy="7.55842" r="1" fill="#803dc1a0"/>
  <circle cx="5.06361" cy="7.87809" r="0.409604" fill="#ff8080a0"/>
  <circle cx="-6.25549" cy="7.95001" r="1" fill="#803dc1a0"/>
  <circle cx="9.04938" cy="4.52976" r="1" fill="#803dc1a0"/>
  <circle cx="5.11003" cy="-8.32426" r="0.409604" fill="#aa0087a0"/>
  <circle cx="-10.3177" cy="-0.582945" r="1" fill="#803dc1a0"/>
  <circle cx="9.23309" cy="3.05056" r="0.490566" fill="#ff0066a0"/>
  <circle cx="3.87444" cy="9.03763" r="0.490566" fill="#ff0066a0"/>
  <circle cx="4.65401" cy="8.58754" r="0.409604" fill="#aa0087a0"/>
  <circle cx="-1.56508" cy="-9.71208" r="0.409604" fill="#ff8080a0"/>
  <circle cx="-6.20908" cy="-8.25234" r="1" fill="#803dc1a0"/>
  <circle cx="-6.92373" cy="-6.94426" r="0.490566" fill="#ff0066a0"/>
  <circle cx="-8.29661" cy="-6.36375" r="1" fill="#803dc1a0"/>
  <circle cx="-0.543662" cy="9.72762" r="0.409604" fill="#ff8080a0"/>
  <circle cx="-1.36287" cy="9.72762" r="0.409604" fill="#ff8080a0"/>
  <circle cx="-9.60305" cy="-1.89102" r="0.490566" fill="#ff0066a0"/>
  <circle cx="-9.19345" cy="-3.50064" r="0.409604" fill="#ff8080a0"/>
  <circle cx="-9.60305" cy="-2.79119" r="0.409604" fill="#ff8080a0"/>
  <circle cx="9.1058" cy="-3.68353" r="0.409604" fill="#aa0087a0"/>
  <circle cx="9.51541" cy="-2.97408" r="0.409604" fill="#ff8080a0"/>
  <circle cx="-7.21877" cy="6.92089" r="0.409604" fill="#ff8080a0"/>
  <circle cx="10.4223" cy="2.15186" r="1" fill="#803dc1a0"/>
  <circle cx="8.44758" cy="-5.31127" r="0.490566" fill="#ff0066a0"/>
  <circle cx="9.1058" cy="-4.5837" r="0.490566" fill="#ff0066a0"/>
  <circle cx="1.19511" cy="9.97145" r="0.490566" fill="#ff0066a0"/>
  <circle cx="0.235907" cy="10.1777" r="0.490566" fill="#ff0066a0"/>
  <circle cx="-10.134" cy="0.896257" r="0.490566" fill="#ff0066a0"/>
  <circle cx="5.47321" cy="8.58754" r="0.409604" fill="#ff8080a0"/>
  <circle cx="-9.60305" cy="-4.84942" r="1" fill="#803dc1a0"/>
  <circle cx="6.4829" cy="-8.64392" r="1" fill="#803dc1a0"/>
  <circle cx="-4.90263" cy="-9.76667" r="1" fill="#803dc1a0"/>
  <circle cx="-3.63259" cy="10.2128" r="1" fill="#803dc1a0"/>
  <circle cx="-2.14244" cy="10.1777" r="0.490566" fill="#ff0066a0"/>
  <circle cx="7.2584" cy="-7.37098" r="0.490566" fill="#ff0066a0"/>
  <circle cx="-10.2513" cy="3.30928" r="1" fill="#803dc1a0"/>
  <circle cx="-9.59304" cy="5.19786" r="1" fill="#803dc1a0"/>
  <circle cx="-10.435" cy="1.83008" r="0.490566" fill="#ff0066a0"/>
  <circle cx="-0.953266" cy="11.0764" r="1" fill="#803dc1a0"/>
  <circle cx="5.11003" cy="-9.22443" r="0.490566" fill="#ff0066a0"/>
  <circle cx="5.06361" cy="9.93632" r="1" fill="#803dc1a0"/>
  <circle cx="1.11425" cy="-10.9068" r="1" fill="#803dc1a0"/>
  <circle cx="3.07892" cy="-10.5325" r="1" fill="#803dc1a0"/>
  <circle cx="8.44758" cy="-6.21144" r="0.409604" fill="#ff8080a0"/>
  <circle cx="8.03797" cy="-6.92089" r="0.409604" fill="#aa0087a0"/>
  <circle cx="10.0127" cy="3.50064" r="0.409604" fill="#aa0087a0"/>
  <circle cx="10.4787" cy="-4.0032" r="1" fill="#803dc1a0"/>
  <circle cx="-1.15548" cy="-10.4215" r="0.409604" fill="#aa0087a0"/>
  <circle cx="-1.97468" cy="-10.4215" r="0.409604" fill="#aa0087a0"/>
  <circle cx="-10.0127" cy="-3.50064" r="0.409604" fill="#aa0087a0"/>
  <circle cx="11.0705" cy="-1.25105" r="1" fill="#803dc1a0"/>
  <circle cx="10.295" cy="-2.52399" r="0.490566" fill="#ff0066a0"/>
  <circle cx="-10.9759" cy="-2.47153" r="1" fill="#803dc1a0"/>
  <circle cx="-7.58196" cy="-7.67183" r="0.490566" fill="#ff0066a0"/>
  <circle cx="3.57346" cy="9.97145" r="0.490566" fill="#ff0066a0"/>
  <circle cx="-5.59726" cy="9.83859" r="1" fill="#803dc1a0"/>
  <circle cx="1.97468" cy="10.4215" r="0.409604" fill="#ff8080a0"/>
  <circle cx="2.79389" cy="10.4215" r="0.409604" fill="#aa0087a0"/>
  <circle cx="-0.375906" cy="-10.8716" r="0.490566" fill="#ff0066a0"/>
  <circle cx="-8.03797" cy="6.92089" r="0.409604" fill="#aa0087a0"/>
  <circle cx="-7.62837" cy="7.63035" r="0.409604" fill="#ff8080a0"/>
  <circle cx="4.4518" cy="-9.952" r="0.490566" fill="#ff0066a0"/>
  <circle cx="-8.81754" cy="6.47081" r="0.490566" fill="#ff0066a0"/>
  <circle cx="9.82046" cy="-5.89178" r="1" fill="#803dc1a0"/>
  <circle cx="1.01141" cy="11.4507" r="1" fill="#803dc1a0"/>
  <circle cx="6.25278" cy="9.03763" r="0.490566" fill="#ff0066a0"/>
  <circle cx="-11.6241" cy="0.931387" r="1" fill="#803dc1a0"/>
  <circle cx="11.7287" cy="0.637531" r="1" fill="#803dc1a0"/>
  <circle cx="9.70761" cy="6.41834" r="1" fill="#803dc1a0"/>
  <circle cx="8.40116" cy="7.93267" r="1" fill="#803dc1a0"/>
  <circle cx="8.44758" cy="-8.26967" r="1" fill="#803dc1a0"/>
  <circle cx="-3.71346" cy="-10.6654" r="0.490566" fill="#ff0066a0"/>
  <circle cx="-2.75425" cy="-10.8716" r="0.490566" fill="#ff0066a0"/>
  <circle cx="-2.44342" cy="11.1115" r="0.490566" fill="#ff0066a0"/>
  <circle cx="-1.56508" cy="-11.7703" r="1" fill="#803dc1a0"/>
  <circle cx="8.85718" cy="-6.92089" r="0.409604" fill="#ff8080a0"/>
  <circle cx="7.21199" cy="8.83137" r="0.490566" fill="#ff0066a0"/>
  <circle cx="-9.00125" cy="7.95001" r="1" fill="#803dc1a0"/>
  <circle cx="10.8319" cy="3.50064" r="0.409604" fill="#aa0087a0"/>
  <circle cx="10.4223" cy="4.2101" r="0.409604" fill="#ff8080a0"/>
  <circle cx="2.38429" cy="11.131" r="0.409604" fill="#ff8080a0"/>
  <circle cx="-10.7922" cy="-3.95073" r="0.490566" fill="#ff0066a0"/>
  <circle cx="5.82468" cy="-10.5325" r="1" fill="#803dc1a0"/>
  <circle cx="3.75717" cy="11.4507" r="1" fill="#803dc1a0"/>
  <circle cx="-11.2145" cy="2.28017" r="0.409604" fill="#ff8080a0"/>
  <circle cx="11.2542" cy="-2.73025" r="0.490566" fill="#ff0066a0"/>
  <circle cx="-6.97014" cy="9.25808" r="0.490566" fill="#ff0066a0"/>
  <circle cx="-7.62837" cy="8.53052" r="0.490566" fill="#ff0066a0"/>
  <circle cx="10.4223" cy="5.11027" r="0.490566" fill="#ff0066a0"/>
  <circle cx="-7.58196" cy="-8.572" r="0.409604" fill="#ff8080a0"/>
  <circle cx="-8.95483" cy="-8.25234" r="1" fill="#803dc1a0"/>
  <circle cx="-6.39278" cy="-9.73154" r="0.490566" fill="#ff0066a0"/>
  <circle cx="-7.17235" cy="-9.28145" r="0.409604" fill="#aa0087a0"/>
  <circle cx="-12.2824" cy="-0.957194" r="1" fill="#803dc1a0"/>
  <circle cx="-0.0749271" cy="-11.8054" r="0.490566" fill="#ff0066a0"/>
  <circle cx="4.4518" cy="-10.8522" r="0.409604" fill="#aa0087a0"/>
  <circle cx="-9.77675" cy="6.67707" r="0.490566" fill="#ff0066a0"/>
  <circle cx="-10.2613" cy="-6.738" r="1" fill="#803dc1a0"/>
  <circle cx="7.02828" cy="10.3106" r="1" fill="#803dc1a0"/>
  <circle cx="11.9124" cy="2.11673" r="0.490566" fill="#ff0066a0"/>
  <circle cx="11.6114" cy="3.05056" r="0.490566" fill="#ff0066a0"/>
  <circle cx="11.7951" cy="4.52976" r="1" fill="#803dc1a0"/>
  <circle cx="9.63675" cy="-7.37098" r="0.490566" fill="#ff0066a0"/>
  <circle cx="-3.52975" cy="-12.1446" r="1" fill="#803dc1a0"/>
  <circle cx="-11.5677" cy="-5.22367" r="1" fill="#803dc1a0"/>
  <circle cx="-10.9659" cy="4.61736" r="0.490566" fill="#ff0066a0"/>
  <circle cx="-11.6241" cy="3.88979" r="0.490566" fill="#ff0066a0"/>
  <circle cx="-11.6241" cy="2.98962" r="0.409604" fill="#ff8080a0"/>
  <circle cx="-4.49303" cy="-11.1154" r="0.409604" fill="#ff8080a0"/>
  <circle cx="2.38429" cy="12.0312" r="0.490566" fill="#ff0066a0"/>
  <circle cx="7.78935" cy="-10.1583" r="1" fill="#803dc1a0"/>
  <circle cx="-4.82176" cy="11.1115" r="0.490566" fill="#ff0066a0"/>
  <circle cx="-4.04219" cy="11.5616" r="0.409604" fill="#aa0087a0"/>
  <circle cx="-3.22299" cy="11.5616" r="0.409604" fill="#aa0087a0"/>
  <circle cx="-7.99156" cy="-9.28145" r="0.409604" fill="#ff8080a0"/>
  <circle cx="-12.0338" cy="2.28017" r="0.409604" fill="#aa0087a0"/>
  <circle cx="-2.25971" cy="12.5907" r="1" fill="#803dc1a0"/>
  <circle cx="7.99156" cy="9.28145" r="0.409604" fill="#ff8080a0"/>
  <circle cx="-10.9659" cy="5.51753" r="0.409604" fill="#aa0087a0"/>
  <circle cx="-10.5563" cy="6.22698" r="0.409604" fill="#ff8080a0"/>
  <circle cx="-6.0918" cy="-10.6654" r="0.490566" fill="#ff0066a0"/>
  <circle cx="-5.31223" cy="-11.1154" r="0.409604" fill="#ff8080a0"/>
  <circle cx="-8.34302" cy="9.83859" r="1" fill="#803dc1a0"/>
  <circle cx="2.30342" cy="-11.8054" r="0.490566" fill="#ff0066a0"/>
  <circle cx="1.52385" cy="-12.2555" r="0.409604" fill="#ff8080a0"/>
  <circle cx="0.704642" cy="-12.2555" r="0.409604" fill="#aa0087a0"/>
  <circle cx="3.26262" cy="-12.0117" r="0.490566" fill="#ff0066a0"/>
  <circle cx="4.04219" cy="-11.5616" r="0.409604" fill="#aa0087a0"/>
  <circle cx="-11.7514" cy="-3.74447" r="0.490566" fill="#ff0066a0"/>
  <circle cx="12.0338" cy="-2.28017" r="0.409604" fill="#ff8080a0"/>
  <circle cx="12.4434" cy="-3.62895" r="1" fill="#803dc1a0"/>
  <circle cx="-6.97014" cy="10.1583" r="0.409604" fill="#aa0087a0"/>
  <circle cx="11.0805" cy="5.83783" r="0.490566" fill="#ff0066a0"/>
  <circle cx="-0.295039" cy="12.965" r="1" fill="#803dc1a0"/>
  <circle cx="-7.58196" cy="-10.6302" r="1" fill="#803dc1a0"/>
  <circle cx="4.8614" cy="-11.5616" r="0.409604" fill="#ff8080a0"/>
  <circle cx="12.4434" cy="-0.670543" r="0.490566" fill="#ff0066a0"/>
  <circle cx="12.4434" cy="-1.57071" r="0.409604" fill="#aa0087a0"/>
  <circle cx="5.72184" cy="11.8249" r="1" fill="#803dc1a0"/>
  <circle cx="11.7851" cy="-5.51753" r="1" fill="#803dc1a0"/>
  <circle cx="-12.9406" cy="-2.84577" r="1" fill="#803dc1a0"/>
  <circle cx="-0.258634" cy="-13.2846" r="1" fill="#803dc1a0"/>
  <circle cx="-5.78097" cy="11.3178" r="0.490566" fill="#ff0066a0"/>
  <circle cx="-6.56054" cy="10.8677" r="0.409604" fill="#ff8080a0"/>
  <circle cx="-10.9659" cy="7.57576" r="1" fill="#803dc1a0"/>
  <circle cx="-12.3388" cy="5.19786" r="1" fill="#803dc1a0"/>
  <circle cx="-4.90263" cy="-11.8249" r="0.409604" fill="#aa0087a0"/>
  <circle cx="-12.997" cy="3.30928" r="1" fill="#803dc1a0"/>
  <circle cx="-3.63259" cy="12.2711" r="0.409604" fill="#ff8080a0"/>
  <circle cx="11.1269" cy="-7.40611" r="1" fill="#803dc1a0"/>
  <circle cx="1.66963" cy="13.3392" r="1" fill="#803dc1a0"/>
  <circle cx="13.1016" cy="3.01543" r="1" fill="#803dc1a0"/>
  <circle cx="2.48713" cy="-13.2846" r="1" fill="#803dc1a0"/>
  <circle cx="9.89131" cy="7.89754" r="0.490566" fill="#ff0066a0"/>
  <circle cx="9.59034" cy="8.83137" r="0.490566" fill="#ff0066a0"/>
  <circle cx="8.81077" cy="9.28145" r="0.409604" fill="#aa0087a0"/>
  <circle cx="12.692" cy="1.66665" r="0.409604" fill="#ff8080a0"/>
  <circle cx="-5.00547" cy="12.5907" r="1" fill="#803dc1a0"/>
  <circle cx="9.93773" cy="-8.3048" r="0.490566" fill="#ff0066a0"/>
  <circle cx="10.6709" cy="7.44746" r="0.409604" fill="#ff8080a0"/>
  <circle cx="11.0805" cy="6.738" r="0.409604" fill="#aa0087a0"/>
  <circle cx="8.40116" cy="9.99091" r="0.409604" fill="#ff8080a0"/>
  <circle cx="-8.77113" cy="-9.73154" r="0.490566" fill="#ff0066a0"/>
  <circle cx="4.4518" cy="-12.9104" r="1" fill="#803dc1a0"/>
  <circle cx="12.853" cy="-2.28017" r="0.409604" fill="#aa0087a0"/>
  <circle cx="-12.8133" cy="1.83008" r="0.490566" fill="#ff0066a0"/>
  <circle cx="-13.5888" cy="0.557138" r="1" fill="#803dc1a0"/>
  <circle cx="-11.3755" cy="6.22698" r="0.409604" fill="#aa0087a0"/>
  <circle cx="1.11425" cy="-12.965" r="0.409604" fill="#aa0087a0"/>
  <circle cx="-7.37975" cy="10.8677" r="0.409604" fill="#ff8080a0"/>
  <circle cx="-6.27551" cy="-12.1446" r="1" fill="#803dc1a0"/>
  <circle cx="13.1016" cy="0.0570246" r="0.490566" fill="#ff0066a0"/>
  <circle cx="13.1016" cy="0.957194" r="0.409604" fill="#aa0087a0"/>
  <circle cx="3.04251" cy="12.7587" r="0.490566" fill="#ff0066a0"/>
  <circle cx="9.75402" cy="-9.784" r="1" fill="#803dc1a0"/>
  <circle cx="-12.531" cy="-4.19455" r="0.409604" fill="#aa0087a0"/>
  <circle cx="-2.22331" cy="-13.6589" r="1" fill="#803dc1a0"/>
  <circle cx="13.8162" cy="-1.25105" r="1" fill="#803dc1a0"/>
  <circle cx="5.64097" cy="-12.0117" r="0.490566" fill="#ff0066a0"/>
  <circle cx="-10.3077" cy="9.46434" r="1" fill="#803dc1a0"/>
  <circle cx="12.4534" cy="6.41834" r="1" fill="#803dc1a0"/>
  <circle cx="7.13112" cy="-12.0468" r="1" fill="#803dc1a0"/>
  <circle cx="4.41539" cy="13.3392" r="1" fill="#803dc1a0"/>
  <circle cx="-6.97014" cy="12.2165" r="1" fill="#803dc1a0"/>
  <circle cx="11.0805" cy="8.79624" r="1" fill="#803dc1a0"/>
  <circle cx="-10.9195" cy="-8.62658" r="1" fill="#803dc1a0"/>
  <circle cx="-9.73033" cy="-9.52528" r="0.490566" fill="#ff0066a0"/>
  <circle cx="9.77404" cy="10.3106" r="1" fill="#803dc1a0"/>
  <circle cx="-3.63259" cy="13.1712" r="0.490566" fill="#ff0066a0"/>
  <circle cx="13.5112" cy="1.66665" r="0.409604" fill="#ff8080a0"/>
  <circle cx="-4.90263" cy="-12.7251" r="0.490566" fill="#ff0066a0"/>
  <circle cx="-12.226" cy="-7.11225" r="1" fill="#803dc1a0"/>
  <circle cx="-14.247" cy="-1.33144" r="1" fill="#803dc1a0"/>
  <circle cx="11.4901" cy="7.44746" r="0.409604" fill="#aa0087a0"/>
  <circle cx="-12.1551" cy="6.67707" r="0.490566" fill="#ff0066a0"/>
  <circle cx="1.11425" cy="-13.8652" r="0.490566" fill="#ff0066a0"/>
  <circle cx="-13.7725" cy="2.03634" r="0.490566" fill="#ff0066a0"/>
  <circle cx="10.7173" cy="-8.75489" r="0.409604" fill="#aa0087a0"/>
  <circle cx="8.40116" cy="10.8911" r="0.490566" fill="#ff0066a0"/>
  <circle cx="13.6325" cy="-2.73025" r="0.490566" fill="#ff0066a0"/>
  <circle cx="7.68651" cy="12.1992" r="1" fill="#803dc1a0"/>
  <circle cx="14.4745" cy="0.637531" r="1" fill="#803dc1a0"/>
  <circle cx="-8.15932" cy="11.3178" r="0.490566" fill="#ff0066a0"/>
  <circle cx="-9.54663" cy="-11.0045" r="1" fill="#803dc1a0"/>
  <circle cx="3.04251" cy="13.6589" r="0.409604" fill="#aa0087a0"/>
  <circle cx="-12.9406" cy="-4.90401" r="0.409604" fill="#aa0087a0"/>
  <circle cx="-13.3502" cy="-4.19455" r="0.409604" fill="#ff8080a0"/>
  <circle cx="13.7598" cy="4.90401" r="1" fill="#803dc1a0"/>
  <circle cx="-4.18798" cy="-14.0331" r="1" fill="#803dc1a0"/>
  <circle cx="-12.9406" cy="-5.80418" r="0.490566" fill="#ff0066a0"/>
  <circle cx="5.94195" cy="-12.9455" r="0.490566" fill="#ff0066a0"/>
  <circle cx="-1.60148" cy="14.4793" r="1" fill="#803dc1a0"/>
  <circle cx="-2.97436" cy="13.8988" r="0.490566" fill="#ff0066a0"/>
  <circle cx="9.09579" cy="-11.6726" r="1" fill="#803dc1a0"/>
  <circle cx="-9.64947" cy="11.3529" r="1" fill="#803dc1a0"/>
  <circle cx="13.7498" cy="-5.14328" r="1" fill="#803dc1a0"/>
  <circle cx="13.9335" cy="-3.66408" r="0.490566" fill="#ff0066a0"/>
  <circle cx="0.363189" cy="14.8536" r="1" fill="#803dc1a0"/>
  <circle cx="13.0916" cy="-7.03186" r="1" fill="#803dc1a0"/>
  <circle cx="14.2908" cy="2.11673" r="0.490566" fill="#ff0066a0"/>
  <circle cx="-8.24018" cy="-12.5188" r="1" fill="#803dc1a0"/>
  <circle cx="12.2697" cy="7.89754" r="0.490566" fill="#ff0066a0"/>
  <circle cx="-10.5099" cy="-9.97536" r="0.409604" fill="#aa0087a0"/>
  <circle cx="-5.56086" cy="-13.4526" r="0.490566" fill="#ff0066a0"/>
  <circle cx="6.38007" cy="13.7135" r="1" fill="#803dc1a0"/>
  <circle cx="-4.34724" cy="14.4793" r="1" fill="#803dc1a0"/>
  <circle cx="9.05939" cy="11.6186" r="0.490566" fill="#ff0066a0"/>
  <circle cx="11.5365" cy="-8.75489" r="0.409604" fill="#ff8080a0"/>
  <circle cx="11.1269" cy="-9.46434" r="0.409604" fill="#aa0087a0"/>
  <circle cx="-14.3135" cy="-5.22367" r="1" fill="#803dc1a0"/>
  <circle cx="-14.4308" cy="-2.81064" r="0.490566" fill="#ff0066a0"/>
  <circle cx="-14.1298" cy="-3.74447" r="0.490566" fill="#ff0066a0"/>
  <circle cx="0.456018" cy="-14.5927" r="0.490566" fill="#ff0066a0"/>
  <circle cx="-0.916861" cy="-15.1732" r="1" fill="#803dc1a0"/>
  <circle cx="-12.4561" cy="7.61089" r="0.490566" fill="#ff0066a0"/>
  <circle cx="-12.2724" cy="9.09009" r="1" fill="#803dc1a0"/>
  <circle cx="-13.6452" cy="6.7122" r="1" fill="#803dc1a0"/>
  <circle cx="12.3161" cy="-8.3048" r="0.490566" fill="#ff0066a0"/>
  <circle cx="-14.3035" cy="4.82362" r="1" fill="#803dc1a0"/>
  <circle cx="15.1227" cy="-2.76538" r="1" fill="#803dc1a0"/>
  <circle cx="1.8289" cy="-15.1732" r="1" fill="#803dc1a0"/>
  <circle cx="2.63291" cy="14.3684" r="0.409604" fill="#ff8080a0"/>
  <circle cx="3.45212" cy="14.3684" r="0.409604" fill="#ff8080a0"/>
  <circle cx="-14.9617" cy="2.93504" r="1" fill="#803dc1a0"/>
  <circle cx="-14.5521" cy="1.58626" r="0.409604" fill="#aa0087a0"/>
  <circle cx="-8.46029" cy="12.2516" r="0.490566" fill="#ff0066a0"/>
  <circle cx="1.85334" cy="14.8184" r="0.490566" fill="#ff0066a0"/>
  <circle cx="15.0663" cy="3.38968" r="1" fill="#803dc1a0"/>
  <circle cx="3.79357" cy="-14.799" r="1" fill="#803dc1a0"/>
  <circle cx="-6.31192" cy="14.1051" r="1" fill="#803dc1a0"/>
  <circle cx="-14.9617" cy="-0.0233682" r="0.490566" fill="#ff0066a0"/>
  <circle cx="-14.9617" cy="0.876801" r="0.409604" fill="#ff8080a0"/>
  <circle cx="5.75824" cy="-14.4247" r="1" fill="#803dc1a0"/>
  <circle cx="-6.93374" cy="-14.0331" r="1" fill="#803dc1a0"/>
  <circle cx="-13.5988" cy="-6.53175" r="0.490566" fill="#ff0066a0"/>
  <circle cx="-2.97436" cy="14.799" r="0.409604" fill="#aa0087a0"/>
  <circle cx="6.72152" cy="-13.3956" r="0.409604" fill="#aa0087a0"/>
  <circle cx="10.4687" cy="-11.0921" r="0.490566" fill="#ff0066a0"/>
  <circle cx="11.1269" cy="-10.3645" r="0.490566" fill="#ff0066a0"/>
  <circle cx="-2.88153" cy="-15.5475" r="1" fill="#803dc1a0"/>
  <circle cx="15.7809" cy="-0.876801" r="1" fill="#803dc1a0"/>
  <circle cx="12.4998" cy="-9.784" r="1" fill="#803dc1a0"/>
  <circle cx="14.7131" cy="-4.11416" r="0.409604" fill="#aa0087a0"/>
  <circle cx="-11.3291" cy="-9.97536" r="0.409604" fill="#aa0087a0"/>
  <circle cx="-10.9195" cy="-10.6848" r="0.409604" fill="#ff8080a0"/>
  <circle cx="-12.4097" cy="-8.59145" r="0.490566" fill="#ff0066a0"/>
  <circle cx="-12.1087" cy="-9.52528" r="0.490566" fill="#ff0066a0"/>
  <circle cx="15.25" cy="1.91047" r="0.490566" fill="#ff0066a0"/>
  <circle cx="-11.6141" cy="10.9787" r="1" fill="#803dc1a0"/>
  <circle cx="8.3203" cy="-12.9455" r="0.490566" fill="#ff0066a0"/>
  <circle cx="7.54073" cy="-13.3956" r="0.409604" fill="#ff8080a0"/>
  <circle cx="14.418" cy="6.79259" r="1" fill="#803dc1a0"/>
  <circle cx="13.2289" cy="7.69128" r="0.490566" fill="#ff0066a0"/>
  <circle cx="3.04251" cy="15.7171" r="1" fill="#803dc1a0"/>
  <circle cx="-5.56086" cy="-14.3528" r="0.409604" fill="#ff8080a0"/>
  <circle cx="-15.3713" cy="1.58626" r="0.409604" fill="#aa0087a0"/>
  <circle cx="5.19089" cy="14.6122" r="0.490566" fill="#ff0066a0"/>
  <circle cx="4.23169" cy="14.8184" r="0.490566" fill="#ff0066a0"/>
  <circle cx="-8.27659" cy="13.7308" r="1" fill="#803dc1a0"/>
  <circle cx="13.0452" cy="9.17049" r="1" fill="#803dc1a0"/>
  <circle cx="-13.2356" cy="8.06098" r="0.409604" fill="#ff8080a0"/>
  <circle cx="0.456018" cy="-15.4929" r="0.409604" fill="#ff8080a0"/>
  <circle cx="-15.6199" cy="-3.70934" r="1" fill="#803dc1a0"/>
  </g>
</svg>
