<?xml version="1.0" encoding="UTF-8" standalone="no"?>
<svg viewBox="-13.864 -13.864 27.728 27.728" xmlns="http://www.w3.org/2000/svg">
  <rect x="-13.864" y="-13.864" width="27.728" height="27.728" fill="white"/>
  <g transform="scale(1, -1)">
  <circle cx="0" cy="0" r="0.413905" fill="#ff8080a0"/>
  <circle cx="1.07736" cy="0" r="0.663456" fill="#aa0087a0"/>
  <circle cx="0.318032" cy="0.764281" r="0.413905" fill="#ff8080a0"/>
  <circle cx="0.182274" cy="-1.40211" r="1" fill="#803dc1a0"/>
  <circle cx="-0.502871" cy="0.657564" r="0.413905" fill="#ff8080a0"/>
  <circle cx="-1.04155" cy="-0.275458" r="0.663456" fill="#aa0087a0"/>
  <circle cx="1.44116" cy="1.62319" r="1" fill="#803dc1a0"/>
  <circle cx="-0.220649" cy="1.6973" r="0.663456" fill="#aa0087a0"/>
  <circle cx="-1.80827" cy="1.20076" r="1" fill="#803dc1a0"/>
  <circle cx="1.97712" cy="-1.16706" r="0.810174" fill="#ff0066a0"/>
  <circle cx="2.38045" cy="0.250305" r="0.663456" fill="#aa0087a0"/>
  <circle cx="-1.47633" cy="-1.52912" r="0.663456" fill="#aa0087a0"/>
  <circle cx="-2.50213" cy="-0.471146" r="0.810174" fill="#ff0066a0"/>
  <circle cx="0.34017" cy="3.06005" r="0.810174" fill="#ff0066a0"/>
  <circle cx="-1.08897" cy="2.70066" r="0.663456" fill="#aa0087a0"/>
  <circle cx="1.4462" cy="-2.69795" r="0.810174" fill="#ff0066a0"/>
  <circle cx="-0.828965" cy="-2.3903" r="0.413905" fill="#ff8080a0"/>
  <circle cx="0.0170654" cy="-3.05734" r="0.663456" fill="#aa0087a0"/>
  <circle cx="-2.9924" cy="-2.21366" r="1" fill="#803dc1a0"/>
  <circle cx="-1.63098" cy="-2.59532" r="0.413905" fill="#ff8080a0"/>
  <circle cx="-1.05242" cy="-3.18738" r="0.413905" fill="#ff8080a0"/>
  <circle cx="3.73132" cy="-0.720385" r="1" fill="#803dc1a0"/>
  <circle cx="2.80257" cy="1.24153" r="0.413905" fill="#ff8080a0"/>
  <circle cx="3.38114" cy="0.649469" r="0.413905" fill="#ff8080a0"/>
  <circle cx="3.03746" cy="-2.3923" r="0.810174" fill="#ff0066a0"/>
  <circle cx="2.95723" cy="2.30773" r="0.663456" fill="#aa0087a0"/>
  <circle cx="1.93143" cy="3.3657" r="0.810174" fill="#ff0066a0"/>
  <circle cx="-3.56247" cy="0.754094" r="0.810174" fill="#ff0066a0"/>
  <circle cx="-2.15845" cy="2.57062" r="0.413905" fill="#ff8080a0"/>
  <circle cx="-3.15914" cy="2.17145" r="0.663456" fill="#aa0087a0"/>
  <circle cx="-4.09339" cy="-0.776804" r="0.810174" fill="#ff0066a0"/>
  <circle cx="-2.05311" cy="-3.58655" r="0.663456" fill="#aa0087a0"/>
  <circle cx="3.60459" cy="1.44655" r="0.413905" fill="#ff8080a0"/>
  <circle cx="-0.923757" cy="4.35589" r="1" fill="#803dc1a0"/>
  <circle cx="-1.935" cy="3.3677" r="0.413905" fill="#ff8080a0"/>
  <circle cx="0.885381" cy="-4.0607" r="0.663456" fill="#aa0087a0"/>
  <circle cx="-0.702238" cy="-4.55724" r="1" fill="#803dc1a0"/>
  <circle cx="-2.73701" cy="3.16268" r="0.413905" fill="#ff8080a0"/>
  <circle cx="4.45062" cy="0.779511" r="0.663456" fill="#aa0087a0"/>
  <circle cx="2.54719" cy="-4.13481" r="1" fill="#803dc1a0"/>
  <circle cx="0.871091" cy="4.59094" r="0.810174" fill="#ff0066a0"/>
  <circle cx="-2.58236" cy="4.22888" r="0.663456" fill="#aa0087a0"/>
  <circle cx="4.61583" cy="2.43474" r="1" fill="#803dc1a0"/>
  <circle cx="3.39201" cy="3.56139" r="0.663456" fill="#aa0087a0"/>
  <circle cx="-4.46223" cy="1.92115" r="0.663456" fill="#aa0087a0"/>
  <circle cx="-5.35732" cy="0.519042" r="1" fill="#803dc1a0"/>
  <circle cx="-4.09843" cy="3.54434" r="1" fill="#803dc1a0"/>
  <circle cx="4.49804" cy="-2.19661" r="0.663456" fill="#aa0087a0"/>
  <circle cx="4.06326" cy="-3.45027" r="0.663456" fill="#aa0087a0"/>
  <circle cx="2.62529" cy="5.03761" r="1" fill="#803dc1a0"/>
  <circle cx="-4.65421" cy="-2.13955" r="0.663456" fill="#aa0087a0"/>
  <circle cx="-3.3562" cy="-3.83685" r="0.663456" fill="#aa0087a0"/>
  <circle cx="-4.11553" cy="-3.07257" r="0.413905" fill="#ff8080a0"/>
  <circle cx="-2.45644" cy="-5.00391" r="0.810174" fill="#ff0066a0"/>
  <circle cx="5.31894" cy="-0.223846" r="0.663456" fill="#aa0087a0"/>
  <circle cx="5.03672" cy="-1.26359" r="0.413905" fill="#ff8080a0"/>
  <circle cx="0.603159" cy="-5.10044" r="0.413905" fill="#ff8080a0"/>
  <circle cx="1.42406" cy="-4.99372" r="0.413905" fill="#ff8080a0"/>
  <circle cx="-5.52252" cy="-1.13619" r="0.663456" fill="#aa0087a0"/>
  <circle cx="5.87976" cy="1.1389" r="0.810174" fill="#ff0066a0"/>
  <circle cx="-0.0286688" cy="5.758" r="0.663456" fill="#aa0087a0"/>
  <circle cx="-2.14758" cy="5.48254" r="0.663456" fill="#aa0087a0"/>
  <circle cx="-1.10603" cy="5.758" r="0.413905" fill="#ff8080a0"/>
  <circle cx="1.27442" cy="6.00831" r="0.663456" fill="#aa0087a0"/>
  <circle cx="-5.53959" cy="1.92115" r="0.413905" fill="#ff8080a0"/>
  <circle cx="-5.22156" cy="2.68543" r="0.413905" fill="#ff8080a0"/>
  <circle cx="-4.93643" cy="-3.17929" r="0.413905" fill="#ff8080a0"/>
  <circle cx="-4.43356" cy="-3.83685" r="0.413905" fill="#ff8080a0"/>
  <circle cx="0.0644783" cy="-6.03346" r="0.663456" fill="#aa0087a0"/>
  <circle cx="1.10603" cy="-5.758" r="0.413905" fill="#ff8080a0"/>
  <circle cx="4.43356" cy="3.83685" r="0.413905" fill="#ff8080a0"/>
  <circle cx="3.93069" cy="4.49441" r="0.413905" fill="#ff8080a0"/>
  <circle cx="5.53959" cy="-1.92115" r="0.413905" fill="#ff8080a0"/>
  <circle cx="5.85762" cy="-1.15687" r="0.413905" fill="#ff8080a0"/>
  <circle cx="2.18339" cy="-5.758" r="0.663456" fill="#aa0087a0"/>
  <circle cx="-1.3961" cy="-6.22915" r="0.810174" fill="#ff0066a0"/>
  <circle cx="-3.60816" cy="5.28685" r="0.810174" fill="#ff0066a0"/>
  <circle cx="5.72186" cy="-3.32326" r="1" fill="#803dc1a0"/>
  <circle cx="-4.25129" cy="-5.23896" r="1" fill="#803dc1a0"/>
  <circle cx="-6.24183" cy="-2.63609" r="1" fill="#803dc1a0"/>
  <circle cx="3.90861" cy="-4.51647" r="0.413905" fill="#ff8080a0"/>
  <circle cx="3.48648" cy="-5.50769" r="0.663456" fill="#aa0087a0"/>
  <circle cx="6.98074" cy="-0.297961" r="1" fill="#803dc1a0"/>
  <circle cx="4.71062" cy="-4.31145" r="0.413905" fill="#ff8080a0"/>
  <circle cx="6.41068" cy="2.6698" r="0.810174" fill="#ff0066a0"/>
  <circle cx="5.51092" cy="3.83685" r="0.663456" fill="#aa0087a0"/>
  <circle cx="-5.47511" cy="-4.11231" r="0.663456" fill="#aa0087a0"/>
  <circle cx="6.61695" cy="-1.92115" r="0.663456" fill="#aa0087a0"/>
  <circle cx="-0.787999" cy="6.52228" r="0.413905" fill="#ff8080a0"/>
  <circle cx="-1.6089" cy="6.41556" r="0.413905" fill="#ff8080a0"/>
  <circle cx="1.2883" cy="-7.16011" r="1" fill="#803dc1a0"/>
  <circle cx="4.75159" cy="4.60113" r="0.413905" fill="#ff8080a0"/>
  <circle cx="-6.58114" cy="1.64569" r="0.663456" fill="#aa0087a0"/>
  <circle cx="-6.04246" cy="2.57871" r="0.413905" fill="#ff8080a0"/>
  <circle cx="-5.76024" cy="3.61845" r="0.663456" fill="#aa0087a0"/>
  <circle cx="-6.36855" cy="-0.469151" r="0.413905" fill="#ff8080a0"/>
  <circle cx="-6.59201" cy="-1.26623" r="0.413905" fill="#ff8080a0"/>
  <circle cx="-7.01592" cy="0.392029" r="0.663456" fill="#aa0087a0"/>
  <circle cx="-2.98736" cy="-6.5348" r="0.810174" fill="#ff0066a0"/>
  <circle cx="4.21291" cy="5.53415" r="0.663456" fill="#aa0087a0"/>
  <circle cx="4.48717" cy="-5.10853" r="0.413905" fill="#ff8080a0"/>
  <circle cx="-5.19942" cy="4.9812" r="0.810174" fill="#ff0066a0"/>
  <circle cx="0.335125" cy="7.38119" r="1" fill="#803dc1a0"/>
  <circle cx="-2.9143" cy="6.95876" r="1" fill="#803dc1a0"/>
  <circle cx="2.27511" cy="6.40747" r="0.413905" fill="#ff8080a0"/>
  <circle cx="3.34459" cy="6.53751" r="0.663456" fill="#aa0087a0"/>
  <circle cx="-0.370296" cy="-7.28712" r="0.663456" fill="#aa0087a0"/>
  <circle cx="7.47102" cy="1.44456" r="0.810174" fill="#ff0066a0"/>
  <circle cx="-7.17057" cy="-0.674174" r="0.413905" fill="#ff8080a0"/>
  <circle cx="5.55666" cy="-4.97849" r="0.663456" fill="#aa0087a0"/>
  <circle cx="1.69654" cy="6.99953" r="0.413905" fill="#ff8080a0"/>
  <circle cx="3.08315" cy="-6.92506" r="0.810174" fill="#ff0066a0"/>
  <circle cx="-1.32668" cy="7.4553" r="0.663456" fill="#aa0087a0"/>
  <circle cx="-7.34786" cy="3.12191" r="1" fill="#803dc1a0"/>
  <circle cx="5.87471" cy="5.46004" r="1" fill="#803dc1a0"/>
  <circle cx="-7.5927" cy="-1.6654" r="0.663456" fill="#aa0087a0"/>
  <circle cx="4.83735" cy="-6.47839" r="1" fill="#803dc1a0"/>
  <circle cx="-1.88637" cy="-7.97166" r="1" fill="#803dc1a0"/>
  <circle cx="-4.6685" cy="6.51209" r="0.810174" fill="#ff0066a0"/>
  <circle cx="2.49856" cy="7.20455" r="0.413905" fill="#ff8080a0"/>
  <circle cx="6.81401" cy="4.08716" r="0.663456" fill="#aa0087a0"/>
  <circle cx="-8.04172" cy="1.45" r="0.810174" fill="#ff0066a0"/>
  <circle cx="-6.62855" cy="4.62181" r="0.663456" fill="#aa0087a0"/>
  <circle cx="-5.90989" cy="-5.36597" r="0.663456" fill="#aa0087a0"/>
  <circle cx="-6.93569" cy="-4.308" r="0.810174" fill="#ff0066a0"/>
  <circle cx="7.51671" cy="-3.0882" r="0.810174" fill="#ff0066a0"/>
  <circle cx="7.92004" cy="-1.67084" r="0.663456" fill="#aa0087a0"/>
  <circle cx="1.8512" cy="8.06573" r="0.663456" fill="#aa0087a0"/>
  <circle cx="-8.53199" cy="-0.292512" r="1" fill="#803dc1a0"/>
  <circle cx="6.98579" cy="-4.6191" r="0.810174" fill="#ff0066a0"/>
  <circle cx="4.77373" cy="6.8969" r="0.810174" fill="#ff0066a0"/>
  <circle cx="-4.41649" cy="-6.89419" r="0.663456" fill="#aa0087a0"/>
  <circle cx="-5.26252" cy="-6.22715" r="0.413905" fill="#ff8080a0"/>
  <circle cx="8.16488" cy="3.11647" r="1" fill="#803dc1a0"/>
  <circle cx="-7.99603" cy="-3.08276" r="0.810174" fill="#ff0066a0"/>
  <circle cx="0.277066" cy="-8.1483" r="0.413905" fill="#ff8080a0"/>
  <circle cx="-0.524954" cy="-8.35332" r="0.413905" fill="#ff8080a0"/>
  <circle cx="8.49682" cy="0.386581" r="0.663456" fill="#aa0087a0"/>
  <circle cx="8.34216" cy="-0.679622" r="0.413905" fill="#ff8080a0"/>
  <circle cx="-3.54818" cy="-7.89755" r="0.663456" fill="#aa0087a0"/>
  <circle cx="3.5098" cy="8.19274" r="1" fill="#803dc1a0"/>
  <circle cx="-6.46335" cy="6.27704" r="1" fill="#803dc1a0"/>
  <circle cx="6.42497" cy="-5.98185" r="0.663456" fill="#aa0087a0"/>
  <circle cx="-0.76586" cy="8.81805" r="0.810174" fill="#ff0066a0"/>
  <circle cx="-2.195" cy="8.45866" r="0.663456" fill="#aa0087a0"/>
  <circle cx="2.55223" cy="-8.45595" r="0.810174" fill="#ff0066a0"/>
  <circle cx="1.1231" cy="-8.81534" r="0.663456" fill="#aa0087a0"/>
  <circle cx="0.825397" cy="9.1237" r="0.810174" fill="#ff0066a0"/>
  <circle cx="4.14349" cy="-8.1503" r="0.810174" fill="#ff0066a0"/>
  <circle cx="8.9316" cy="1.64024" r="0.663456" fill="#aa0087a0"/>
  <circle cx="-8.89579" cy="-1.9157" r="0.663456" fill="#aa0087a0"/>
  <circle cx="-4.26517" cy="7.92945" r="0.663456" fill="#aa0087a0"/>
  <circle cx="-3.26448" cy="8.32862" r="0.413905" fill="#ff8080a0"/>
  <circle cx="-5.48598" cy="-7.02423" r="0.413905" fill="#ff8080a0"/>
  <circle cx="-6.06454" cy="-6.43217" r="0.413905" fill="#ff8080a0"/>
  <circle cx="0.0536114" cy="-8.94538" r="0.413905" fill="#ff8080a0"/>
  <circle cx="7.8147" cy="4.48632" r="0.413905" fill="#ff8080a0"/>
  <circle cx="7.23613" cy="5.07838" r="0.413905" fill="#ff8080a0"/>
  <circle cx="-7.42596" cy="-6.05051" r="1" fill="#803dc1a0"/>
  <circle cx="-7.69804" cy="4.49177" r="0.413905" fill="#ff8080a0"/>
  <circle cx="-7.47458" cy="5.28885" r="0.413905" fill="#ff8080a0"/>
  <circle cx="8.92073" cy="-1.27168" r="0.413905" fill="#ff8080a0"/>
  <circle cx="9.27091" cy="-2.64153" r="1" fill="#803dc1a0"/>
  <circle cx="-0.947077" cy="-9.34455" r="0.663456" fill="#aa0087a0"/>
  <circle cx="9.14418" cy="-0.474599" r="0.413905" fill="#ff8080a0"/>
  <circle cx="-5.56826" cy="7.67915" r="0.663456" fill="#aa0087a0"/>
  <circle cx="-5.1358" cy="-8.39409" r="1" fill="#803dc1a0"/>
  <circle cx="8.57705" cy="-4.31344" r="0.810174" fill="#ff0066a0"/>
  <circle cx="2.28598" cy="9.31939" r="0.663456" fill="#aa0087a0"/>
  <circle cx="-8.52695" cy="-4.61365" r="0.810174" fill="#ff0066a0"/>
  <circle cx="-9.10206" cy="2.67524" r="0.810174" fill="#ff0066a0"/>
  <circle cx="-9.63298" cy="1.14435" r="0.810174" fill="#ff0066a0"/>
  <circle cx="-8.69873" cy="4.0926" r="0.663456" fill="#aa0087a0"/>
  <circle cx="6.36499" cy="7.20256" r="0.810174" fill="#ff0066a0"/>
  <circle cx="7.39079" cy="6.14458" r="0.663456" fill="#aa0087a0"/>
  <circle cx="5.60407" cy="-7.95461" r="0.663456" fill="#aa0087a0"/>
  <circle cx="6.14275" cy="-7.02159" r="0.413905" fill="#ff8080a0"/>
  <circle cx="10.1554" cy="0.513594" r="1" fill="#803dc1a0"/>
  <circle cx="8.08678" cy="-6.05596" r="1" fill="#803dc1a0"/>
  <circle cx="-3.0095" cy="-8.83057" r="0.413905" fill="#ff8080a0"/>
  <circle cx="-2.25017" cy="-9.59485" r="0.663456" fill="#aa0087a0"/>
  <circle cx="5.30465" cy="8.4278" r="0.810174" fill="#ff0066a0"/>
  <circle cx="-6.48667" cy="-7.4234" r="0.663456" fill="#aa0087a0"/>
  <circle cx="8.03815" cy="5.2834" r="0.413905" fill="#ff8080a0"/>
  <circle cx="-3.8304" cy="-8.93729" r="0.413905" fill="#ff8080a0"/>
  <circle cx="-8.2766" cy="5.08383" r="0.413905" fill="#ff8080a0"/>
  <circle cx="0.403792" cy="-10.3152" r="1" fill="#803dc1a0"/>
  <circle cx="-3.04103" cy="9.1257" r="0.413905" fill="#ff8080a0"/>
  <circle cx="-3.84305" cy="8.92068" r="0.413905" fill="#ff8080a0"/>
  <circle cx="-9.79088" cy="-3.31781" r="1" fill="#803dc1a0"/>
  <circle cx="-2.02979" cy="10.1139" r="1" fill="#803dc1a0"/>
  <circle cx="9.99021" cy="-1.14164" r="0.663456" fill="#aa0087a0"/>
  <circle cx="8.88418" cy="4.61636" r="0.663456" fill="#aa0087a0"/>
  <circle cx="6.96365" cy="-6.91487" r="0.413905" fill="#ff8080a0"/>
  <circle cx="-9.65512" cy="-1.15142" r="0.413905" fill="#ff8080a0"/>
  <circle cx="-10.1938" cy="-0.218397" r="0.663456" fill="#aa0087a0"/>
  <circle cx="1.99141" cy="-9.8187" r="0.663456" fill="#aa0087a0"/>
  <circle cx="-8.12195" cy="6.15003" r="0.663456" fill="#aa0087a0"/>
  <circle cx="3.65322" cy="-9.89281" r="1" fill="#803dc1a0"/>
  <circle cx="-0.234939" cy="10.3489" r="0.810174" fill="#ff0066a0"/>
  <circle cx="-5.20446" cy="9.30234" r="1" fill="#803dc1a0"/>
  <circle cx="9.47028" cy="2.57327" r="0.413905" fill="#ff8080a0"/>
  <circle cx="9.7525" cy="3.61301" r="0.663456" fill="#aa0087a0"/>
  <circle cx="-3.32753" cy="-9.59485" r="0.413905" fill="#ff8080a0"/>
  <circle cx="6.64562" cy="-7.67915" r="0.413905" fill="#ff8080a0"/>
  <circle cx="9.97315" cy="1.9157" r="0.413905" fill="#ff8080a0"/>
  <circle cx="-9.97315" cy="-1.9157" r="0.413905" fill="#ff8080a0"/>
  <circle cx="3.32753" cy="9.59485" r="0.413905" fill="#ff8080a0"/>
  <circle cx="4.40489" cy="9.59485" r="0.663456" fill="#aa0087a0"/>
  <circle cx="5.16929" cy="-9.20827" r="0.663456" fill="#aa0087a0"/>
  <circle cx="1.51926" cy="10.7956" r="1" fill="#803dc1a0"/>
  <circle cx="-6.64562" cy="7.67915" r="0.413905" fill="#ff8080a0"/>
  <circle cx="-7.68717" cy="7.40369" r="0.663456" fill="#aa0087a0"/>
  <circle cx="-3.68839" cy="9.98688" r="0.663456" fill="#aa0087a0"/>
  <circle cx="9.04939" cy="6.27159" r="1" fill="#803dc1a0"/>
  <circle cx="-1.35041" cy="-10.7619" r="0.810174" fill="#ff0066a0"/>
  <circle cx="-9.63802" cy="5.46549" r="1" fill="#803dc1a0"/>
  <circle cx="-4.36908" cy="-9.87031" r="0.663456" fill="#aa0087a0"/>
  <circle cx="-10.476" cy="-1.25814" r="0.413905" fill="#ff8080a0"/>
  <circle cx="-6.32759" cy="8.44343" r="0.413905" fill="#ff8080a0"/>
  <circle cx="7.72298" cy="-7.67915" r="0.663456" fill="#aa0087a0"/>
  <circle cx="10.2912" cy="2.67998" r="0.413905" fill="#ff8080a0"/>
  <circle cx="2.82466" cy="10.2524" r="0.413905" fill="#ff8080a0"/>
  <circle cx="7.82557" cy="7.39824" r="0.663456" fill="#aa0087a0"/>
  <circle cx="-10.0018" cy="3.8423" r="0.663456" fill="#aa0087a0"/>
  <circle cx="-10.8969" cy="2.44019" r="1" fill="#803dc1a0"/>
  <circle cx="6.82789" cy="-9.08126" r="1" fill="#803dc1a0"/>
  <circle cx="10.0376" cy="-4.11776" r="0.663456" fill="#aa0087a0"/>
  <circle cx="9.60285" cy="-5.37142" r="0.663456" fill="#aa0087a0"/>
  <circle cx="7.05885" cy="8.87447" r="1" fill="#803dc1a0"/>
  <circle cx="-9.08777" cy="-5.9764" r="0.663456" fill="#aa0087a0"/>
  <circle cx="-9.95608" cy="-4.97304" r="0.663456" fill="#aa0087a0"/>
  <circle cx="-11.0621" cy="0.78496" r="0.663456" fill="#aa0087a0"/>
  <circle cx="-3.14526" cy="-10.997" r="1" fill="#803dc1a0"/>
  <circle cx="-7.78976" cy="-7.6737" r="0.663456" fill="#aa0087a0"/>
  <circle cx="-6.89" cy="-8.84076" r="0.810174" fill="#ff0066a0"/>
  <circle cx="-7.14849" cy="8.33671" r="0.413905" fill="#ff8080a0"/>
  <circle cx="3.64556" cy="10.3591" r="0.413905" fill="#ff8080a0"/>
  <circle cx="-11.0147" cy="-2.19116" r="0.663456" fill="#aa0087a0"/>
  <circle cx="11.0505" cy="1.9157" r="0.663456" fill="#aa0087a0"/>
  <circle cx="-8.54909" cy="-6.90942" r="0.413905" fill="#ff8080a0"/>
  <circle cx="10.5763" cy="-3.18473" r="0.413905" fill="#ff8080a0"/>
  <circle cx="10.8585" cy="-2.145" r="0.663456" fill="#aa0087a0"/>
  <circle cx="10.3133" cy="4.97575" r="0.810174" fill="#ff0066a0"/>
  <circle cx="2.53009" cy="-10.7517" r="0.413905" fill="#ff8080a0"/>
  <circle cx="1.70919" cy="-10.8584" r="0.413905" fill="#ff8080a0"/>
  <circle cx="11.4193" cy="-0.782252" r="0.810174" fill="#ff0066a0"/>
  <circle cx="5.70798" cy="9.84516" r="0.663456" fill="#aa0087a0"/>
  <circle cx="-5.82966" cy="-10.066" r="0.810174" fill="#ff0066a0"/>
  <circle cx="-9.14775" cy="7.208" r="0.810174" fill="#ff0066a0"/>
  <circle cx="-11.7814" cy="-0.714937" r="1" fill="#803dc1a0"/>
  <circle cx="-6.86627" cy="9.37645" r="0.663456" fill="#aa0087a0"/>
  <circle cx="11.4143" cy="3.53889" r="1" fill="#803dc1a0"/>
  <circle cx="3.10688" cy="11.2922" r="0.663456" fill="#aa0087a0"/>
  <circle cx="9.44819" cy="-6.43762" r="0.413905" fill="#ff8080a0"/>
  <circle cx="9.02607" cy="-7.42884" r="0.663456" fill="#aa0087a0"/>
  <circle cx="-1.1347" cy="11.516" r="0.663456" fill="#aa0087a0"/>
  <circle cx="0.168391" cy="11.7663" r="0.663456" fill="#aa0087a0"/>
  <circle cx="11.9503" cy="0.748646" r="0.810174" fill="#ff0066a0"/>
  <circle cx="4.76868" cy="11.218" r="1" fill="#803dc1a0"/>
  <circle cx="5.01464" cy="-10.2745" r="0.413905" fill="#ff8080a0"/>
  <circle cx="5.81666" cy="-10.0694" r="0.413905" fill="#ff8080a0"/>
  <circle cx="-3.25361" cy="11.2405" r="0.663456" fill="#aa0087a0"/>
  <circle cx="-4.71419" cy="11.0449" r="0.810174" fill="#ff0066a0"/>
  <circle cx="-2.21206" cy="11.516" r="0.413905" fill="#ff8080a0"/>
  <circle cx="-0.290071" cy="-11.9871" r="0.810174" fill="#ff0066a0"/>
  <circle cx="1.17051" cy="-11.7915" r="0.663456" fill="#aa0087a0"/>
  <circle cx="-8.45389" cy="8.87991" r="1" fill="#803dc1a0"/>
  <circle cx="-10.8021" cy="-4.306" r="0.413905" fill="#ff8080a0"/>
  <circle cx="-11.4495" cy="-3.44482" r="0.663456" fill="#aa0087a0"/>
  <circle cx="-11.0792" cy="3.8423" r="0.413905" fill="#ff8080a0"/>
  <circle cx="-10.7611" cy="4.60658" r="0.413905" fill="#ff8080a0"/>
  <circle cx="-9.36999" cy="-7.01614" r="0.413905" fill="#ff8080a0"/>
  <circle cx="-8.86712" cy="-7.6737" r="0.413905" fill="#ff8080a0"/>
  <circle cx="2.21206" cy="-11.516" r="0.413905" fill="#ff8080a0"/>
  <circle cx="8.36425" cy="8.33127" r="0.413905" fill="#ff8080a0"/>
  <circle cx="8.86712" cy="7.6737" r="0.413905" fill="#ff8080a0"/>
  <circle cx="-4.80386" cy="-11.124" r="0.663456" fill="#aa0087a0"/>
  <circle cx="11.0792" cy="-3.8423" r="0.413905" fill="#ff8080a0"/>
  <circle cx="11.3972" cy="-3.07802" r="0.413905" fill="#ff8080a0"/>
  <circle cx="3.28942" cy="-11.516" r="0.663456" fill="#aa0087a0"/>
  <circle cx="11.2615" cy="-5.24441" r="1" fill="#803dc1a0"/>
  <circle cx="-10.6754" cy="-6.47294" r="1" fill="#803dc1a0"/>
  <circle cx="4.59251" cy="-11.2657" r="0.663456" fill="#aa0087a0"/>
  <circle cx="8.62274" cy="-8.8462" r="0.810174" fill="#ff0066a0"/>
  <circle cx="-8.68484" cy="-9.07581" r="1" fill="#803dc1a0"/>
  <circle cx="-1.88133" cy="-12.2928" r="0.810174" fill="#ff0066a0"/>
  <circle cx="-6.30545" cy="10.7392" r="0.810174" fill="#ff0066a0"/>
  <circle cx="10.2502" cy="-6.2326" r="0.413905" fill="#ff8080a0"/>
  <circle cx="12.5203" cy="-2.21911" r="1" fill="#803dc1a0"/>
  <circle cx="-11.9081" cy="1.452" r="0.413905" fill="#ff8080a0"/>
  <circle cx="-12.1316" cy="0.654918" r="0.413905" fill="#ff8080a0"/>
  <circle cx="-11.0256" cy="-5.10308" r="0.413905" fill="#ff8080a0"/>
  <circle cx="5.5932" cy="-10.8665" r="0.413905" fill="#ff8080a0"/>
  <circle cx="10.0268" cy="-7.02968" r="0.413905" fill="#ff8080a0"/>
  <circle cx="12.3536" cy="2.16601" r="0.663456" fill="#aa0087a0"/>
  <circle cx="-12.4753" cy="-2.38685" r="0.810174" fill="#ff0066a0"/>
  <circle cx="1.16908" cy="12.1655" r="0.413905" fill="#ff8080a0"/>
  <circle cx="2.23856" cy="12.2955" r="0.663456" fill="#aa0087a0"/>
  <circle cx="10.8442" cy="6.50665" r="0.810174" fill="#ff0066a0"/>
  <circle cx="9.94448" cy="7.6737" r="0.663456" fill="#aa0087a0"/>
  <circle cx="-7.42092" cy="-10.3717" r="0.810174" fill="#ff0066a0"/>
  <circle cx="6.66269" cy="-10.7365" r="0.663456" fill="#aa0087a0"/>
  <circle cx="-11.6041" cy="-4.51102" r="0.413905" fill="#ff8080a0"/>
  <circle cx="6.70867" cy="10.2443" r="0.413905" fill="#ff8080a0"/>
  <circle cx="6.1301" cy="10.8364" r="0.413905" fill="#ff8080a0"/>
  <circle cx="-10.739" cy="6.90235" r="0.810174" fill="#ff0066a0"/>
  <circle cx="-11.2998" cy="5.5396" r="0.663456" fill="#aa0087a0"/>
  <circle cx="-9.90867" cy="-7.94916" r="0.663456" fill="#aa0087a0"/>
  <circle cx="-11.5821" cy="4.49986" r="0.413905" fill="#ff8080a0"/>
  <circle cx="9.18515" cy="8.43798" r="0.413905" fill="#ff8080a0"/>
  <circle cx="12.1565" cy="-3.8423" r="0.663456" fill="#aa0087a0"/>
  <circle cx="-1.89403" cy="12.2803" r="0.413905" fill="#ff8080a0"/>
  <circle cx="-2.71493" cy="12.1736" r="0.413905" fill="#ff8080a0"/>
  <circle cx="-12.1207" cy="3.56684" r="0.663456" fill="#aa0087a0"/>
  <circle cx="2.39433" cy="-12.9181" r="1" fill="#803dc1a0"/>
  <circle cx="-12.5555" cy="2.31318" r="0.663456" fill="#aa0087a0"/>
  <circle cx="8.64647" cy="9.37101" r="0.663456" fill="#aa0087a0"/>
  <circle cx="-0.770906" cy="13.1392" r="1" fill="#803dc1a0"/>
  <circle cx="13.0106" cy="-0.476594" r="0.810174" fill="#ff0066a0"/>
  <circle cx="11.9046" cy="5.28141" r="0.810174" fill="#ff0066a0"/>
  <circle cx="-7.73459" cy="10.3798" r="0.663456" fill="#aa0087a0"/>
  <circle cx="7.77815" cy="10.3744" r="0.663456" fill="#aa0087a0"/>
  <circle cx="10.3769" cy="-8.39953" r="1" fill="#803dc1a0"/>
  <circle cx="8.09182" cy="-10.3771" r="0.810174" fill="#ff0066a0"/>
  <circle cx="-4.02033" cy="12.7168" r="1" fill="#803dc1a0"/>
  <circle cx="3.6677" cy="12.6549" r="0.810174" fill="#ff0066a0"/>
  <circle cx="11.0962" cy="-6.89964" r="0.663456" fill="#aa0087a0"/>
  <circle cx="-12.7102" cy="1.24698" r="0.413905" fill="#ff8080a0"/>
  <circle cx="0.590514" cy="12.7575" r="0.413905" fill="#ff8080a0"/>
  <circle cx="-3.31046" cy="-12.6522" r="0.663456" fill="#aa0087a0"/>
  <circle cx="-4.15649" cy="-11.9852" r="0.413905" fill="#ff8080a0"/>
  <circle cx="-6.31993" cy="-11.8085" r="1" fill="#803dc1a0"/>
  <circle cx="-10.2081" cy="8.43324" r="0.810174" fill="#ff0066a0"/>
  <circle cx="0.735734" cy="-13.0451" r="0.663456" fill="#aa0087a0"/>
  <circle cx="-12.0263" cy="-5.50225" r="0.663456" fill="#aa0087a0"/>
  <circle cx="-13.1323" cy="0.255754" r="0.663456" fill="#aa0087a0"/>
  <circle cx="-12.9656" cy="-4.12936" r="1" fill="#803dc1a0"/>
  <circle cx="5.94338" cy="-12.2364" r="1" fill="#803dc1a0"/>
  <circle cx="1.39253" cy="12.9626" r="0.413905" fill="#ff8080a0"/>
  <circle cx="4.18918" cy="-12.6831" r="0.810174" fill="#ff0066a0"/>
  <circle cx="6.93212" cy="11.0414" r="0.413905" fill="#ff8080a0"/>
  <circle cx="-4.95851" cy="-12.1902" r="0.413905" fill="#ff8080a0"/>
  <circle cx="13.7045" cy="1.19532" r="1" fill="#803dc1a0"/>
  <circle cx="-0.780343" cy="-13.7297" r="1" fill="#803dc1a0"/>
  <circle cx="-13.5356" cy="-1.16161" r="0.810174" fill="#ff0066a0"/>
  <circle cx="-5.77453" cy="12.2701" r="0.810174" fill="#ff0066a0"/>
  <circle cx="-2.43271" cy="13.2133" r="0.663456" fill="#aa0087a0"/>
  <circle cx="-12.8874" cy="5.04306" r="1" fill="#803dc1a0"/>
  <circle cx="6.28476" cy="11.9026" r="0.663456" fill="#aa0087a0"/>
  </g>
</svg>
