<?xml version="1.0" encoding="UTF-8" standalone="no"?>
<svg viewBox="-13.6085 -13.6085 27.2171 27.2171" xmlns="http://www.w3.org/2000/svg">
  <rect x="-13.6085" y="-13.6085" width="27.2171" height="27.2171" fill="white"/>
  <g transform="scale(1, -1)">
  <circle cx="0" cy="0" r="0.496007" fill="#ff8080a0"/>
  <circle cx="1.2716" cy="0" r="0.775589" fill="#aa0087a0"/>
  <circle cx="0.276139" cy="1.4703" r="1" fill="#803dc1a0"/>
  <circle cx="0.276139" cy="-1.4703" r="1" fill="#803dc1a0"/>
  <circle cx="-0.859109" cy="0.496007" r="0.496007" fill="#ff8080a0"/>
  <circle cx="-0.859109" cy="-0.496007" r="0.496007" fill="#ff8080a0"/>
  <circle cx="-1.49491" cy="1.59724" r="0.775589" fill="#ff0066a0"/>
  <circle cx="-2.2705" cy="-9.48677e-20" r="1" fill="#803dc1a0"/>
  <circle cx="-1.49491" cy="-1.59724" r="0.775589" fill="#aa0087a0"/>
  <circle cx="2.04718" cy="-1.34336" r="0.775589" fill="#aa0087a0"/>
  <circle cx="2.04718" cy="1.34336" r="0.775589" fill="#aa0087a0"/>
  <circle cx="2.82277" cy="1.074e-09" r="0.775589" fill="#ff0066a0"/>
  <circle cx="1.41139" cy="2.44459" r="0.496007" fill="#ff8080a0"/>
  <circle cx="-0.719317" cy="2.9406" r="0.775589" fill="#aa0087a0"/>
  <circle cx="0.552278" cy="2.9406" r="0.496007" fill="#ff8080a0"/>
  <circle cx="1.41139" cy="-2.44459" r="0.496007" fill="#ff8080a0"/>
  <circle cx="-0.719317" cy="-2.9406" r="0.775589" fill="#aa0087a0"/>
  <circle cx="0.552278" cy="-2.9406" r="0.496007" fill="#ff8080a0"/>
  <circle cx="-3.04608" cy="-1.59724" r="0.775589" fill="#ff0066a0"/>
  <circle cx="-2.2705" cy="-2.9406" r="0.775589" fill="#ff0066a0"/>
  <circle cx="-3.04608" cy="1.59724" r="0.775589" fill="#ff0066a0"/>
  <circle cx="-2.2705" cy="2.9406" r="0.775589" fill="#aa0087a0"/>
  <circle cx="3.59836" cy="-1.34336" r="0.775589" fill="#aa0087a0"/>
  <circle cx="2.82277" cy="-2.9406" r="1" fill="#803dc1a0"/>
  <circle cx="3.59836" cy="1.34336" r="0.775589" fill="#ff0066a0"/>
  <circle cx="2.82277" cy="2.9406" r="1" fill="#803dc1a0"/>
  <circle cx="-3.68188" cy="0.496007" r="0.496007" fill="#ff8080a0"/>
  <circle cx="-3.68188" cy="-0.496007" r="0.496007" fill="#ff8080a0"/>
  <circle cx="1.41139" cy="3.43661" r="0.496007" fill="#ff8080a0"/>
  <circle cx="1.41139" cy="-3.43661" r="0.496007" fill="#ff8080a0"/>
  <circle cx="0.276139" cy="-4.4109" r="1" fill="#803dc1a0"/>
  <circle cx="4.37395" cy="1.71817e-09" r="0.775589" fill="#ff0066a0"/>
  <circle cx="-1.49491" cy="-4.28396" r="0.775589" fill="#aa0087a0"/>
  <circle cx="0.276139" cy="4.4109" r="1" fill="#803dc1a0"/>
  <circle cx="-1.49491" cy="4.28396" r="0.775589" fill="#aa0087a0"/>
  <circle cx="-4.81713" cy="1.4703" r="1" fill="#803dc1a0"/>
  <circle cx="-4.54099" cy="-2.37182e-10" r="0.496007" fill="#ff8080a0"/>
  <circle cx="-4.81713" cy="-1.4703" r="1" fill="#803dc1a0"/>
  <circle cx="2.04718" cy="4.53784" r="0.775589" fill="#aa0087a0"/>
  <circle cx="2.04718" cy="-4.53784" r="0.775589" fill="#aa0087a0"/>
  <circle cx="-3.82167" cy="-2.9406" r="0.775589" fill="#ff0066a0"/>
  <circle cx="-3.82167" cy="2.9406" r="0.775589" fill="#aa0087a0"/>
  <circle cx="-3.04608" cy="4.28396" r="0.775589" fill="#aa0087a0"/>
  <circle cx="-3.04608" cy="-4.28396" r="0.775589" fill="#ff0066a0"/>
  <circle cx="4.23416" cy="2.44459" r="0.496007" fill="#ff8080a0"/>
  <circle cx="5.36941" cy="1.4703" r="1" fill="#803dc1a0"/>
  <circle cx="4.23416" cy="-2.44459" r="0.496007" fill="#ff8080a0"/>
  <circle cx="5.36941" cy="-1.4703" r="1" fill="#803dc1a0"/>
  <circle cx="-5.81259" cy="1.46569e-09" r="0.775589" fill="#aa0087a0"/>
  <circle cx="4.23416" cy="-3.43661" r="0.496007" fill="#ff8080a0"/>
  <circle cx="3.59836" cy="-4.53784" r="0.775589" fill="#aa0087a0"/>
  <circle cx="4.23416" cy="3.43661" r="0.496007" fill="#ff8080a0"/>
  <circle cx="3.59836" cy="4.53784" r="0.775589" fill="#ff0066a0"/>
  <circle cx="5.64555" cy="2.04723e-09" r="0.496007" fill="#ff8080a0"/>
  <circle cx="-0.859109" cy="-5.38519" r="0.496007" fill="#ff8080a0"/>
  <circle cx="-2.2705" cy="-5.8812" r="1" fill="#803dc1a0"/>
  <circle cx="-0.859109" cy="5.38519" r="0.496007" fill="#ff8080a0"/>
  <circle cx="-2.2705" cy="5.8812" r="1" fill="#803dc1a0"/>
  <circle cx="5.09327" cy="2.9406" r="0.496007" fill="#ff8080a0"/>
  <circle cx="5.09327" cy="-2.9406" r="0.496007" fill="#ff8080a0"/>
  <circle cx="1.2716" cy="5.8812" r="0.775589" fill="#aa0087a0"/>
  <circle cx="-4.53982e-09" cy="5.8812" r="0.496007" fill="#ff8080a0"/>
  <circle cx="1.2716" cy="-5.8812" r="0.775589" fill="#aa0087a0"/>
  <circle cx="-5.59643e-09" cy="-5.8812" r="0.496007" fill="#ff8080a0"/>
  <circle cx="-5.09327" cy="-2.9406" r="0.496007" fill="#ff8080a0"/>
  <circle cx="-4.81713" cy="-4.4109" r="1" fill="#803dc1a0"/>
  <circle cx="-5.09327" cy="2.9406" r="0.496007" fill="#ff8080a0"/>
  <circle cx="-4.81713" cy="4.4109" r="1" fill="#803dc1a0"/>
  <circle cx="2.82277" cy="5.8812" r="0.775589" fill="#aa0087a0"/>
  <circle cx="2.82277" cy="-5.8812" r="0.775589" fill="#aa0087a0"/>
  <circle cx="5.36941" cy="4.4109" r="1" fill="#803dc1a0"/>
  <circle cx="5.36941" cy="-4.4109" r="1" fill="#803dc1a0"/>
  <circle cx="-0.859109" cy="6.37721" r="0.496007" fill="#ff8080a0"/>
  <circle cx="-0.859109" cy="-6.37721" r="0.496007" fill="#ff8080a0"/>
  <circle cx="-3.68188" cy="5.38519" r="0.496007" fill="#ff8080a0"/>
  <circle cx="-3.68188" cy="-5.38519" r="0.496007" fill="#ff8080a0"/>
  <circle cx="-5.95238" cy="2.44459" r="0.496007" fill="#ff8080a0"/>
  <circle cx="-6.58818" cy="1.34336" r="0.775589" fill="#aa0087a0"/>
  <circle cx="-5.95238" cy="-2.44459" r="0.496007" fill="#ff8080a0"/>
  <circle cx="-6.58818" cy="-1.34336" r="0.775589" fill="#aa0087a0"/>
  <circle cx="6.50466" cy="0.496007" r="0.496007" fill="#ff8080a0"/>
  <circle cx="6.50466" cy="-0.496007" r="0.496007" fill="#ff8080a0"/>
  <circle cx="6.36487" cy="2.9406" r="0.775589" fill="#ff0066a0"/>
  <circle cx="6.36487" cy="-2.9406" r="0.775589" fill="#ff0066a0"/>
  <circle cx="-5.95238" cy="-3.43661" r="0.496007" fill="#ff8080a0"/>
  <circle cx="-5.95238" cy="3.43661" r="0.496007" fill="#ff8080a0"/>
  <circle cx="0.276139" cy="7.3515" r="1" fill="#803dc1a0"/>
  <circle cx="0.276139" cy="-7.3515" r="1" fill="#803dc1a0"/>
  <circle cx="4.37395" cy="-5.8812" r="0.775589" fill="#ff0066a0"/>
  <circle cx="4.37395" cy="5.8812" r="0.775589" fill="#aa0087a0"/>
  <circle cx="7.14045" cy="1.59724" r="0.775589" fill="#aa0087a0"/>
  <circle cx="7.14045" cy="-1.59724" r="0.775589" fill="#ff0066a0"/>
  <circle cx="-7.36377" cy="2.68368e-09" r="0.775589" fill="#aa0087a0"/>
  <circle cx="2.04718" cy="7.22456" r="0.775589" fill="#aa0087a0"/>
  <circle cx="2.04718" cy="-7.22456" r="0.775589" fill="#ff0066a0"/>
  <circle cx="-7.36377" cy="-2.9406" r="1" fill="#803dc1a0"/>
  <circle cx="-7.36377" cy="2.9406" r="1" fill="#803dc1a0"/>
  <circle cx="-1.49491" cy="7.47844" r="0.775589" fill="#aa0087a0"/>
  <circle cx="-1.49491" cy="-7.47844" r="0.775589" fill="#ff0066a0"/>
  <circle cx="7.91604" cy="4.4546e-09" r="1" fill="#803dc1a0"/>
  <circle cx="-3.68188" cy="6.37721" r="0.496007" fill="#ff8080a0"/>
  <circle cx="-4.54099" cy="5.8812" r="0.496007" fill="#ff8080a0"/>
  <circle cx="-3.68188" cy="-6.37721" r="0.496007" fill="#ff8080a0"/>
  <circle cx="-4.54099" cy="-5.8812" r="0.496007" fill="#ff8080a0"/>
  <circle cx="3.59836" cy="-7.22456" r="0.775589" fill="#aa0087a0"/>
  <circle cx="3.59836" cy="7.22456" r="0.775589" fill="#ff0066a0"/>
  <circle cx="-3.04608" cy="-7.47844" r="0.775589" fill="#ff0066a0"/>
  <circle cx="-3.04608" cy="7.47844" r="0.775589" fill="#ff0066a0"/>
  <circle cx="-6.58818" cy="-4.53784" r="0.775589" fill="#aa0087a0"/>
  <circle cx="-6.58818" cy="4.53784" r="0.775589" fill="#ff0066a0"/>
  <circle cx="-8.13935" cy="1.34336" r="0.775589" fill="#aa0087a0"/>
  <circle cx="-8.13935" cy="-1.34336" r="0.775589" fill="#aa0087a0"/>
  <circle cx="-5.81259" cy="-5.8812" r="0.775589" fill="#ff0066a0"/>
  <circle cx="-5.81259" cy="5.8812" r="0.775589" fill="#aa0087a0"/>
  <circle cx="7.14045" cy="4.28396" r="0.775589" fill="#ff0066a0"/>
  <circle cx="7.91604" cy="2.9406" r="0.775589" fill="#aa0087a0"/>
  <circle cx="7.14045" cy="-4.28396" r="0.775589" fill="#aa0087a0"/>
  <circle cx="7.91604" cy="-2.9406" r="0.775589" fill="#ff0066a0"/>
  <circle cx="-4.81713" cy="7.3515" r="1" fill="#803dc1a0"/>
  <circle cx="-4.81713" cy="-7.3515" r="1" fill="#803dc1a0"/>
  <circle cx="5.64555" cy="5.8812" r="0.496007" fill="#ff8080a0"/>
  <circle cx="6.50466" cy="5.38519" r="0.496007" fill="#ff8080a0"/>
  <circle cx="5.64555" cy="-5.8812" r="0.496007" fill="#ff8080a0"/>
  <circle cx="6.50466" cy="-5.38519" r="0.496007" fill="#ff8080a0"/>
  <circle cx="8.69163" cy="1.59724" r="0.775589" fill="#aa0087a0"/>
  <circle cx="8.69163" cy="-1.59724" r="0.775589" fill="#aa0087a0"/>
  <circle cx="5.36941" cy="7.3515" r="1" fill="#803dc1a0"/>
  <circle cx="5.36941" cy="-7.3515" r="1" fill="#803dc1a0"/>
  <circle cx="-8.91494" cy="3.90168e-09" r="0.775589" fill="#aa0087a0"/>
  <circle cx="1.41139" cy="8.3258" r="0.496007" fill="#ff8080a0"/>
  <circle cx="2.82277" cy="8.8218" r="1" fill="#803dc1a0"/>
  <circle cx="1.41139" cy="-8.3258" r="0.496007" fill="#ff8080a0"/>
  <circle cx="2.82277" cy="-8.8218" r="1" fill="#803dc1a0"/>
  <circle cx="-0.719317" cy="8.8218" r="0.775589" fill="#aa0087a0"/>
  <circle cx="0.552278" cy="8.8218" r="0.496007" fill="#ff8080a0"/>
  <circle cx="-0.719317" cy="-8.8218" r="0.775589" fill="#ff0066a0"/>
  <circle cx="0.552278" cy="-8.8218" r="0.496007" fill="#ff8080a0"/>
  <circle cx="-2.2705" cy="8.8218" r="0.775589" fill="#aa0087a0"/>
  <circle cx="-2.2705" cy="-8.8218" r="0.775589" fill="#aa0087a0"/>
  <circle cx="6.50466" cy="6.37721" r="0.496007" fill="#ff8080a0"/>
  <circle cx="6.50466" cy="-6.37721" r="0.496007" fill="#ff8080a0"/>
  <circle cx="-8.13935" cy="-4.53784" r="0.775589" fill="#aa0087a0"/>
  <circle cx="-7.36377" cy="-5.8812" r="0.775589" fill="#ff0066a0"/>
  <circle cx="-8.13935" cy="4.53784" r="0.775589" fill="#ff0066a0"/>
  <circle cx="-7.36377" cy="5.8812" r="0.775589" fill="#aa0087a0"/>
  <circle cx="4.23416" cy="-8.3258" r="0.496007" fill="#ff8080a0"/>
  <circle cx="4.23416" cy="8.3258" r="0.496007" fill="#ff8080a0"/>
  <circle cx="-3.82167" cy="-8.8218" r="0.775589" fill="#ff0066a0"/>
  <circle cx="-3.82167" cy="8.8218" r="0.775589" fill="#ff0066a0"/>
  <circle cx="9.32743" cy="0.496007" r="0.496007" fill="#ff8080a0"/>
  <circle cx="9.32743" cy="-0.496007" r="0.496007" fill="#ff8080a0"/>
  <circle cx="-8.77515" cy="2.44459" r="0.496007" fill="#ff8080a0"/>
  <circle cx="-8.77515" cy="3.43661" r="0.496007" fill="#ff8080a0"/>
  <circle cx="-8.77515" cy="-2.44459" r="0.496007" fill="#ff8080a0"/>
  <circle cx="-8.77515" cy="-3.43661" r="0.496007" fill="#ff8080a0"/>
  <circle cx="7.91604" cy="5.8812" r="1" fill="#803dc1a0"/>
  <circle cx="7.91604" cy="-5.8812" r="1" fill="#803dc1a0"/>
  <circle cx="1.41139" cy="9.31781" r="0.496007" fill="#ff8080a0"/>
  <circle cx="1.41139" cy="-9.31781" r="0.496007" fill="#ff8080a0"/>
  <circle cx="-9.9104" cy="1.4703" r="1" fill="#803dc1a0"/>
  <circle cx="-9.9104" cy="-1.4703" r="1" fill="#803dc1a0"/>
  <circle cx="-6.58818" cy="7.22456" r="0.775589" fill="#aa0087a0"/>
  <circle cx="-6.58818" cy="-7.22456" r="0.775589" fill="#ff0066a0"/>
  <circle cx="8.69163" cy="4.28396" r="0.775589" fill="#aa0087a0"/>
  <circle cx="8.69163" cy="-4.28396" r="0.775589" fill="#aa0087a0"/>
  <circle cx="9.46722" cy="2.9406" r="0.775589" fill="#aa0087a0"/>
  <circle cx="9.46722" cy="-2.9406" r="0.775589" fill="#aa0087a0"/>
  <circle cx="0.276139" cy="10.2921" r="1" fill="#803dc1a0"/>
  <circle cx="0.276139" cy="-10.2921" r="1" fill="#803dc1a0"/>
  <circle cx="7.14045" cy="7.47844" r="0.775589" fill="#aa0087a0"/>
  <circle cx="7.14045" cy="-7.47844" r="0.775589" fill="#ff0066a0"/>
  <circle cx="-9.63426" cy="2.9406" r="0.496007" fill="#ff8080a0"/>
  <circle cx="-9.63426" cy="-2.9406" r="0.496007" fill="#ff8080a0"/>
  <circle cx="10.4627" cy="1.4703" r="1" fill="#803dc1a0"/>
  <circle cx="10.4627" cy="-1.4703" r="1" fill="#803dc1a0"/>
  <circle cx="-1.49491" cy="10.1652" r="0.775589" fill="#aa0087a0"/>
  <circle cx="-1.49491" cy="-10.1652" r="0.775589" fill="#ff0066a0"/>
  <circle cx="-10.1865" cy="4.19555e-09" r="0.496007" fill="#ff8080a0"/>
  <circle cx="-5.09327" cy="8.8218" r="0.496007" fill="#ff8080a0"/>
  <circle cx="-5.95238" cy="8.3258" r="0.496007" fill="#ff8080a0"/>
  <circle cx="-5.09327" cy="-8.8218" r="0.496007" fill="#ff8080a0"/>
  <circle cx="-5.95238" cy="-8.3258" r="0.496007" fill="#ff8080a0"/>
  <circle cx="10.1865" cy="7.31202e-09" r="0.496007" fill="#ff8080a0"/>
  <circle cx="5.09327" cy="-8.8218" r="0.496007" fill="#ff8080a0"/>
  <circle cx="4.23416" cy="-9.31781" r="0.496007" fill="#ff8080a0"/>
  <circle cx="5.09327" cy="8.8218" r="0.496007" fill="#ff8080a0"/>
  <circle cx="4.23416" cy="9.31781" r="0.496007" fill="#ff8080a0"/>
  <circle cx="-3.04608" cy="-10.1652" r="0.775589" fill="#aa0087a0"/>
  <circle cx="-3.04608" cy="10.1652" r="0.775589" fill="#aa0087a0"/>
  <circle cx="-9.9104" cy="-4.4109" r="1" fill="#803dc1a0"/>
  <circle cx="-9.9104" cy="4.4109" r="1" fill="#803dc1a0"/>
  <circle cx="2.04718" cy="10.419" r="0.775589" fill="#ff0066a0"/>
  <circle cx="2.04718" cy="-10.419" r="0.775589" fill="#aa0087a0"/>
  <circle cx="-8.91494" cy="-5.8812" r="0.775589" fill="#ff0066a0"/>
  <circle cx="-8.91494" cy="5.8812" r="0.775589" fill="#ff0066a0"/>
  <circle cx="6.36487" cy="8.8218" r="0.775589" fill="#aa0087a0"/>
  <circle cx="6.36487" cy="-8.8218" r="0.775589" fill="#aa0087a0"/>
  <circle cx="-8.13935" cy="-7.22456" r="0.775589" fill="#aa0087a0"/>
  <circle cx="-8.13935" cy="7.22456" r="0.775589" fill="#aa0087a0"/>
  <circle cx="3.59836" cy="10.419" r="0.775589" fill="#aa0087a0"/>
  <circle cx="3.59836" cy="-10.419" r="0.775589" fill="#aa0087a0"/>
  <circle cx="-4.81713" cy="10.2921" r="1" fill="#803dc1a0"/>
  <circle cx="-4.81713" cy="-10.2921" r="1" fill="#803dc1a0"/>
  <circle cx="10.4627" cy="4.4109" r="1" fill="#803dc1a0"/>
  <circle cx="9.32743" cy="5.38519" r="0.496007" fill="#ff8080a0"/>
  <circle cx="10.4627" cy="-4.4109" r="1" fill="#803dc1a0"/>
  <circle cx="9.32743" cy="-5.38519" r="0.496007" fill="#ff8080a0"/>
  <circle cx="-7.36377" cy="8.8218" r="1" fill="#803dc1a0"/>
  <circle cx="-7.36377" cy="-8.8218" r="1" fill="#803dc1a0"/>
  <circle cx="-10.9059" cy="2.9406" r="0.775589" fill="#ff0066a0"/>
  <circle cx="-10.9059" cy="-2.9406" r="0.775589" fill="#ff0066a0"/>
  <circle cx="11.4581" cy="7.32595e-09" r="0.775589" fill="#ff0066a0"/>
  <circle cx="-5.95238" cy="9.31781" r="0.496007" fill="#ff8080a0"/>
  <circle cx="5.36941" cy="-10.2921" r="1" fill="#803dc1a0"/>
  <circle cx="5.36941" cy="10.2921" r="1" fill="#803dc1a0"/>
  <circle cx="-5.95238" cy="-9.31781" r="0.496007" fill="#ff8080a0"/>
  <circle cx="-11.0456" cy="0.496007" r="0.496007" fill="#ff8080a0"/>
  <circle cx="-11.0456" cy="-0.496007" r="0.496007" fill="#ff8080a0"/>
  <circle cx="10.7388" cy="2.9406" r="0.496007" fill="#ff8080a0"/>
  <circle cx="10.7388" cy="-2.9406" r="0.496007" fill="#ff8080a0"/>
  <circle cx="9.32743" cy="6.37721" r="0.496007" fill="#ff8080a0"/>
  <circle cx="8.69163" cy="7.47844" r="0.775589" fill="#aa0087a0"/>
  <circle cx="9.32743" cy="-6.37721" r="0.496007" fill="#ff8080a0"/>
  <circle cx="8.69163" cy="-7.47844" r="0.775589" fill="#ff0066a0"/>
  <circle cx="-11.6814" cy="1.59724" r="0.775589" fill="#aa0087a0"/>
  <circle cx="-11.6814" cy="-1.59724" r="0.775589" fill="#ff0066a0"/>
  <circle cx="-0.859109" cy="-11.2664" r="0.496007" fill="#ff8080a0"/>
  <circle cx="-2.2705" cy="-11.7624" r="1" fill="#803dc1a0"/>
  <circle cx="-0.859109" cy="11.2664" r="0.496007" fill="#ff8080a0"/>
  <circle cx="-2.2705" cy="11.7624" r="1" fill="#803dc1a0"/>
  <circle cx="7.91604" cy="8.8218" r="0.775589" fill="#aa0087a0"/>
  <circle cx="7.91604" cy="-8.8218" r="0.775589" fill="#aa0087a0"/>
  <circle cx="10.1865" cy="5.8812" r="0.496007" fill="#ff8080a0"/>
  <circle cx="10.1865" cy="-5.8812" r="0.496007" fill="#ff8080a0"/>
  <circle cx="1.2716" cy="11.7624" r="0.775589" fill="#ff0066a0"/>
  <circle cx="-8.35104e-08" cy="11.7624" r="0.496007" fill="#ff8080a0"/>
  <circle cx="1.2716" cy="-11.7624" r="0.775589" fill="#aa0087a0"/>
  <circle cx="-9.16432e-08" cy="-11.7624" r="0.496007" fill="#ff8080a0"/>
  <circle cx="-3.68188" cy="-11.2664" r="0.496007" fill="#ff8080a0"/>
  <circle cx="-3.68188" cy="11.2664" r="0.496007" fill="#ff8080a0"/>
  <circle cx="2.82277" cy="11.7624" r="0.775589" fill="#aa0087a0"/>
  <circle cx="2.82277" cy="-11.7624" r="0.775589" fill="#ff0066a0"/>
  <circle cx="-10.1865" cy="-5.8812" r="0.496007" fill="#ff8080a0"/>
  <circle cx="-9.9104" cy="-7.3515" r="1" fill="#803dc1a0"/>
  <circle cx="-10.1865" cy="5.8812" r="0.496007" fill="#ff8080a0"/>
  <circle cx="-9.9104" cy="7.3515" r="1" fill="#803dc1a0"/>
  <circle cx="-6.58818" cy="10.419" r="0.775589" fill="#aa0087a0"/>
  <circle cx="-6.58818" cy="-10.419" r="0.775589" fill="#aa0087a0"/>
  <circle cx="-12.457" cy="3.87134e-09" r="1" fill="#803dc1a0"/>
  <circle cx="11.5979" cy="2.44459" r="0.496007" fill="#ff8080a0"/>
  <circle cx="12.2337" cy="1.34336" r="0.775589" fill="#aa0087a0"/>
  <circle cx="11.5979" cy="-2.44459" r="0.496007" fill="#ff8080a0"/>
  <circle cx="12.2337" cy="-1.34336" r="0.775589" fill="#ff0066a0"/>
  <circle cx="11.5979" cy="3.43661" r="0.496007" fill="#ff8080a0"/>
  <circle cx="11.5979" cy="-3.43661" r="0.496007" fill="#ff8080a0"/>
  <circle cx="7.14045" cy="10.1652" r="0.775589" fill="#ff0066a0"/>
  <circle cx="7.14045" cy="-10.1652" r="0.775589" fill="#aa0087a0"/>
  <circle cx="-8.77515" cy="8.3258" r="0.496007" fill="#ff8080a0"/>
  <circle cx="-8.77515" cy="-8.3258" r="0.496007" fill="#ff8080a0"/>
  <circle cx="10.4627" cy="7.3515" r="1" fill="#803dc1a0"/>
  <circle cx="10.4627" cy="-7.3515" r="1" fill="#803dc1a0"/>
  <circle cx="-0.859109" cy="12.2584" r="0.496007" fill="#ff8080a0"/>
  <circle cx="-0.859109" cy="-12.2584" r="0.496007" fill="#ff8080a0"/>
  <circle cx="4.37395" cy="-11.7624" r="0.775589" fill="#ff0066a0"/>
  <circle cx="4.37395" cy="11.7624" r="0.775589" fill="#aa0087a0"/>
  <circle cx="-11.0456" cy="-5.38519" r="0.496007" fill="#ff8080a0"/>
  <circle cx="-11.6814" cy="-4.28396" r="0.775589" fill="#ff0066a0"/>
  <circle cx="-11.0456" cy="5.38519" r="0.496007" fill="#ff8080a0"/>
  <circle cx="-11.6814" cy="4.28396" r="0.775589" fill="#ff0066a0"/>
  <circle cx="-12.457" cy="2.9406" r="0.775589" fill="#ff0066a0"/>
  <circle cx="-12.457" cy="-2.9406" r="0.775589" fill="#ff0066a0"/>
  <circle cx="13.0093" cy="7.7572e-09" r="0.775589" fill="#aa0087a0"/>
  <circle cx="9.46722" cy="8.8218" r="0.775589" fill="#ff0066a0"/>
  <circle cx="9.46722" cy="-8.8218" r="0.775589" fill="#ff0066a0"/>
  <circle cx="-11.0456" cy="-6.37721" r="0.496007" fill="#ff8080a0"/>
  <circle cx="11.4581" cy="5.8812" r="0.775589" fill="#ff0066a0"/>
  <circle cx="-11.0456" cy="6.37721" r="0.496007" fill="#ff8080a0"/>
  <circle cx="11.4581" cy="-5.8812" r="0.775589" fill="#ff0066a0"/>
  <circle cx="0.276139" cy="13.2327" r="1" fill="#803dc1a0"/>
  <circle cx="0.276139" cy="-13.2327" r="1" fill="#803dc1a0"/>
  <circle cx="13.0093" cy="2.9406" r="1" fill="#803dc1a0"/>
  <circle cx="13.0093" cy="-2.9406" r="1" fill="#803dc1a0"/>
  <circle cx="-4.54099" cy="11.7624" r="0.496007" fill="#ff8080a0"/>
  <circle cx="-3.68188" cy="12.2584" r="0.496007" fill="#ff8080a0"/>
  <circle cx="-4.54099" cy="-11.7624" r="0.496007" fill="#ff8080a0"/>
  <circle cx="-3.68188" cy="-12.2584" r="0.496007" fill="#ff8080a0"/>
  <circle cx="12.2337" cy="4.53784" r="0.775589" fill="#aa0087a0"/>
  <circle cx="12.2337" cy="-4.53784" r="0.775589" fill="#aa0087a0"/>
  <circle cx="-5.81259" cy="11.7624" r="0.775589" fill="#ff0066a0"/>
  <circle cx="-5.81259" cy="-11.7624" r="0.775589" fill="#aa0087a0"/>
  <circle cx="-8.77515" cy="9.31781" r="0.496007" fill="#ff8080a0"/>
  <circle cx="-8.13935" cy="10.419" r="0.775589" fill="#aa0087a0"/>
  <circle cx="-8.77515" cy="-9.31781" r="0.496007" fill="#ff8080a0"/>
  <circle cx="-8.13935" cy="-10.419" r="0.775589" fill="#aa0087a0"/>
  <circle cx="-13.2326" cy="-1.59724" r="0.775589" fill="#ff0066a0"/>
  <circle cx="-13.2326" cy="1.59724" r="0.775589" fill="#ff0066a0"/>
  <circle cx="-9.63426" cy="8.8218" r="0.496007" fill="#ff8080a0"/>
  <circle cx="-9.63426" cy="-8.8218" r="0.496007" fill="#ff8080a0"/>
  <circle cx="2.04718" cy="13.1058" r="0.775589" fill="#aa0087a0"/>
  <circle cx="2.04718" cy="-13.1058" r="0.775589" fill="#ff0066a0"/>
  </g>
</svg>
